<?xml version="1.0" encoding="utf-8"?>
<!-- Generator: Adobe Illustrator 22.0.1, SVG Export Plug-In . SVG Version: 6.00 Build 0)  -->
<svg version="1.0" id="Objects" xmlns="http://www.w3.org/2000/svg" xmlns:xlink="http://www.w3.org/1999/xlink" x="0px" y="0px"
	 width="359.8px" height="356.2px" viewBox="0 0 359.8 356.2" style="enable-background:new 0 0 359.8 356.2;" xml:space="preserve"
	>
<style type="text/css">
	.st0{opacity:0.1;fill:url(#SVGID_1_);}
	.st1{fill:#DFDFDF;}
	.st2{opacity:0.1;clip-path:url(#SVGID_3_);fill:#1D1D1B;}
	.st3{fill:#FFFFFF;}
</style>
<g>
	<linearGradient id="SVGID_1_" gradientUnits="userSpaceOnUse" x1="35.0486" y1="21.5789" x2="200.5443" y2="187.0746">
		<stop  offset="0" style="stop-color:#000000"/>
		<stop  offset="1" style="stop-color:#000000;stop-opacity:0"/>
	</linearGradient>
	<path class="st0" d="M359.3,221.9c-0.1-0.2-0.2-0.3-0.4-0.4c-0.1-0.2-0.2-0.3-0.4-0.4c-0.1-0.2-0.2-0.3-0.4-0.4
		c-0.1-0.2-0.2-0.3-0.4-0.4c-0.1-0.2-0.2-0.3-0.4-0.4c-0.1-0.2-0.2-0.3-0.4-0.4c-0.1-0.2-0.2-0.3-0.4-0.4c-0.1-0.2-0.2-0.3-0.4-0.4
		c-0.1-0.2-0.2-0.3-0.4-0.4c-0.1-0.2-0.2-0.3-0.4-0.4c-0.1-0.2-0.2-0.3-0.4-0.4c-0.1-0.2-0.2-0.3-0.4-0.4c-0.1-0.2-0.2-0.3-0.4-0.4
		c-0.1-0.2-0.2-0.3-0.4-0.4c-0.1-0.2-0.2-0.3-0.4-0.4c-0.1-0.2-0.2-0.3-0.4-0.4c-0.1-0.2-0.2-0.3-0.4-0.4c-0.1-0.2-0.2-0.3-0.4-0.4
		c-0.1-0.2-0.2-0.3-0.4-0.4c-0.1-0.2-0.2-0.3-0.4-0.4c-0.1-0.2-0.2-0.3-0.4-0.4c-0.1-0.2-0.2-0.3-0.4-0.4c-0.1-0.2-0.2-0.3-0.4-0.4
		c-0.1-0.2-0.2-0.3-0.4-0.4c-0.1-0.2-0.2-0.3-0.4-0.4c-0.1-0.2-0.2-0.3-0.4-0.4c-0.1-0.2-0.2-0.3-0.4-0.4c-0.1-0.2-0.2-0.3-0.4-0.4
		c-0.1-0.2-0.2-0.3-0.4-0.4c-0.1-0.2-0.2-0.3-0.4-0.4c-0.1-0.2-0.2-0.3-0.4-0.4c-0.1-0.2-0.2-0.3-0.4-0.4c-0.1-0.2-0.2-0.3-0.4-0.4
		c-0.1-0.2-0.2-0.3-0.4-0.4c-0.1-0.2-0.2-0.3-0.4-0.4c-0.1-0.2-0.2-0.3-0.4-0.4c-0.1-0.2-0.2-0.3-0.4-0.4c-0.1-0.2-0.2-0.3-0.4-0.4
		c-0.1-0.2-0.2-0.3-0.4-0.4c-0.1-0.2-0.2-0.3-0.4-0.4c-0.1-0.2-0.2-0.3-0.4-0.4c-0.1-0.2-0.2-0.3-0.4-0.4c-0.1-0.2-0.2-0.3-0.4-0.4
		c-0.1-0.2-0.2-0.3-0.4-0.4c-0.1-0.2-0.2-0.3-0.4-0.4c-0.1-0.2-0.2-0.3-0.4-0.4c-0.1-0.2-0.2-0.3-0.4-0.4c-0.1-0.2-0.2-0.3-0.4-0.4
		c-0.1-0.2-0.2-0.3-0.4-0.4c-0.1-0.2-0.2-0.3-0.4-0.4c-0.1-0.2-0.2-0.3-0.4-0.4c-0.1-0.2-0.2-0.3-0.4-0.4c-0.1-0.2-0.2-0.3-0.4-0.4
		c-0.1-0.2-0.2-0.3-0.4-0.4c-0.1-0.2-0.2-0.3-0.4-0.4c-0.1-0.2-0.2-0.3-0.4-0.4c-0.1-0.2-0.2-0.3-0.4-0.4c-0.1-0.2-0.2-0.3-0.4-0.4
		c-0.1-0.2-0.2-0.3-0.4-0.4c-0.1-0.2-0.2-0.3-0.4-0.4c-0.1-0.2-0.2-0.3-0.4-0.4c-0.1-0.2-0.2-0.3-0.4-0.4c-0.1-0.2-0.2-0.3-0.4-0.4
		c-0.1-0.2-0.2-0.3-0.4-0.4c-0.1-0.2-0.2-0.3-0.4-0.4c-0.1-0.2-0.2-0.3-0.4-0.4c-0.1-0.2-0.2-0.3-0.4-0.4c-0.1-0.2-0.2-0.3-0.4-0.4
		c-0.1-0.2-0.2-0.3-0.4-0.4c-0.1-0.2-0.2-0.3-0.4-0.4c-0.1-0.2-0.2-0.3-0.4-0.4c-0.1-0.2-0.2-0.3-0.4-0.4c-0.1-0.2-0.2-0.3-0.4-0.4
		c-0.1-0.2-0.2-0.3-0.4-0.4c-0.1-0.2-0.2-0.3-0.4-0.4c-0.1-0.2-0.2-0.3-0.4-0.4c-0.1-0.2-0.2-0.3-0.4-0.4c-0.1-0.2-0.2-0.3-0.4-0.4
		c-0.1-0.2-0.2-0.3-0.4-0.4c-0.1-0.2-0.2-0.3-0.4-0.4c-0.1-0.2-0.2-0.3-0.4-0.4c-0.1-0.2-0.2-0.3-0.4-0.4c-0.1-0.2-0.2-0.3-0.4-0.4
		c-0.1-0.2-0.2-0.3-0.4-0.4c-0.1-0.2-0.2-0.3-0.4-0.4c-0.1-0.2-0.2-0.3-0.4-0.4c-0.1-0.2-0.2-0.3-0.4-0.4c-0.1-0.2-0.2-0.3-0.4-0.4
		c-0.1-0.2-0.2-0.3-0.4-0.4c-0.1-0.2-0.2-0.3-0.4-0.4c-0.1-0.2-0.2-0.3-0.4-0.4c-0.1-0.2-0.2-0.3-0.4-0.4c-0.1-0.2-0.2-0.3-0.4-0.4
		c-0.1-0.2-0.2-0.3-0.4-0.4c-0.1-0.2-0.2-0.3-0.4-0.4c-0.1-0.2-0.2-0.3-0.4-0.4c-0.1-0.2-0.2-0.3-0.4-0.4c-0.1-0.2-0.2-0.3-0.4-0.4
		c-0.1-0.2-0.2-0.3-0.4-0.4c-0.1-0.2-0.2-0.3-0.4-0.4c-0.1-0.2-0.2-0.3-0.4-0.4c-0.1-0.2-0.2-0.3-0.4-0.4c-0.1-0.2-0.2-0.3-0.4-0.4
		c-0.1-0.2-0.2-0.3-0.4-0.4c-0.1-0.2-0.2-0.3-0.4-0.4c-0.1-0.2-0.2-0.3-0.4-0.4c-0.1-0.2-0.2-0.3-0.4-0.4c-0.1-0.2-0.2-0.3-0.4-0.4
		c-0.1-0.2-0.2-0.3-0.4-0.4c-0.1-0.2-0.2-0.3-0.4-0.4c-0.1-0.2-0.2-0.3-0.4-0.4c-0.1-0.2-0.2-0.3-0.4-0.4c-0.1-0.2-0.2-0.3-0.4-0.4
		c-0.1-0.2-0.2-0.3-0.4-0.4c-0.1-0.2-0.2-0.3-0.4-0.4c-0.1-0.2-0.2-0.3-0.4-0.4c-0.1-0.2-0.2-0.3-0.4-0.4c-0.1-0.2-0.2-0.3-0.4-0.4
		c-0.1-0.2-0.2-0.3-0.4-0.4c-0.1-0.2-0.2-0.3-0.4-0.4c-0.1-0.2-0.2-0.3-0.4-0.4c-0.1-0.2-0.2-0.3-0.4-0.4c-0.1-0.2-0.2-0.3-0.4-0.4
		c-0.1-0.2-0.2-0.3-0.4-0.4c-0.1-0.2-0.2-0.3-0.4-0.4c-0.1-0.2-0.2-0.3-0.4-0.4c-0.1-0.2-0.2-0.3-0.4-0.4c-0.1-0.2-0.2-0.3-0.4-0.4
		c-0.1-0.2-0.2-0.3-0.4-0.4c-0.1-0.2-0.2-0.3-0.4-0.4c-0.1-0.2-0.2-0.3-0.4-0.4c-0.1-0.2-0.2-0.3-0.4-0.4c-0.1-0.2-0.2-0.3-0.4-0.4
		c-0.1-0.2-0.2-0.3-0.4-0.4c-0.1-0.2-0.2-0.3-0.4-0.4c-0.1-0.2-0.2-0.3-0.4-0.4c-0.1-0.2-0.2-0.3-0.4-0.4c-0.1-0.2-0.2-0.3-0.4-0.4
		c-0.1-0.2-0.2-0.3-0.4-0.4c-0.1-0.2-0.2-0.3-0.4-0.4c-0.1-0.2-0.2-0.3-0.4-0.4c-0.1-0.2-0.2-0.3-0.4-0.4c-0.1-0.2-0.2-0.3-0.4-0.4
		c-0.1-0.2-0.2-0.3-0.4-0.4c-0.1-0.2-0.2-0.3-0.4-0.4c-0.1-0.2-0.2-0.3-0.4-0.4c-0.1-0.2-0.2-0.3-0.4-0.4c-0.1-0.2-0.2-0.3-0.4-0.4
		c-0.1-0.2-0.2-0.3-0.4-0.4c-0.1-0.2-0.2-0.3-0.4-0.4c-0.1-0.2-0.2-0.3-0.4-0.4c-0.1-0.2-0.2-0.3-0.4-0.4c-0.1-0.2-0.2-0.3-0.4-0.4
		c-0.1-0.2-0.2-0.3-0.4-0.4c-0.1-0.2-0.2-0.3-0.4-0.4c-0.1-0.2-0.2-0.3-0.4-0.4c-0.1-0.2-0.2-0.3-0.4-0.4c-0.1-0.2-0.2-0.3-0.4-0.4
		c-0.1-0.2-0.2-0.3-0.4-0.4c-0.1-0.2-0.2-0.3-0.4-0.4c-0.1-0.2-0.2-0.3-0.4-0.4c-0.1-0.2-0.2-0.3-0.4-0.4c-0.1-0.2-0.2-0.3-0.4-0.4
		c-0.1-0.2-0.2-0.3-0.4-0.4c-0.1-0.2-0.2-0.3-0.4-0.4c-0.1-0.2-0.2-0.3-0.4-0.4c-0.1-0.2-0.2-0.3-0.4-0.4c-0.1-0.2-0.2-0.3-0.4-0.4
		c-0.1-0.2-0.2-0.3-0.4-0.4c-0.1-0.2-0.2-0.3-0.4-0.4c-0.1-0.2-0.2-0.3-0.4-0.4c-0.1-0.2-0.2-0.3-0.4-0.4c-0.1-0.2-0.2-0.3-0.4-0.4
		c-0.1-0.2-0.2-0.3-0.4-0.4c-0.1-0.2-0.2-0.3-0.4-0.4c-0.1-0.2-0.2-0.3-0.4-0.4c-0.1-0.2-0.2-0.3-0.4-0.4c-0.1-0.2-0.2-0.3-0.4-0.4
		c-0.1-0.2-0.2-0.3-0.4-0.4c-0.1-0.2-0.2-0.3-0.4-0.4c-0.1-0.2-0.2-0.3-0.4-0.4c-0.1-0.2-0.2-0.3-0.4-0.4c-0.1-0.2-0.2-0.3-0.4-0.4
		c-0.1-0.2-0.2-0.3-0.4-0.4c-0.1-0.2-0.2-0.3-0.4-0.4c-0.1-0.2-0.2-0.3-0.4-0.4c-0.1-0.2-0.2-0.3-0.4-0.4c-0.1-0.2-0.2-0.3-0.4-0.4
		c-0.1-0.2-0.2-0.3-0.4-0.4c-0.1-0.2-0.2-0.3-0.4-0.4c-0.1-0.2-0.2-0.3-0.4-0.4c-0.1-0.2-0.2-0.3-0.4-0.4c-0.1-0.2-0.2-0.3-0.4-0.4
		c-0.1-0.2-0.2-0.3-0.4-0.4c-0.1-0.2-0.2-0.3-0.4-0.4c-0.1-0.2-0.2-0.3-0.4-0.4c-0.1-0.2-0.2-0.3-0.4-0.4c-0.1-0.2-0.2-0.3-0.4-0.4
		c-0.1-0.2-0.2-0.3-0.4-0.4c-0.1-0.2-0.2-0.3-0.4-0.4c-0.1-0.2-0.2-0.3-0.4-0.4c-0.1-0.2-0.2-0.3-0.4-0.4c-0.1-0.2-0.2-0.3-0.4-0.4
		c-0.1-0.2-0.2-0.3-0.4-0.4c-0.1-0.2-0.2-0.3-0.4-0.4c-0.1-0.2-0.2-0.3-0.4-0.4c-0.1-0.2-0.2-0.3-0.4-0.4c-0.1-0.2-0.2-0.3-0.4-0.4
		c-0.1-0.2-0.2-0.3-0.4-0.4c-0.1-0.2-0.2-0.3-0.4-0.4c-0.1-0.2-0.2-0.3-0.4-0.4c-0.1-0.2-0.2-0.3-0.4-0.4c-0.1-0.2-0.2-0.3-0.4-0.4
		c-0.1-0.2-0.2-0.3-0.4-0.4c-0.1-0.2-0.2-0.3-0.4-0.4c-0.1-0.2-0.2-0.3-0.4-0.4c-0.1-0.2-0.2-0.3-0.4-0.4c-0.1-0.2-0.2-0.3-0.4-0.4
		c-0.1-0.2-0.2-0.3-0.4-0.4c-0.1-0.2-0.2-0.3-0.4-0.4c-0.1-0.2-0.2-0.3-0.4-0.4c-0.1-0.2-0.2-0.3-0.4-0.4c-0.1-0.2-0.2-0.3-0.4-0.4
		c-0.1-0.2-0.2-0.3-0.4-0.4c-0.1-0.2-0.2-0.3-0.4-0.4c-0.1-0.2-0.2-0.3-0.4-0.4c-0.1-0.2-0.2-0.3-0.4-0.4c-0.1-0.2-0.2-0.3-0.4-0.4
		c-0.1-0.2-0.2-0.3-0.4-0.4c-0.1-0.2-0.2-0.3-0.4-0.4c-0.1-0.2-0.2-0.3-0.4-0.4c-0.1-0.2-0.2-0.3-0.4-0.4c-0.1-0.2-0.2-0.3-0.4-0.4
		c-0.1-0.2-0.2-0.3-0.4-0.4c-0.1-0.2-0.2-0.3-0.4-0.4c-0.1-0.2-0.2-0.3-0.4-0.4c-0.1-0.2-0.2-0.3-0.4-0.4c-0.1-0.2-0.2-0.3-0.4-0.4
		c-0.1-0.2-0.2-0.3-0.4-0.4c-0.1-0.2-0.2-0.3-0.4-0.4c-0.1-0.2-0.2-0.3-0.4-0.4c-0.1-0.2-0.2-0.3-0.4-0.4c-0.1-0.2-0.2-0.3-0.4-0.4
		c-0.1-0.2-0.2-0.3-0.4-0.4c-0.1-0.2-0.2-0.3-0.4-0.4c-0.1-0.2-0.2-0.3-0.4-0.4c-0.1-0.2-0.2-0.3-0.4-0.4c-0.1-0.2-0.2-0.3-0.4-0.4
		c-0.1-0.2-0.2-0.3-0.4-0.4c-0.1-0.2-0.2-0.3-0.4-0.4c-0.1-0.2-0.2-0.3-0.4-0.4c-0.1-0.2-0.2-0.3-0.4-0.4c-0.1-0.2-0.2-0.3-0.4-0.4
		c-0.1-0.2-0.2-0.3-0.4-0.4c-0.1-0.2-0.2-0.3-0.4-0.4c-0.1-0.2-0.2-0.3-0.4-0.4c-0.1-0.2-0.2-0.3-0.4-0.4c-0.1-0.2-0.2-0.3-0.4-0.4
		c-0.1-0.2-0.2-0.3-0.4-0.4c-0.1-0.2-0.2-0.3-0.4-0.4c-0.1-0.2-0.2-0.3-0.4-0.4c-0.1-0.2-0.2-0.3-0.4-0.4c-0.1-0.2-0.2-0.3-0.4-0.4
		c-0.1-0.2-0.2-0.3-0.4-0.4c-0.1-0.2-0.2-0.3-0.4-0.4c-0.1-0.2-0.2-0.3-0.4-0.4c-0.1-0.2-0.2-0.3-0.4-0.4c-0.1-0.2-0.2-0.3-0.4-0.4
		c-0.1-0.2-0.2-0.3-0.4-0.4c-0.1-0.2-0.2-0.3-0.4-0.4c-0.1-0.2-0.2-0.3-0.4-0.4c-0.1-0.2-0.2-0.3-0.4-0.4c-0.1-0.2-0.2-0.3-0.4-0.4
		c-0.1-0.2-0.2-0.3-0.4-0.4c-0.1-0.2-0.2-0.3-0.4-0.4c-0.1-0.2-0.2-0.3-0.4-0.4c-0.1-0.2-0.2-0.3-0.4-0.4c-0.1-0.2-0.2-0.3-0.4-0.4
		c-0.1-0.2-0.2-0.3-0.4-0.4c-0.1-0.2-0.2-0.3-0.4-0.4c-0.1-0.2-0.2-0.3-0.4-0.4c-0.1-0.2-0.2-0.3-0.4-0.4c-0.1-0.2-0.2-0.3-0.4-0.4
		c-0.1-0.2-0.2-0.3-0.4-0.4c-0.1-0.2-0.2-0.3-0.4-0.4c-0.1-0.2-0.2-0.3-0.4-0.4c-0.1-0.2-0.2-0.3-0.4-0.4c-0.1-0.2-0.2-0.3-0.4-0.4
		c-0.1-0.2-0.2-0.3-0.4-0.4c-0.1-0.2-0.2-0.3-0.4-0.4c-0.1-0.2-0.2-0.3-0.4-0.4c-0.1-0.2-0.2-0.3-0.4-0.4c-0.1-0.2-0.2-0.3-0.4-0.4
		c-0.1-0.2-0.2-0.3-0.4-0.4c-0.1-0.2-0.2-0.3-0.4-0.4c-0.1-0.2-0.2-0.3-0.4-0.4c-0.1-0.2-0.2-0.3-0.4-0.4c-0.1-0.2-0.2-0.3-0.4-0.4
		c-0.1-0.2-0.2-0.3-0.4-0.4c-0.1-0.2-0.2-0.3-0.4-0.4c-0.1-0.2-0.2-0.3-0.4-0.4c-0.1-0.2-0.2-0.3-0.4-0.4c-0.1-0.2-0.2-0.3-0.4-0.4
		c-0.1-0.2-0.2-0.3-0.4-0.4c-0.1-0.2-0.2-0.3-0.4-0.4c-0.1-0.2-0.2-0.3-0.4-0.4c-0.1-0.2-0.2-0.3-0.4-0.4c-0.1-0.2-0.2-0.3-0.4-0.4
		c-0.1-0.2-0.2-0.3-0.4-0.4c-0.1-0.2-0.2-0.3-0.4-0.4c-0.1-0.2-0.2-0.3-0.4-0.4c-0.1-0.2-0.2-0.3-0.4-0.4c-0.1-0.2-0.2-0.3-0.4-0.4
		c-0.1-0.2-0.2-0.3-0.4-0.4c-0.1-0.2-0.2-0.3-0.4-0.4c-0.1-0.2-0.2-0.3-0.4-0.4c-0.1-0.2-0.2-0.3-0.4-0.4c-0.1-0.2-0.2-0.3-0.4-0.4
		c-0.1-0.2-0.2-0.3-0.4-0.4c-0.1-0.2-0.2-0.3-0.4-0.4c-0.1-0.2-0.2-0.3-0.4-0.4c-0.1-0.2-0.2-0.3-0.4-0.4c-0.1-0.2-0.2-0.3-0.4-0.4
		c-0.1-0.2-0.2-0.3-0.4-0.4c-0.1-0.2-0.2-0.3-0.4-0.4c-0.1-0.2-0.2-0.3-0.4-0.4c-0.1-0.2-0.2-0.3-0.4-0.4c-0.1-0.2-0.2-0.3-0.4-0.4
		c-0.1-0.2-0.2-0.3-0.4-0.4c-0.1-0.2-0.2-0.3-0.4-0.4c-0.1-0.2-0.2-0.3-0.4-0.4c-0.1-0.2-0.2-0.3-0.4-0.4c-0.1-0.2-0.2-0.3-0.4-0.4
		c-0.1-0.2-0.2-0.3-0.4-0.4c-0.1-0.2-0.2-0.3-0.4-0.4c-0.1-0.2-0.2-0.3-0.4-0.4c-0.1-0.2-0.2-0.3-0.4-0.4c-0.1-0.2-0.2-0.3-0.4-0.4
		c-0.1-0.2-0.2-0.3-0.4-0.4c-0.1-0.2-0.2-0.3-0.4-0.4c-0.1-0.2-0.2-0.3-0.4-0.4c-0.1-0.2-0.2-0.3-0.4-0.4c-0.1-0.2-0.2-0.3-0.4-0.4
		c-0.1-0.2-0.2-0.3-0.4-0.4c-0.1-0.2-0.2-0.3-0.4-0.4c-0.1-0.2-0.2-0.3-0.4-0.4c-0.1-0.2-0.2-0.3-0.4-0.4c-0.1-0.2-0.2-0.3-0.4-0.4
		c-0.1-0.2-0.2-0.3-0.4-0.4c-0.1-0.2-0.2-0.3-0.4-0.4c-0.1-0.2-0.2-0.3-0.4-0.4c-0.1-0.2-0.2-0.3-0.4-0.4c-0.1-0.2-0.2-0.3-0.4-0.4
		c-0.1-0.2-0.2-0.3-0.4-0.4c-0.1-0.2-0.2-0.3-0.4-0.4c-0.1-0.2-0.2-0.3-0.4-0.4c-0.1-0.2-0.2-0.3-0.4-0.4c-0.1-0.2-0.2-0.3-0.4-0.4
		c-0.1-0.2-0.2-0.3-0.4-0.4c-0.1-0.2-0.2-0.3-0.4-0.4c-0.1-0.2-0.2-0.3-0.4-0.4c-0.1-0.2-0.2-0.3-0.4-0.4c-0.1-0.2-0.2-0.3-0.4-0.4
		c-0.1-0.2-0.2-0.3-0.4-0.4c-0.1-0.2-0.2-0.3-0.4-0.4c-0.1-0.2-0.2-0.3-0.4-0.4c-0.1-0.2-0.2-0.3-0.4-0.4c-0.1-0.2-0.2-0.3-0.4-0.4
		c-0.1-0.2-0.2-0.3-0.4-0.4c-0.1-0.2-0.2-0.3-0.4-0.4c-0.1-0.2-0.2-0.3-0.4-0.4c-0.1-0.2-0.2-0.3-0.4-0.4c-0.1-0.2-0.2-0.3-0.4-0.4
		c-0.1-0.2-0.2-0.3-0.4-0.4c-0.1-0.2-0.2-0.3-0.4-0.4c-0.1-0.2-0.2-0.3-0.4-0.4c-0.1-0.2-0.2-0.3-0.4-0.4c-0.1-0.2-0.2-0.3-0.4-0.4
		c-0.1-0.2-0.2-0.3-0.4-0.4c-0.1-0.2-0.2-0.3-0.4-0.4c-0.1-0.2-0.2-0.3-0.4-0.4c-0.1-0.2-0.2-0.3-0.4-0.4c-0.1-0.2-0.2-0.3-0.4-0.4
		c-0.1-0.2-0.2-0.3-0.4-0.4c-0.1-0.2-0.2-0.3-0.4-0.4c-0.1-0.2-0.2-0.3-0.4-0.4c-0.1-0.2-0.2-0.3-0.4-0.4c-0.1-0.2-0.2-0.3-0.4-0.4
		c-0.1-0.2-0.2-0.3-0.4-0.4c-0.1-0.2-0.2-0.3-0.4-0.4c-0.1-0.2-0.2-0.3-0.4-0.4c-0.1-0.2-0.2-0.3-0.4-0.4c-0.1-0.2-0.2-0.3-0.4-0.4
		c-0.1-0.2-0.2-0.3-0.4-0.4c-0.1-0.2-0.2-0.3-0.4-0.4c-0.1-0.2-0.2-0.3-0.4-0.4c-0.1-0.2-0.2-0.3-0.4-0.4c-0.1-0.2-0.2-0.3-0.4-0.4
		c-0.1-0.2-0.2-0.3-0.4-0.4c-0.1-0.2-0.2-0.3-0.4-0.4c-0.1-0.2-0.2-0.3-0.4-0.4c-0.1-0.2-0.2-0.3-0.4-0.4c-0.1-0.2-0.2-0.3-0.4-0.4
		c-0.1-0.2-0.2-0.3-0.4-0.4c-0.1-0.2-0.2-0.3-0.4-0.4c-0.1-0.2-0.2-0.3-0.4-0.4c-0.1-0.2-0.2-0.3-0.4-0.4c-0.1-0.2-0.2-0.3-0.4-0.4
		c-0.1-0.2-0.2-0.3-0.4-0.4c-0.1-0.2-0.2-0.3-0.4-0.4c-0.1-0.2-0.2-0.3-0.4-0.4c-0.1-0.2-0.2-0.3-0.4-0.4c-0.1-0.2-0.2-0.3-0.4-0.4
		c-0.1-0.2-0.2-0.3-0.4-0.4c-0.1-0.2-0.2-0.3-0.4-0.4c-0.1-0.2-0.2-0.3-0.4-0.4c-0.1-0.2-0.2-0.3-0.4-0.4c-0.1-0.2-0.2-0.3-0.4-0.4
		c-0.1-0.2-0.2-0.3-0.4-0.4c-0.1-0.2-0.2-0.3-0.4-0.4c-0.1-0.2-0.2-0.3-0.4-0.4c-0.1-0.2-0.2-0.3-0.4-0.4c-0.1-0.2-0.2-0.3-0.4-0.4
		c-0.1-0.2-0.2-0.3-0.4-0.4c-0.1-0.2-0.2-0.3-0.4-0.4c-0.1-0.2-0.2-0.3-0.4-0.4c-0.1-0.2-0.2-0.3-0.4-0.4c-0.1-0.2-0.2-0.3-0.4-0.4
		c-0.1-0.2-0.2-0.3-0.4-0.4c-0.1-0.2-0.2-0.3-0.4-0.4c-0.1-0.2-0.2-0.3-0.4-0.4c-0.1-0.2-0.2-0.3-0.4-0.4c-0.1-0.2-0.2-0.3-0.4-0.4
		c-0.1-0.2-0.2-0.3-0.4-0.4c-0.1-0.2-0.2-0.3-0.4-0.4c-0.1-0.2-0.2-0.3-0.4-0.4c-0.1-0.2-0.2-0.3-0.4-0.4c-0.1-0.2-0.2-0.3-0.4-0.4
		c-0.1-0.2-0.2-0.3-0.4-0.4c-0.1-0.2-0.2-0.3-0.4-0.4c-0.1-0.2-0.2-0.3-0.4-0.4c-0.1-0.2-0.2-0.3-0.4-0.4c-0.1-0.2-0.2-0.3-0.4-0.4
		c-0.1-0.2-0.2-0.3-0.4-0.4c-0.1-0.2-0.2-0.3-0.4-0.4c-0.1-0.2-0.2-0.3-0.4-0.4c-0.1-0.2-0.2-0.3-0.4-0.4c-0.1-0.2-0.2-0.3-0.4-0.4
		c-0.1-0.2-0.2-0.3-0.4-0.4c-0.1-0.2-0.2-0.3-0.4-0.4c-0.1-0.2-0.2-0.3-0.4-0.4c-0.1-0.2-0.2-0.3-0.4-0.4c-0.1-0.2-0.2-0.3-0.4-0.4
		c-0.1-0.2-0.2-0.3-0.4-0.4c-0.1-0.2-0.2-0.3-0.4-0.4c-0.1-0.2-0.2-0.3-0.4-0.4c-0.1-0.2-0.2-0.3-0.4-0.4c-0.1-0.2-0.2-0.3-0.4-0.4
		c-0.1-0.2-0.2-0.3-0.4-0.4c-0.1-0.2-0.2-0.3-0.4-0.4c-0.1-0.2-0.2-0.3-0.4-0.4c-0.1-0.2-0.2-0.3-0.4-0.4c-0.1-0.2-0.2-0.3-0.4-0.4
		c-0.1-0.2-0.2-0.3-0.4-0.4c-0.1-0.2-0.2-0.3-0.4-0.4c-0.1-0.2-0.2-0.3-0.4-0.4c-0.1-0.2-0.2-0.3-0.4-0.4c-0.1-0.2-0.2-0.3-0.4-0.4
		c-0.1-0.2-0.2-0.3-0.4-0.4c-0.1-0.2-0.2-0.3-0.4-0.4c-0.1-0.2-0.2-0.3-0.4-0.4c-0.1-0.2-0.2-0.3-0.4-0.4c-0.1-0.2-0.2-0.3-0.4-0.4
		c-0.1-0.2-0.2-0.3-0.4-0.4c-0.1-0.2-0.2-0.3-0.4-0.4c-0.1-0.2-0.2-0.3-0.4-0.4c-0.1-0.2-0.2-0.3-0.4-0.4c-0.1-0.2-0.2-0.3-0.4-0.4
		c-0.1-0.2-0.2-0.3-0.4-0.4c-0.1-0.2-0.2-0.3-0.4-0.4c-0.1-0.2-0.2-0.3-0.4-0.4c-0.1-0.2-0.2-0.3-0.4-0.4c-0.1-0.2-0.2-0.3-0.4-0.4
		c-0.1-0.2-0.2-0.3-0.4-0.4c-0.1-0.2-0.2-0.3-0.4-0.4c-0.1-0.2-0.2-0.3-0.4-0.4c-0.1-0.2-0.2-0.3-0.4-0.4c-0.1-0.2-0.2-0.3-0.4-0.4
		c-0.1-0.2-0.2-0.3-0.4-0.4c-0.1-0.2-0.2-0.3-0.4-0.4c-0.1-0.2-0.2-0.3-0.4-0.4c-0.1-0.2-0.2-0.3-0.4-0.4c-0.1-0.2-0.2-0.3-0.4-0.4
		c-0.1-0.2-0.2-0.3-0.4-0.4c-0.1-0.2-0.2-0.3-0.4-0.4c-0.1-0.2-0.2-0.3-0.4-0.4c-0.1-0.2-0.2-0.3-0.4-0.4c-0.1-0.2-0.2-0.3-0.4-0.4
		c-0.1-0.2-0.2-0.3-0.4-0.4c-0.9-2-8.3,1.8-18.6,8.5c0,0-0.1-0.1-0.1-0.1c-0.1-0.1-0.3-0.3-0.4-0.4c-0.1-0.1-0.3-0.3-0.4-0.4
		c-0.1-0.1-0.3-0.3-0.4-0.4c-0.1-0.1-0.3-0.3-0.4-0.4c-0.1-0.1-0.3-0.3-0.4-0.4c-0.1-0.1-0.3-0.3-0.4-0.4c-0.1-0.1-0.3-0.3-0.4-0.4
		c-0.1-0.1-0.3-0.3-0.4-0.4c-0.1-0.1-0.3-0.3-0.4-0.4c-0.1-0.1-0.3-0.3-0.4-0.4c-0.1-0.1-0.3-0.3-0.4-0.4c-0.1-0.1-0.3-0.3-0.4-0.4
		c-0.1-0.1-0.3-0.3-0.4-0.4c-0.1-0.1-0.3-0.3-0.4-0.4c-0.1-0.1-0.3-0.3-0.4-0.4c-0.1-0.1-0.3-0.3-0.4-0.4c-0.1-0.1-0.3-0.3-0.4-0.4
		c-0.1-0.1-0.3-0.3-0.4-0.4c-0.1-0.1-0.3-0.3-0.4-0.4C119.2,8.8,99.7,0,78,0C34.9,0,0,34.9,0,78c0,21.6,8.8,41.2,23.1,55.4
		c0.1,0.1,0.3,0.3,0.4,0.4c0.1,0.1,0.3,0.3,0.4,0.4c0.1,0.1,0.3,0.3,0.4,0.4c0.1,0.1,0.3,0.3,0.4,0.4c0.1,0.1,0.3,0.3,0.4,0.4
		c0.1,0.1,0.3,0.3,0.4,0.4c0.1,0.1,0.3,0.3,0.4,0.4c0.1,0.1,0.3,0.3,0.4,0.4c0.1,0.1,0.3,0.3,0.4,0.4c0.1,0.1,0.3,0.3,0.4,0.4
		c0.1,0.1,0.3,0.3,0.4,0.4c0.1,0.1,0.3,0.3,0.4,0.4c0.1,0.1,0.3,0.3,0.4,0.4c0.1,0.1,0.3,0.3,0.4,0.4c0.1,0.1,0.3,0.3,0.4,0.4
		c0.1,0.1,0.3,0.3,0.4,0.4c0.1,0.1,0.3,0.3,0.4,0.4c0.1,0.1,0.3,0.3,0.4,0.4c0.1,0.1,0.3,0.3,0.4,0.4c0.1,0.1,0.3,0.3,0.4,0.4
		c0.1,0.1,0.3,0.3,0.4,0.4c0.1,0.1,0.3,0.3,0.4,0.4c0.1,0.1,0.3,0.3,0.4,0.4c0.1,0.1,0.3,0.3,0.4,0.4c0.1,0.1,0.3,0.3,0.4,0.4
		c0.1,0.1,0.3,0.3,0.4,0.4c0.1,0.1,0.3,0.3,0.4,0.4c0.1,0.1,0.3,0.3,0.4,0.4c0.1,0.1,0.3,0.3,0.4,0.4c0.1,0.1,0.3,0.3,0.4,0.4
		c0.1,0.1,0.3,0.3,0.4,0.4c0.1,0.1,0.3,0.3,0.4,0.4c0.1,0.1,0.3,0.3,0.4,0.4c0.1,0.1,0.3,0.3,0.4,0.4c0.1,0.1,0.3,0.3,0.4,0.4
		c0.1,0.1,0.3,0.3,0.4,0.4c0.1,0.1,0.3,0.3,0.4,0.4c0.1,0.1,0.3,0.3,0.4,0.4c0.1,0.1,0.3,0.3,0.4,0.4c0.1,0.1,0.3,0.3,0.4,0.4
		c0.1,0.1,0.3,0.3,0.4,0.4c0.1,0.1,0.3,0.3,0.4,0.4c0.1,0.1,0.3,0.3,0.4,0.4c0.1,0.1,0.3,0.3,0.4,0.4c0.1,0.1,0.3,0.3,0.4,0.4
		c0.1,0.1,0.3,0.3,0.4,0.4c0.1,0.1,0.3,0.3,0.4,0.4c0.1,0.1,0.3,0.3,0.4,0.4c0.1,0.1,0.3,0.3,0.4,0.4c0.1,0.1,0.3,0.3,0.4,0.4
		c0.1,0.1,0.3,0.3,0.4,0.4c0.1,0.1,0.3,0.3,0.4,0.4c0.1,0.1,0.3,0.3,0.4,0.4c0.1,0.1,0.3,0.3,0.4,0.4c0.1,0.1,0.3,0.3,0.4,0.4
		c0.1,0.1,0.3,0.3,0.4,0.4c0.1,0.1,0.3,0.3,0.4,0.4c0.1,0.1,0.3,0.3,0.4,0.4c0.1,0.1,0.3,0.3,0.4,0.4c0.1,0.1,0.3,0.3,0.4,0.4
		c0.1,0.1,0.3,0.3,0.4,0.4c0.1,0.1,0.3,0.3,0.4,0.4c0.1,0.1,0.3,0.3,0.4,0.4c0.1,0.1,0.3,0.3,0.4,0.4c0.1,0.1,0.3,0.3,0.4,0.4
		c0.1,0.1,0.3,0.3,0.4,0.4c0.1,0.1,0.3,0.3,0.4,0.4c0.1,0.1,0.3,0.3,0.4,0.4c0.1,0.1,0.3,0.3,0.4,0.4c0.1,0.1,0.3,0.3,0.4,0.4
		c0.1,0.1,0.3,0.3,0.4,0.4c0.1,0.1,0.3,0.3,0.4,0.4c0.1,0.1,0.3,0.3,0.4,0.4c0.1,0.1,0.3,0.3,0.4,0.4c0.1,0.1,0.3,0.3,0.4,0.4
		c0.1,0.1,0.3,0.3,0.4,0.4c0.1,0.1,0.3,0.3,0.4,0.4c0.1,0.1,0.3,0.3,0.4,0.4c0.1,0.1,0.3,0.3,0.4,0.4c0.1,0.1,0.3,0.3,0.4,0.4
		c0.1,0.1,0.3,0.3,0.4,0.4c0.1,0.1,0.3,0.3,0.4,0.4c0.1,0.1,0.3,0.3,0.4,0.4c0.1,0.1,0.3,0.3,0.4,0.4c0.1,0.1,0.3,0.3,0.4,0.4
		c0.1,0.1,0.3,0.3,0.4,0.4c0.1,0.1,0.3,0.3,0.4,0.4c0.1,0.1,0.3,0.3,0.4,0.4c0.1,0.1,0.3,0.3,0.4,0.4c0.1,0.1,0.3,0.3,0.4,0.4
		c0.1,0.1,0.3,0.3,0.4,0.4c0.1,0.1,0.3,0.3,0.4,0.4c0.1,0.1,0.3,0.3,0.4,0.4c0.1,0.1,0.3,0.3,0.4,0.4c0.1,0.1,0.3,0.3,0.4,0.4
		c0.1,0.1,0.3,0.3,0.4,0.4c0.1,0.1,0.3,0.3,0.4,0.4c0.1,0.1,0.3,0.3,0.4,0.4c0.1,0.1,0.3,0.3,0.4,0.4c0.1,0.1,0.3,0.3,0.4,0.4
		c0.1,0.1,0.3,0.3,0.4,0.4c0.1,0.1,0.3,0.3,0.4,0.4c0.1,0.1,0.3,0.3,0.4,0.4c0.1,0.1,0.3,0.3,0.4,0.4c0.1,0.1,0.3,0.3,0.4,0.4
		c0.1,0.1,0.3,0.3,0.4,0.4c0.1,0.1,0.3,0.3,0.4,0.4c0.1,0.1,0.3,0.3,0.4,0.4c0.1,0.1,0.3,0.3,0.4,0.4c0.1,0.1,0.3,0.3,0.4,0.4
		c0.1,0.1,0.3,0.3,0.4,0.4c0.1,0.1,0.3,0.3,0.4,0.4c0.1,0.1,0.3,0.3,0.4,0.4c0.1,0.1,0.3,0.3,0.4,0.4c0.1,0.1,0.3,0.3,0.4,0.4
		c0.1,0.1,0.3,0.3,0.4,0.4c0.1,0.1,0.3,0.3,0.4,0.4c0.1,0.1,0.3,0.3,0.4,0.4c0.1,0.1,0.3,0.3,0.4,0.4c0.1,0.1,0.3,0.3,0.4,0.4
		c0.1,0.1,0.3,0.3,0.4,0.4c0.1,0.1,0.3,0.3,0.4,0.4c0.1,0.1,0.3,0.3,0.4,0.4c0.1,0.1,0.3,0.3,0.4,0.4c0.1,0.1,0.3,0.3,0.4,0.4
		c0.1,0.1,0.3,0.3,0.4,0.4c0.1,0.1,0.3,0.3,0.4,0.4c0.1,0.1,0.3,0.3,0.4,0.4c0.1,0.1,0.3,0.3,0.4,0.4c0.1,0.1,0.3,0.3,0.4,0.4
		c0.1,0.1,0.3,0.3,0.4,0.4c0.1,0.1,0.3,0.3,0.4,0.4c0.1,0.1,0.3,0.3,0.4,0.4c0.1,0.1,0.3,0.3,0.4,0.4c0.1,0.1,0.3,0.3,0.4,0.4
		c0.1,0.1,0.3,0.3,0.4,0.4c0.1,0.1,0.3,0.3,0.4,0.4c0.1,0.1,0.3,0.3,0.4,0.4c0.1,0.1,0.3,0.3,0.4,0.4c0.1,0.1,0.3,0.3,0.4,0.4
		c0.1,0.1,0.3,0.3,0.4,0.4c0.1,0.1,0.3,0.3,0.4,0.4c0.1,0.1,0.3,0.3,0.4,0.4c0.1,0.1,0.3,0.3,0.4,0.4c0.1,0.1,0.3,0.3,0.4,0.4
		c0.1,0.1,0.3,0.3,0.4,0.4c0.1,0.1,0.3,0.3,0.4,0.4c0.1,0.1,0.3,0.3,0.4,0.4c0.1,0.1,0.3,0.3,0.4,0.4c0.1,0.1,0.3,0.3,0.4,0.4
		c0.1,0.1,0.3,0.3,0.4,0.4c0.1,0.1,0.3,0.3,0.4,0.4c0.1,0.1,0.3,0.3,0.4,0.4c0.1,0.1,0.3,0.3,0.4,0.4c0.1,0.1,0.3,0.3,0.4,0.4
		c0.1,0.1,0.3,0.3,0.4,0.4c0.1,0.1,0.3,0.3,0.4,0.4c0.1,0.1,0.3,0.3,0.4,0.4c0.1,0.1,0.3,0.3,0.4,0.4c0.1,0.1,0.3,0.3,0.4,0.4
		c0.1,0.1,0.3,0.3,0.4,0.4c0.1,0.1,0.3,0.3,0.4,0.4c0.1,0.1,0.3,0.3,0.4,0.4c0.1,0.1,0.3,0.3,0.4,0.4c0.1,0.1,0.3,0.3,0.4,0.4
		c0.1,0.1,0.3,0.3,0.4,0.4c0.1,0.1,0.3,0.3,0.4,0.4c0.1,0.1,0.3,0.3,0.4,0.4c0.1,0.1,0.3,0.3,0.4,0.4c0.1,0.1,0.3,0.3,0.4,0.4
		c0.1,0.1,0.3,0.3,0.4,0.4c0.1,0.1,0.3,0.3,0.4,0.4c0.1,0.1,0.3,0.3,0.4,0.4c0.1,0.1,0.3,0.3,0.4,0.4c0.1,0.1,0.3,0.3,0.4,0.4
		c0.1,0.1,0.3,0.3,0.4,0.4c0.1,0.1,0.3,0.3,0.4,0.4c0.1,0.1,0.3,0.3,0.4,0.4c0.1,0.1,0.3,0.3,0.4,0.4c0.1,0.1,0.3,0.3,0.4,0.4
		c0.1,0.1,0.3,0.3,0.4,0.4c0.1,0.1,0.3,0.3,0.4,0.4c0.1,0.1,0.3,0.3,0.4,0.4c0.1,0.1,0.3,0.3,0.4,0.4c0.1,0.1,0.3,0.3,0.4,0.4
		c0.1,0.1,0.3,0.3,0.4,0.4c0.1,0.1,0.3,0.3,0.4,0.4c0.1,0.1,0.3,0.3,0.4,0.4c0.1,0.1,0.3,0.3,0.4,0.4c0.1,0.1,0.3,0.3,0.4,0.4
		c0.1,0.1,0.3,0.3,0.4,0.4c0.1,0.1,0.3,0.3,0.4,0.4c0.1,0.1,0.3,0.3,0.4,0.4c0.1,0.1,0.3,0.3,0.4,0.4c0.1,0.1,0.3,0.3,0.4,0.4
		c0.1,0.1,0.3,0.3,0.4,0.4c0.1,0.1,0.3,0.3,0.4,0.4c0.1,0.1,0.3,0.3,0.4,0.4c0.1,0.1,0.3,0.3,0.4,0.4c0.1,0.1,0.3,0.3,0.4,0.4
		c0.1,0.1,0.3,0.3,0.4,0.4c0.1,0.1,0.3,0.3,0.4,0.4c0.1,0.1,0.3,0.3,0.4,0.4c0.1,0.1,0.3,0.3,0.4,0.4c0.1,0.1,0.3,0.3,0.4,0.4
		c0.1,0.1,0.3,0.3,0.4,0.4c0.1,0.1,0.3,0.3,0.4,0.4c0.1,0.1,0.3,0.3,0.4,0.4c0.1,0.1,0.3,0.3,0.4,0.4c0.1,0.1,0.3,0.3,0.4,0.4
		c0.1,0.1,0.3,0.3,0.4,0.4c0.1,0.1,0.3,0.3,0.4,0.4c0.1,0.1,0.3,0.3,0.4,0.4c0.1,0.1,0.3,0.3,0.4,0.4c0.1,0.1,0.3,0.3,0.4,0.4
		c0.1,0.1,0.3,0.3,0.4,0.4c0.1,0.1,0.3,0.3,0.4,0.4c0.1,0.1,0.3,0.3,0.4,0.4c0.1,0.1,0.3,0.3,0.4,0.4c0.1,0.1,0.3,0.3,0.4,0.4
		c0.1,0.1,0.3,0.3,0.4,0.4c0.1,0.1,0.3,0.3,0.4,0.4c0.1,0.1,0.3,0.3,0.4,0.4c0.1,0.1,0.3,0.3,0.4,0.4c0.1,0.1,0.3,0.3,0.4,0.4
		c0.1,0.1,0.3,0.3,0.4,0.4c0.1,0.1,0.3,0.3,0.4,0.4c0.1,0.1,0.3,0.3,0.4,0.4c0.1,0.1,0.3,0.3,0.4,0.4c0.1,0.1,0.3,0.3,0.4,0.4
		c0.1,0.1,0.3,0.3,0.4,0.4c0.1,0.1,0.3,0.3,0.4,0.4c0.1,0.1,0.3,0.3,0.4,0.4c0.1,0.1,0.3,0.3,0.4,0.4c0.1,0.1,0.3,0.3,0.4,0.4
		c0.1,0.1,0.3,0.3,0.4,0.4c0.1,0.1,0.3,0.3,0.4,0.4c0.1,0.1,0.3,0.3,0.4,0.4c0.1,0.1,0.3,0.3,0.4,0.4c0.1,0.1,0.3,0.3,0.4,0.4
		c0.1,0.1,0.3,0.3,0.4,0.4c0.1,0.1,0.3,0.3,0.4,0.4c0.1,0.1,0.3,0.3,0.4,0.4c0.1,0.1,0.3,0.3,0.4,0.4c0.1,0.1,0.3,0.3,0.4,0.4
		c0.1,0.1,0.3,0.3,0.4,0.4c0.1,0.1,0.3,0.3,0.4,0.4c0.1,0.1,0.3,0.3,0.4,0.4c0.1,0.1,0.3,0.3,0.4,0.4c0.1,0.1,0.3,0.3,0.4,0.4
		c0.1,0.1,0.3,0.3,0.4,0.4c0.1,0.1,0.3,0.3,0.4,0.4c0.1,0.1,0.3,0.3,0.4,0.4c0.1,0.1,0.3,0.3,0.4,0.4c0.1,0.1,0.3,0.3,0.4,0.4
		c0.1,0.1,0.3,0.3,0.4,0.4c0.1,0.1,0.3,0.3,0.4,0.4c0.1,0.1,0.3,0.3,0.4,0.4c0.1,0.1,0.3,0.3,0.4,0.4c0.1,0.1,0.3,0.3,0.4,0.4
		c0.1,0.1,0.3,0.3,0.4,0.4c0.1,0.1,0.3,0.3,0.4,0.4c0.1,0.1,0.3,0.3,0.4,0.4c0.1,0.1,0.3,0.3,0.4,0.4c0.1,0.1,0.3,0.3,0.4,0.4
		c0.1,0.1,0.3,0.3,0.4,0.4c0.1,0.1,0.3,0.3,0.4,0.4c0.1,0.1,0.3,0.3,0.4,0.4c0.1,0.1,0.3,0.3,0.4,0.4c0.1,0.1,0.3,0.3,0.4,0.4
		c0.1,0.1,0.3,0.3,0.4,0.4c0.1,0.1,0.3,0.3,0.4,0.4c0.1,0.1,0.3,0.3,0.4,0.4c0.1,0.1,0.3,0.3,0.4,0.4c0.1,0.1,0.3,0.3,0.4,0.4
		c0.1,0.1,0.3,0.3,0.4,0.4c0.1,0.1,0.3,0.3,0.4,0.4c0.1,0.1,0.3,0.3,0.4,0.4c0.1,0.1,0.3,0.3,0.4,0.4c0.1,0.1,0.3,0.3,0.4,0.4
		c0.1,0.1,0.3,0.3,0.4,0.4c0.1,0.1,0.3,0.3,0.4,0.4c0.1,0.1,0.3,0.3,0.4,0.4c0.1,0.1,0.3,0.3,0.4,0.4c0.1,0.1,0.3,0.3,0.4,0.4
		c0.1,0.1,0.3,0.3,0.4,0.4c0.1,0.1,0.3,0.3,0.4,0.4c0.1,0.1,0.3,0.3,0.4,0.4c0.1,0.1,0.3,0.3,0.4,0.4c0.1,0.1,0.3,0.3,0.4,0.4
		c0.1,0.1,0.3,0.3,0.4,0.4c0.1,0.1,0.3,0.3,0.4,0.4c0.1,0.1,0.3,0.3,0.4,0.4c0.1,0.1,0.3,0.3,0.4,0.4c0.1,0.1,0.3,0.3,0.4,0.4
		c0.1,0.1,0.3,0.3,0.4,0.4c0.1,0.1,0.3,0.3,0.4,0.4c0.1,0.1,0.3,0.3,0.4,0.4c0.1,0.1,0.3,0.3,0.4,0.4c0.1,0.1,0.3,0.3,0.4,0.4
		c0.1,0.1,0.3,0.3,0.4,0.4c0.1,0.1,0.3,0.3,0.4,0.4c0.1,0.1,0.3,0.3,0.4,0.4c0.1,0.1,0.3,0.3,0.4,0.4c0.1,0.1,0.3,0.3,0.4,0.4
		c0.1,0.1,0.3,0.3,0.4,0.4c0.1,0.1,0.3,0.3,0.4,0.4c0.1,0.1,0.3,0.3,0.4,0.4c0.1,0.1,0.3,0.3,0.4,0.4c0.1,0.1,0.3,0.3,0.4,0.4
		c0.1,0.1,0.3,0.3,0.4,0.4c0.1,0.1,0.3,0.3,0.4,0.4c0.1,0.1,0.3,0.3,0.4,0.4c0.1,0.1,0.3,0.3,0.4,0.4c0.1,0.1,0.3,0.3,0.4,0.4
		c0.1,0.1,0.3,0.3,0.4,0.4c0.1,0.1,0.3,0.3,0.4,0.4c0.1,0.1,0.3,0.3,0.4,0.4c0.1,0.1,0.3,0.3,0.4,0.4c0.1,0.1,0.3,0.3,0.4,0.4
		c0.1,0.1,0.3,0.3,0.4,0.4c0.1,0.1,0.3,0.3,0.4,0.4c0.1,0.1,0.3,0.3,0.4,0.4c0.1,0.1,0.3,0.3,0.4,0.4c0.1,0.1,0.3,0.3,0.4,0.4
		c0.1,0.1,0.3,0.3,0.4,0.4c0.1,0.1,0.3,0.3,0.4,0.4c0.1,0.1,0.3,0.3,0.4,0.4c0.1,0.1,0.3,0.3,0.4,0.4c0.1,0.1,0.3,0.3,0.4,0.4
		c0.1,0.1,0.3,0.3,0.4,0.4c0.1,0.1,0.3,0.3,0.4,0.4c0.1,0.1,0.3,0.3,0.4,0.4c0.1,0.1,0.3,0.3,0.4,0.4c0.1,0.1,0.3,0.3,0.4,0.4
		c0.1,0.1,0.3,0.3,0.4,0.4c0.1,0.1,0.3,0.3,0.4,0.4c0.1,0.1,0.3,0.3,0.4,0.4c0.1,0.1,0.3,0.3,0.4,0.4c0.1,0.1,0.3,0.3,0.4,0.4
		c0.1,0.1,0.3,0.3,0.4,0.4c0.1,0.1,0.3,0.3,0.4,0.4c0.1,0.1,0.3,0.3,0.4,0.4c0.1,0.1,0.3,0.3,0.4,0.4c0.1,0.1,0.3,0.3,0.4,0.4
		c0.1,0.1,0.3,0.3,0.4,0.4c0.1,0.1,0.3,0.3,0.4,0.4c0.1,0.1,0.3,0.3,0.4,0.4c0.1,0.1,0.3,0.3,0.4,0.4c0.1,0.1,0.3,0.3,0.4,0.4
		c0.1,0.1,0.3,0.3,0.4,0.4c0.1,0.1,0.3,0.3,0.4,0.4c0.1,0.1,0.3,0.3,0.4,0.4c0.1,0.1,0.3,0.3,0.4,0.4c0.1,0.1,0.3,0.3,0.4,0.4
		c0.1,0.1,0.3,0.3,0.4,0.4c0.1,0.1,0.3,0.3,0.4,0.4c0.1,0.1,0.3,0.3,0.4,0.4c0.1,0.1,0.3,0.3,0.4,0.4c0.1,0.1,0.3,0.3,0.4,0.4
		c0.1,0.1,0.3,0.3,0.4,0.4c0.1,0.1,0.3,0.3,0.4,0.4c0.1,0.1,0.3,0.3,0.4,0.4c0.1,0.1,0.3,0.3,0.4,0.4c0.1,0.1,0.3,0.3,0.4,0.4
		c0.1,0.1,0.3,0.3,0.4,0.4c0.1,0.1,0.3,0.3,0.4,0.4c0.1,0.1,0.3,0.3,0.4,0.4c0.1,0.1,0.3,0.3,0.4,0.4c0.1,0.1,0.3,0.3,0.4,0.4
		c0.1,0.1,0.3,0.3,0.4,0.4c0.1,0.1,0.3,0.3,0.4,0.4c0.1,0.1,0.3,0.3,0.4,0.4c0.1,0.1,0.3,0.3,0.4,0.4c0.1,0.1,0.3,0.3,0.4,0.4
		c0.1,0.1,0.3,0.3,0.4,0.4c0.1,0.1,0.3,0.3,0.4,0.4c0.1,0.1,0.3,0.3,0.4,0.4c0.1,0.1,0.3,0.3,0.4,0.4c0.1,0.1,0.3,0.3,0.4,0.4
		c0.1,0.1,0.3,0.3,0.4,0.4c0.1,0.1,0.3,0.3,0.4,0.4c0.1,0.1,0.3,0.3,0.4,0.4c0.1,0.1,0.3,0.3,0.4,0.4c0.1,0.1,0.3,0.3,0.4,0.4
		c0.1,0.1,0.3,0.3,0.4,0.4c0.1,0.1,0.3,0.3,0.4,0.4c0.1,0.1,0.3,0.3,0.4,0.4c0.1,0.1,0.3,0.3,0.4,0.4c0.1,0.1,0.3,0.3,0.4,0.4
		c0.1,0.1,0.3,0.3,0.4,0.4c0.1,0.1,0.3,0.3,0.4,0.4c0.1,0.1,0.3,0.3,0.4,0.4c0.1,0.1,0.3,0.3,0.4,0.4c0.1,0.1,0.3,0.3,0.4,0.4
		c0.1,0.1,0.3,0.3,0.4,0.4c0.1,0.1,0.3,0.3,0.4,0.4c0.1,0.1,0.3,0.3,0.4,0.4c0.1,0.1,0.3,0.3,0.4,0.4c0.1,0.1,0.3,0.3,0.4,0.4
		c0.1,0.1,0.3,0.3,0.4,0.4c0.1,0.1,0.3,0.3,0.4,0.4c0.1,0.1,0.3,0.3,0.4,0.4c0.1,0.1,0.3,0.3,0.4,0.4c0.1,0.1,0.3,0.3,0.4,0.4
		c0.1,0.1,0.3,0.3,0.4,0.4c0.1,0.1,0.3,0.3,0.4,0.4c0.1,0.1,0.3,0.3,0.4,0.4c0.1,0.1,0.3,0.3,0.4,0.4c0.1,0.1,0.3,0.3,0.4,0.4
		c0.1,0.1,0.3,0.3,0.4,0.4c0.1,0.1,0.3,0.3,0.4,0.4c0.1,0.1,0.3,0.3,0.4,0.4c0.1,0.1,0.3,0.3,0.4,0.4c0.1,0.1,0.3,0.3,0.4,0.4
		c0.1,0.1,0.3,0.3,0.4,0.4c0.1,0.1,0.3,0.3,0.4,0.4c0.1,0.1,0.3,0.3,0.4,0.4c0.1,0.1,0.3,0.3,0.4,0.4c0.1,0.1,0.3,0.3,0.4,0.4
		c0.1,0.1,0.3,0.3,0.4,0.4c0.1,0.1,0.3,0.3,0.4,0.4c0.1,0.1,0.3,0.3,0.4,0.4c0.1,0.1,0.3,0.3,0.4,0.4c0.1,0.1,0.3,0.3,0.4,0.4
		c0.1,0.1,0.3,0.3,0.4,0.4c0.1,0.1,0.3,0.3,0.4,0.4c0.1,0.1,0.3,0.3,0.4,0.4c0.1,0.1,0.3,0.3,0.4,0.4c0.1,0.1,0.3,0.3,0.4,0.4
		c0.1,0.1,0.3,0.3,0.4,0.4c0.1,0.1,0.3,0.3,0.4,0.4c0.1,0.1,0.3,0.3,0.4,0.4c0.1,0.1,0.3,0.3,0.4,0.4c0.1,0.1,0.3,0.3,0.4,0.4
		c0.1,0.1,0.3,0.3,0.4,0.4c0.1,0.1,0.3,0.3,0.4,0.4c0.1,0.1,0.3,0.3,0.4,0.4c0.1,0.1,0.3,0.3,0.4,0.4c0.1,0.1,0.3,0.3,0.4,0.4
		c0.1,0.1,0.3,0.3,0.4,0.4c0.1,0.1,0.3,0.3,0.4,0.4c0.1,0.1,0.3,0.3,0.4,0.4c0.1,0.1,0.3,0.3,0.4,0.4c0.1,0.1,0.3,0.3,0.4,0.4
		c0.1,0.1,0.3,0.3,0.4,0.4c0.1,0.1,0.3,0.3,0.4,0.4c0.1,0.1,0.3,0.3,0.4,0.4c0.1,0.1,0.3,0.3,0.4,0.4c0.1,0.1,0.3,0.3,0.4,0.4
		c0.1,0.1,0.3,0.3,0.4,0.4c0.1,0.1,0.3,0.3,0.4,0.4c0.1,0.1,0.3,0.3,0.4,0.4c0.1,0.1,0.3,0.3,0.4,0.4c0.1,0.1,0.3,0.3,0.4,0.4
		c0.1,0.1,0.3,0.3,0.4,0.4c0.1,0.1,0.3,0.3,0.4,0.4c0.1,0.1,0.3,0.3,0.4,0.4c0.1,0.1,0.3,0.3,0.4,0.4c0.1,0.1,0.3,0.3,0.4,0.4
		c0.1,0.1,0.3,0.3,0.4,0.4c0.1,0.1,0.3,0.3,0.4,0.4c0.1,0.1,0.3,0.3,0.4,0.4c0.1,0.1,0.3,0.3,0.4,0.4c0.1,0.1,0.3,0.3,0.4,0.4
		c0.1,0.1,0.3,0.3,0.4,0.4c0.1,0.1,0.3,0.3,0.4,0.4c0.1,0.1,0.3,0.3,0.4,0.4c0.1,0.1,0.3,0.3,0.4,0.4c0.1,0.1,0.3,0.3,0.4,0.4
		c0.1,0.1,0.3,0.3,0.4,0.4c0.1,0.1,0.3,0.3,0.4,0.4c0.1,0.1,0.3,0.3,0.4,0.4c0.1,0.1,0.3,0.3,0.4,0.4c0.1,0.1,0.3,0.3,0.4,0.4
		c0.1,0.1,0.3,0.3,0.4,0.4c0.1,0.1,0.3,0.3,0.4,0.4c0.1,0.1,0.3,0.3,0.4,0.4c0.1,0.1,0.3,0.3,0.4,0.4c0.1,0.1,0.3,0.3,0.4,0.4
		c0.1,0.1,0.3,0.3,0.4,0.4c0.1,0.1,0.3,0.3,0.4,0.4c0.1,0.1,0.3,0.3,0.4,0.4c0.1,0.1,0.3,0.3,0.4,0.4c0.1,0.1,0.3,0.3,0.4,0.4
		c0.1,0.1,0.3,0.3,0.4,0.4c0.1,0.1,0.3,0.3,0.4,0.4c0.1,0.1,0.3,0.3,0.4,0.4c0.1,0.1,0.3,0.3,0.4,0.4c0.1,0.1,0.3,0.3,0.4,0.4
		c0.1,0.1,0.3,0.3,0.4,0.4c0.1,0.1,0.3,0.3,0.4,0.4c0.1,0.1,0.3,0.3,0.4,0.4c0.1,0.1,0.3,0.3,0.4,0.4c0.1,0.1,0.3,0.3,0.4,0.4
		c0.1,0.1,0.3,0.3,0.4,0.4c0.1,0.1,0.3,0.3,0.4,0.4c0.1,0.1,0.3,0.3,0.4,0.4c0.1,0.1,0.3,0.3,0.4,0.4c14.1,14.2,33.7,23.1,55.4,23.1
		c43.1,0,78.1-34.9,78.1-78c0-13.1-3.2-25.5-9-36.3c6.1-7.9,10.5-13.9,11.9-16.6C360,223.4,360,222.3,359.3,221.9z"/>
	<g>
		<path class="st1" d="M156,78c0,43.1-34.9,78-78,78c-43.1,0-78-34.9-78-78C0,34.9,34.9,0,78,0C121.1,0,156,34.9,156,78z"/>
		<g>
			<defs>
				<path id="SVGID_2_" d="M156,78c0,43.1-34.9,78-78,78c-43.1,0-78-34.9-78-78C0,34.9,34.9,0,78,0C121.1,0,156,34.9,156,78z"/>
			</defs>
			<clipPath id="SVGID_3_">
				<use xlink:href="#SVGID_2_"  style="overflow:visible;"/>
			</clipPath>
			<path class="st2" d="M327.7,190.2c-0.1-0.1-0.2-0.3-0.3-0.3c-0.1-0.1-0.2-0.3-0.3-0.3c-0.1-0.1-0.2-0.3-0.3-0.3
				c-0.1-0.1-0.2-0.3-0.3-0.3c-0.1-0.1-0.2-0.3-0.3-0.3c-0.1-0.1-0.2-0.3-0.3-0.3c-0.1-0.1-0.2-0.3-0.3-0.3
				c-0.1-0.1-0.2-0.3-0.3-0.3c-0.1-0.1-0.2-0.3-0.3-0.3c-0.1-0.1-0.2-0.3-0.3-0.3c-0.1-0.1-0.2-0.3-0.3-0.3
				c-0.1-0.1-0.2-0.3-0.3-0.3c-0.1-0.1-0.2-0.3-0.3-0.3c-0.1-0.1-0.2-0.3-0.3-0.3c-0.1-0.1-0.2-0.3-0.3-0.3
				c-0.1-0.1-0.2-0.3-0.3-0.3c-0.1-0.1-0.2-0.3-0.3-0.3c-0.1-0.1-0.2-0.3-0.3-0.3c-0.1-0.1-0.2-0.3-0.3-0.3
				c-0.1-0.1-0.2-0.3-0.3-0.3c-0.1-0.1-0.2-0.3-0.3-0.3c-0.1-0.1-0.2-0.3-0.3-0.3c-0.1-0.1-0.2-0.3-0.3-0.3
				c-0.1-0.1-0.2-0.3-0.3-0.3c-0.1-0.1-0.2-0.3-0.3-0.3c-0.1-0.1-0.2-0.3-0.3-0.3c-0.1-0.1-0.2-0.3-0.3-0.3
				c-0.1-0.1-0.2-0.3-0.3-0.3c-0.1-0.1-0.2-0.3-0.3-0.3c-0.1-0.1-0.2-0.3-0.3-0.3c-0.1-0.1-0.2-0.3-0.3-0.3
				c-0.1-0.1-0.2-0.3-0.3-0.3c-0.1-0.1-0.2-0.3-0.3-0.3c-0.1-0.1-0.2-0.3-0.3-0.3c-0.1-0.1-0.2-0.3-0.3-0.3
				c-0.1-0.1-0.2-0.3-0.3-0.3c-0.1-0.1-0.2-0.3-0.3-0.3c-0.1-0.1-0.2-0.3-0.3-0.3c-0.1-0.1-0.2-0.3-0.3-0.3
				c-0.1-0.1-0.2-0.3-0.3-0.3c-0.1-0.1-0.2-0.3-0.3-0.3c-0.1-0.1-0.2-0.3-0.3-0.3c-0.1-0.1-0.2-0.3-0.3-0.3
				c-0.1-0.1-0.2-0.3-0.3-0.3c-0.1-0.1-0.2-0.3-0.3-0.3c-0.1-0.1-0.2-0.3-0.3-0.3c-0.1-0.1-0.2-0.3-0.3-0.3
				c-0.1-0.1-0.2-0.3-0.3-0.3c-0.1-0.1-0.2-0.3-0.3-0.3c-0.1-0.1-0.2-0.3-0.3-0.3c-0.1-0.1-0.2-0.3-0.3-0.3
				c-0.1-0.1-0.2-0.3-0.3-0.3c-0.1-0.1-0.2-0.3-0.3-0.3c-0.1-0.1-0.2-0.3-0.3-0.3c-0.1-0.1-0.2-0.3-0.3-0.3
				c-0.1-0.1-0.2-0.3-0.3-0.3c-0.1-0.1-0.2-0.3-0.3-0.3c-0.1-0.1-0.2-0.3-0.3-0.3c-0.1-0.1-0.2-0.3-0.3-0.3
				c-0.1-0.1-0.2-0.3-0.3-0.3c-0.1-0.1-0.2-0.3-0.3-0.3c-0.1-0.1-0.2-0.3-0.3-0.3c-0.1-0.1-0.2-0.3-0.3-0.3
				c-0.1-0.1-0.2-0.3-0.3-0.3c-0.1-0.1-0.2-0.3-0.3-0.3c-0.1-0.1-0.2-0.3-0.3-0.3c-0.1-0.1-0.2-0.3-0.3-0.3
				c-0.1-0.1-0.2-0.3-0.3-0.3c-0.1-0.1-0.2-0.3-0.3-0.3c-0.1-0.1-0.2-0.3-0.3-0.3c-0.1-0.1-0.2-0.3-0.3-0.3
				c-0.1-0.1-0.2-0.3-0.3-0.3c-0.1-0.1-0.2-0.3-0.3-0.3c-0.1-0.1-0.2-0.3-0.3-0.3c-0.1-0.1-0.2-0.3-0.3-0.3
				c-0.1-0.1-0.2-0.3-0.3-0.3c-0.1-0.1-0.2-0.3-0.3-0.3c-0.1-0.1-0.2-0.3-0.3-0.3c-0.1-0.1-0.2-0.3-0.3-0.3
				c-0.1-0.1-0.2-0.3-0.3-0.3c-0.1-0.1-0.2-0.3-0.3-0.3c-0.1-0.1-0.2-0.3-0.3-0.3c-0.1-0.1-0.2-0.3-0.3-0.3
				c-0.1-0.1-0.2-0.3-0.3-0.3c-0.1-0.1-0.2-0.3-0.3-0.3c-0.1-0.1-0.2-0.3-0.3-0.3c-0.1-0.1-0.2-0.3-0.3-0.3
				c-0.1-0.1-0.2-0.3-0.3-0.3c-0.1-0.2-0.2-0.3-0.3-0.3c-0.1-0.1-0.2-0.3-0.3-0.3c-0.1-0.1-0.2-0.3-0.3-0.3
				c-0.1-0.1-0.2-0.3-0.3-0.3c-0.1-0.1-0.2-0.3-0.3-0.3c-0.1-0.1-0.2-0.3-0.3-0.3c-0.1-0.1-0.2-0.3-0.3-0.3
				c-0.1-0.1-0.2-0.3-0.3-0.3c-0.1-0.1-0.2-0.3-0.3-0.3c-0.1-0.1-0.2-0.3-0.3-0.3c-0.1-0.1-0.2-0.3-0.3-0.3
				c-0.1-0.1-0.2-0.3-0.3-0.3c-0.1-0.1-0.2-0.3-0.3-0.3c-0.1-0.1-0.2-0.3-0.3-0.3c-0.1-0.1-0.2-0.3-0.3-0.3
				c-0.1-0.1-0.2-0.3-0.3-0.3c-0.1-0.1-0.2-0.3-0.3-0.3c-0.1-0.1-0.2-0.3-0.3-0.3c-0.1-0.1-0.2-0.3-0.3-0.3
				c-0.1-0.1-0.2-0.3-0.3-0.3c-0.1-0.1-0.2-0.3-0.3-0.3c-0.1-0.1-0.2-0.3-0.3-0.3c-0.1-0.1-0.2-0.3-0.3-0.3
				c-0.1-0.1-0.2-0.3-0.3-0.3c-0.1-0.1-0.2-0.3-0.3-0.3c-0.1-0.1-0.2-0.3-0.3-0.3c-0.1-0.1-0.2-0.3-0.3-0.3
				c-0.1-0.1-0.2-0.3-0.3-0.3c-0.1-0.1-0.2-0.3-0.3-0.3c-0.1-0.1-0.2-0.3-0.3-0.3c-0.1-0.1-0.2-0.3-0.3-0.3
				c-0.1-0.1-0.2-0.3-0.3-0.3c-0.1-0.1-0.2-0.3-0.3-0.3c-0.1-0.1-0.2-0.3-0.3-0.3c-0.1-0.1-0.2-0.3-0.3-0.3
				c-0.1-0.1-0.2-0.3-0.3-0.3c-0.1-0.1-0.2-0.3-0.3-0.3c-0.1-0.1-0.2-0.3-0.3-0.3c-0.1-0.1-0.2-0.3-0.3-0.3
				c-0.1-0.1-0.2-0.3-0.3-0.3c-0.1-0.1-0.2-0.3-0.3-0.3c-0.1-0.1-0.2-0.3-0.3-0.3c-0.1-0.1-0.2-0.3-0.3-0.3
				c-0.1-0.1-0.2-0.3-0.3-0.3c-0.1-0.1-0.2-0.3-0.3-0.3c-0.1-0.1-0.2-0.3-0.3-0.3c-0.1-0.1-0.2-0.3-0.3-0.3
				c-0.1-0.1-0.2-0.3-0.3-0.3c-0.1-0.1-0.2-0.3-0.3-0.3c-0.1-0.1-0.2-0.3-0.3-0.3c-0.1-0.1-0.2-0.3-0.3-0.3
				c-0.1-0.1-0.2-0.3-0.3-0.3c-0.1-0.1-0.2-0.3-0.3-0.3c-0.1-0.1-0.2-0.3-0.3-0.3c-0.1-0.1-0.2-0.3-0.3-0.3
				c-0.1-0.1-0.2-0.3-0.3-0.3c-0.1-0.1-0.2-0.3-0.3-0.3c-0.1-0.1-0.2-0.3-0.3-0.3c-0.1-0.1-0.2-0.3-0.3-0.3
				c-0.1-0.1-0.2-0.3-0.3-0.3c-0.1-0.1-0.2-0.3-0.3-0.3c-0.1-0.1-0.2-0.3-0.3-0.3c-0.1-0.1-0.2-0.3-0.3-0.3
				c-0.1-0.1-0.2-0.3-0.3-0.3c-0.1-0.1-0.2-0.3-0.3-0.3c-0.1-0.1-0.2-0.3-0.3-0.3c-0.1-0.1-0.2-0.3-0.3-0.3
				c-0.1-0.1-0.2-0.3-0.3-0.3c-0.1-0.1-0.2-0.3-0.3-0.3c-0.1-0.1-0.2-0.3-0.3-0.3c-0.1-0.1-0.2-0.3-0.3-0.3
				c-0.1-0.1-0.2-0.3-0.3-0.3c-0.1-0.1-0.2-0.3-0.3-0.3c-0.1-0.1-0.2-0.3-0.3-0.3c-0.1-0.1-0.2-0.3-0.3-0.3
				c-0.1-0.1-0.2-0.3-0.3-0.3c-0.1-0.1-0.2-0.3-0.3-0.3c-0.1-0.1-0.2-0.3-0.3-0.3c-0.1-0.1-0.2-0.3-0.3-0.3
				c-0.1-0.1-0.2-0.3-0.3-0.3c-0.1-0.1-0.2-0.3-0.3-0.3c-0.1-0.1-0.2-0.3-0.3-0.3c-0.1-0.1-0.2-0.3-0.3-0.3
				c-0.1-0.1-0.2-0.3-0.3-0.3c-0.1-0.1-0.2-0.3-0.3-0.3c-0.1-0.1-0.2-0.3-0.3-0.3c-0.1-0.1-0.2-0.3-0.3-0.3
				c-0.1-0.1-0.2-0.3-0.3-0.3c-0.1-0.1-0.2-0.3-0.3-0.3c-0.1-0.1-0.2-0.3-0.3-0.3c-0.1-0.1-0.2-0.3-0.3-0.3
				c-0.1-0.1-0.2-0.3-0.3-0.3c-0.1-0.1-0.2-0.3-0.3-0.3c-0.1-0.1-0.2-0.3-0.3-0.3c-0.1-0.1-0.2-0.3-0.3-0.3
				c-0.1-0.1-0.2-0.3-0.3-0.3c-0.1-0.1-0.2-0.3-0.3-0.3c-0.1-0.1-0.2-0.3-0.3-0.3c-0.1-0.1-0.2-0.3-0.3-0.3
				c-0.1-0.1-0.2-0.3-0.3-0.3c-0.1-0.1-0.2-0.3-0.3-0.3c-0.1-0.1-0.2-0.3-0.3-0.3c-0.1-0.1-0.2-0.3-0.3-0.3
				c-0.1-0.1-0.2-0.3-0.3-0.3c-0.1-0.1-0.2-0.3-0.3-0.3c-0.1-0.1-0.2-0.3-0.3-0.3c-0.1-0.1-0.2-0.3-0.3-0.3
				c-0.1-0.1-0.2-0.3-0.3-0.3c-0.1-0.1-0.2-0.3-0.3-0.3c-0.1-0.1-0.2-0.3-0.3-0.3c-0.1-0.1-0.2-0.3-0.3-0.3
				c-0.1-0.1-0.2-0.3-0.3-0.3c-0.1-0.1-0.2-0.3-0.3-0.3c-0.1-0.1-0.2-0.3-0.3-0.3c-0.1-0.1-0.2-0.3-0.3-0.3
				c-0.1-0.1-0.2-0.3-0.3-0.3c-0.1-0.1-0.2-0.3-0.3-0.3c-0.1-0.1-0.2-0.3-0.3-0.3c-0.1-0.1-0.2-0.3-0.3-0.3
				c-0.1-0.1-0.2-0.3-0.3-0.3c-0.1-0.1-0.2-0.3-0.3-0.3c-0.1-0.1-0.2-0.3-0.3-0.3c-0.1-0.1-0.2-0.3-0.3-0.3
				c-0.1-0.1-0.2-0.3-0.3-0.3c-0.1-0.1-0.2-0.3-0.3-0.3c-0.1-0.1-0.2-0.3-0.3-0.3c-0.1-0.1-0.2-0.3-0.3-0.3
				c-0.1-0.1-0.2-0.3-0.3-0.3c-0.1-0.1-0.2-0.3-0.3-0.3c-0.1-0.1-0.2-0.3-0.3-0.3c-0.1-0.1-0.2-0.3-0.3-0.3
				c-0.1-0.1-0.2-0.3-0.3-0.3c-0.1-0.1-0.2-0.3-0.3-0.3c-0.1-0.1-0.2-0.3-0.3-0.3c-0.1-0.1-0.2-0.3-0.3-0.3
				c-0.1-0.1-0.2-0.3-0.3-0.3c-0.1-0.1-0.2-0.3-0.3-0.3c-0.1-0.1-0.2-0.3-0.3-0.3c-0.1-0.1-0.2-0.3-0.3-0.3
				c-0.1-0.1-0.2-0.3-0.3-0.3c-0.1-0.1-0.2-0.3-0.3-0.3c-0.1-0.1-0.2-0.3-0.3-0.3c-0.1-0.1-0.2-0.3-0.3-0.3
				c-0.1-0.1-0.2-0.3-0.3-0.3c-0.1-0.1-0.2-0.3-0.3-0.3c-0.1-0.1-0.2-0.3-0.3-0.3c-0.1-0.1-0.2-0.3-0.3-0.3
				c-0.1-0.1-0.2-0.3-0.3-0.3c-0.1-0.1-0.2-0.3-0.3-0.3c-0.1-0.1-0.2-0.3-0.3-0.3c-0.1-0.1-0.2-0.3-0.3-0.3
				c-0.1-0.1-0.2-0.3-0.3-0.3c-0.1-0.1-0.2-0.3-0.3-0.3c-0.1-0.1-0.2-0.3-0.3-0.3c-0.1-0.1-0.2-0.3-0.3-0.3
				c-0.1-0.1-0.2-0.3-0.3-0.3c-0.1-0.1-0.2-0.3-0.3-0.3c-0.1-0.1-0.2-0.3-0.3-0.3c-0.1-0.1-0.2-0.3-0.3-0.3
				c-0.1-0.1-0.2-0.3-0.3-0.3c-0.1-0.1-0.2-0.3-0.3-0.3c-0.1-0.1-0.2-0.3-0.3-0.3c-0.1-0.1-0.2-0.3-0.3-0.3
				c-0.1-0.1-0.2-0.3-0.3-0.3c-0.1-0.1-0.2-0.3-0.3-0.3c-0.1-0.1-0.2-0.3-0.3-0.3c-0.1-0.1-0.2-0.3-0.3-0.3
				c-0.1-0.1-0.2-0.3-0.3-0.3c-0.1-0.1-0.2-0.3-0.3-0.3c-0.1-0.1-0.2-0.3-0.3-0.3c-0.1-0.1-0.2-0.3-0.3-0.3
				c-0.1-0.1-0.2-0.3-0.3-0.3c-0.1-0.1-0.2-0.3-0.3-0.3c-0.1-0.1-0.2-0.3-0.3-0.3c-0.1-0.1-0.2-0.3-0.3-0.3
				c-0.1-0.1-0.2-0.3-0.3-0.3c-0.1-0.1-0.2-0.3-0.3-0.3c-0.1-0.1-0.2-0.3-0.3-0.3c-0.1-0.1-0.2-0.3-0.3-0.3
				c-0.1-0.1-0.2-0.3-0.3-0.3c-0.1-0.1-0.2-0.3-0.3-0.3c-0.1-0.1-0.2-0.3-0.3-0.3c-0.1-0.1-0.2-0.3-0.3-0.3
				c-0.1-0.1-0.2-0.3-0.3-0.3c-0.1-0.1-0.2-0.3-0.3-0.3c-0.1-0.1-0.2-0.3-0.3-0.3c-0.1-0.1-0.2-0.3-0.3-0.3
				c-0.1-0.1-0.2-0.3-0.3-0.3c-0.1-0.1-0.2-0.3-0.3-0.3c-0.1-0.1-0.2-0.3-0.3-0.3c-0.1-0.1-0.2-0.3-0.3-0.3
				c-0.1-0.1-0.2-0.3-0.3-0.3c-0.1-0.1-0.2-0.3-0.3-0.3c-0.1-0.1-0.2-0.3-0.3-0.3c-0.1-0.1-0.2-0.3-0.3-0.3
				c-0.1-0.1-0.2-0.3-0.3-0.3c-0.1-0.1-0.2-0.3-0.3-0.3c-0.1-0.1-0.2-0.3-0.3-0.3c-0.1-0.1-0.2-0.3-0.3-0.3
				c-0.1-0.1-0.2-0.3-0.3-0.3c-0.1-0.1-0.2-0.3-0.3-0.3c-0.1-0.1-0.2-0.3-0.3-0.3c-0.1-0.1-0.2-0.3-0.3-0.3
				c-0.1-0.1-0.2-0.3-0.3-0.3c-0.1-0.1-0.2-0.3-0.3-0.3c-0.1-0.1-0.2-0.3-0.3-0.3c-0.1-0.1-0.2-0.3-0.3-0.3
				c-0.1-0.1-0.2-0.3-0.3-0.3c-0.1-0.1-0.2-0.3-0.3-0.3c-0.1-0.1-0.2-0.3-0.3-0.3c-0.1-0.1-0.2-0.3-0.3-0.3
				c-0.1-0.1-0.2-0.3-0.3-0.3c-0.1-0.1-0.2-0.3-0.3-0.3c-0.1-0.1-0.2-0.3-0.3-0.3c-0.1-0.1-0.2-0.3-0.3-0.3
				c-0.1-0.1-0.2-0.3-0.3-0.3c-0.1-0.1-0.2-0.3-0.3-0.3c-0.1-0.1-0.2-0.3-0.3-0.3c-0.1-0.1-0.2-0.3-0.3-0.3
				c-0.1-0.1-0.2-0.3-0.3-0.3c-0.1-0.1-0.2-0.3-0.3-0.3c-0.1-0.1-0.2-0.3-0.3-0.3c-0.1-0.1-0.2-0.3-0.3-0.3
				c-0.1-0.1-0.2-0.3-0.3-0.3c-0.1-0.1-0.2-0.3-0.3-0.3c-0.1-0.1-0.2-0.3-0.3-0.3c-0.1-0.1-0.2-0.3-0.3-0.3
				c-0.1-0.1-0.2-0.3-0.3-0.3c-0.1-0.1-0.2-0.3-0.3-0.3c-0.1-0.1-0.2-0.3-0.3-0.3c-0.1-0.1-0.2-0.3-0.3-0.3
				c-0.1-0.1-0.2-0.3-0.3-0.3c-0.1-0.1-0.2-0.3-0.3-0.3c-0.1-0.1-0.2-0.3-0.3-0.3c-0.1-0.1-0.2-0.3-0.3-0.3
				c-0.1-0.1-0.2-0.3-0.3-0.3c-0.1-0.1-0.2-0.3-0.3-0.3c-0.1-0.1-0.2-0.3-0.3-0.3c-0.1-0.1-0.2-0.3-0.3-0.3
				c-0.1-0.1-0.2-0.3-0.3-0.3c-0.1-0.1-0.2-0.3-0.3-0.3c-0.1-0.1-0.2-0.3-0.3-0.3c-0.1-0.1-0.2-0.3-0.3-0.3
				c-0.1-0.1-0.2-0.3-0.3-0.3c-0.1-0.1-0.2-0.3-0.3-0.3c-0.1-0.1-0.2-0.3-0.3-0.3c-0.1-0.1-0.2-0.3-0.3-0.3
				c-0.1-0.1-0.2-0.3-0.3-0.3c-0.1-0.1-0.2-0.3-0.3-0.3c-0.1-0.1-0.2-0.3-0.3-0.3c-0.1-0.1-0.2-0.3-0.3-0.3
				c-0.1-0.1-0.2-0.3-0.3-0.3c-0.1-0.1-0.2-0.3-0.3-0.3c-0.1-0.1-0.2-0.3-0.3-0.3c-0.1-0.1-0.2-0.3-0.3-0.3
				c-0.1-0.1-0.2-0.3-0.3-0.3c-0.1-0.1-0.2-0.3-0.3-0.3c-0.1-0.1-0.2-0.3-0.3-0.3c-0.1-0.1-0.2-0.3-0.3-0.3
				c-0.1-0.1-0.2-0.3-0.3-0.3c-0.1-0.1-0.2-0.3-0.3-0.3c-0.1-0.1-0.2-0.3-0.3-0.3c-0.1-0.1-0.2-0.3-0.3-0.3
				c-0.1-0.1-0.2-0.3-0.3-0.3c-0.1-0.1-0.2-0.3-0.3-0.3c-0.1-0.1-0.2-0.3-0.3-0.3c-0.1-0.1-0.2-0.3-0.3-0.3
				c-0.1-0.1-0.2-0.3-0.3-0.3c-0.1-0.1-0.2-0.3-0.3-0.3c-0.1-0.1-0.2-0.3-0.3-0.3c-0.1-0.1-0.2-0.3-0.3-0.3
				c-0.1-0.1-0.2-0.3-0.3-0.3c-0.1-0.1-0.2-0.3-0.3-0.3c-0.1-0.1-0.2-0.3-0.3-0.3c-0.1-0.1-0.2-0.3-0.3-0.3
				c-0.1-0.1-0.2-0.3-0.3-0.3c-0.1-0.1-0.2-0.3-0.3-0.3c-0.1-0.1-0.2-0.3-0.3-0.3c-0.1-0.1-0.2-0.3-0.3-0.3
				c-0.1-0.1-0.2-0.3-0.3-0.3c-0.1-0.1-0.2-0.3-0.3-0.3c-0.1-0.1-0.2-0.3-0.3-0.3c-0.1-0.1-0.2-0.3-0.3-0.3
				c-0.1-0.1-0.2-0.3-0.3-0.3c-0.1-0.1-0.2-0.3-0.3-0.3c-0.1-0.1-0.2-0.3-0.3-0.3c-0.1-0.1-0.2-0.3-0.3-0.3
				c-0.1-0.1-0.2-0.3-0.3-0.3c-0.1-0.1-0.2-0.3-0.3-0.3c-0.1-0.1-0.2-0.3-0.3-0.3c-0.1-0.1-0.2-0.3-0.3-0.3
				c-0.1-0.1-0.2-0.3-0.3-0.3c-0.1-0.1-0.2-0.3-0.3-0.3c-0.1-0.1-0.2-0.3-0.3-0.3c-0.1-0.1-0.2-0.3-0.3-0.3
				c-0.1-0.1-0.2-0.3-0.3-0.3c-0.1-0.1-0.2-0.3-0.3-0.3c-0.1-0.1-0.2-0.3-0.3-0.3c-0.1-0.1-0.2-0.3-0.3-0.3
				c-0.1-0.1-0.2-0.3-0.3-0.3c-0.1-0.1-0.2-0.3-0.3-0.3c-0.1-0.1-0.2-0.3-0.3-0.3c-0.1-0.1-0.2-0.3-0.3-0.3
				c-0.1-0.1-0.2-0.3-0.3-0.3c-0.1-0.1-0.2-0.3-0.3-0.3c-0.1-0.1-0.2-0.3-0.3-0.3c-0.1-0.1-0.2-0.3-0.3-0.3
				c-0.1-0.1-0.2-0.3-0.3-0.3c-0.1-0.1-0.2-0.3-0.3-0.3c-0.1-0.1-0.2-0.3-0.3-0.3c-0.1-0.1-0.2-0.3-0.3-0.3
				c-0.1-0.1-0.2-0.3-0.3-0.3c-0.1-0.1-0.2-0.3-0.3-0.3c-0.1-0.1-0.2-0.3-0.3-0.3c-0.1-0.1-0.2-0.3-0.3-0.3
				c-0.1-0.1-0.2-0.3-0.3-0.3c-0.1-0.1-0.2-0.3-0.3-0.3c-0.1-0.1-0.2-0.3-0.3-0.3c-0.1-0.1-0.2-0.3-0.3-0.3
				c-0.1-0.1-0.2-0.3-0.3-0.3c-0.1-0.1-0.2-0.3-0.3-0.3c-0.1-0.1-0.2-0.3-0.3-0.3c-0.1-0.1-0.2-0.3-0.3-0.3
				c-0.1-0.1-0.2-0.3-0.3-0.3c-0.1-0.1-0.2-0.3-0.3-0.3c-0.1-0.1-0.2-0.3-0.3-0.3c-0.1-0.1-0.2-0.3-0.3-0.3
				c-0.1-0.1-0.2-0.3-0.3-0.3c-0.1-0.1-0.2-0.3-0.3-0.3c-0.1-0.1-0.2-0.3-0.3-0.3c-0.1-0.1-0.2-0.3-0.3-0.3
				c-0.1-0.1-0.2-0.3-0.3-0.3c-0.1-0.1-0.2-0.3-0.3-0.3c-0.1-0.1-0.2-0.3-0.3-0.3c-0.1-0.1-0.2-0.3-0.3-0.3
				c-0.1-0.1-0.2-0.3-0.3-0.3c-0.1-0.1-0.2-0.3-0.3-0.3c-0.1-0.1-0.2-0.3-0.3-0.3c-0.1-0.1-0.2-0.3-0.3-0.3
				c-0.1-0.1-0.2-0.3-0.3-0.3c-0.1-0.1-0.2-0.3-0.3-0.3c-0.1-0.1-0.2-0.3-0.3-0.3c-0.1-0.1-0.2-0.3-0.3-0.3
				c-0.1-0.1-0.2-0.3-0.3-0.3c-0.1-0.1-0.2-0.3-0.3-0.3c-0.1-0.1-0.2-0.3-0.3-0.3c-0.1-0.1-0.2-0.3-0.3-0.3
				c-0.1-0.1-0.2-0.3-0.3-0.3c-0.1-0.1-0.2-0.3-0.3-0.3c-0.1-0.1-0.2-0.3-0.3-0.3c-0.1-0.1-0.2-0.3-0.3-0.3
				c-0.1-0.1-0.2-0.3-0.3-0.3c-0.1-0.1-0.2-0.3-0.3-0.3c-0.1-0.1-0.2-0.3-0.3-0.3c-0.1-0.1-0.2-0.3-0.3-0.3
				c-0.1-0.1-0.2-0.3-0.3-0.3c-0.1-0.1-0.2-0.3-0.3-0.3c-0.1-0.1-0.2-0.3-0.3-0.3c-0.1-0.1-0.2-0.3-0.3-0.3
				c-0.1-0.1-0.2-0.3-0.3-0.3c-0.1-0.1-0.2-0.3-0.3-0.3c-0.1-0.1-0.2-0.3-0.3-0.3c-0.1-0.1-0.2-0.3-0.3-0.3
				c-0.1-0.1-0.2-0.3-0.3-0.3c-0.1-0.1-0.2-0.3-0.3-0.3c-0.1-0.1-0.2-0.3-0.3-0.3c-0.1-0.1-0.2-0.3-0.3-0.3
				c-0.1-0.1-0.2-0.3-0.3-0.3c-0.1-0.1-0.2-0.3-0.3-0.3c-0.1-0.1-0.2-0.3-0.3-0.3c-0.1-0.1-0.2-0.3-0.3-0.3
				c-0.1-0.1-0.2-0.3-0.3-0.3c-0.1-0.1-0.2-0.3-0.3-0.3c-0.1-0.1-0.2-0.3-0.3-0.3c-0.1-0.1-0.2-0.3-0.3-0.3
				c-0.1-0.1-0.2-0.3-0.3-0.3c-0.1-0.1-0.2-0.3-0.3-0.3c-0.1-0.1-0.2-0.3-0.3-0.3c-0.1-0.1-0.2-0.3-0.3-0.3
				c-0.1-0.1-0.2-0.3-0.3-0.3c-0.1-0.1-0.2-0.3-0.3-0.3c-0.1-0.1-0.2-0.3-0.3-0.3c-0.1-0.1-0.2-0.3-0.3-0.3
				c-0.1-0.1-0.2-0.3-0.3-0.3c-0.1-0.1-0.2-0.3-0.3-0.3c-0.1-0.1-0.2-0.3-0.3-0.3c-0.1-0.1-0.2-0.3-0.3-0.3
				c-0.1-0.1-0.2-0.3-0.3-0.3c-0.1-0.1-0.2-0.3-0.3-0.3c-0.1-0.1-0.2-0.3-0.3-0.3c-0.1-0.1-0.2-0.3-0.3-0.3
				c-0.1-0.1-0.2-0.3-0.3-0.3c-0.1-0.1-0.2-0.3-0.3-0.3c-0.1-0.1-0.2-0.3-0.3-0.3c-0.1-0.1-0.2-0.3-0.3-0.3
				c-0.1-0.1-0.2-0.3-0.3-0.3c-0.1-0.1-0.2-0.3-0.3-0.3c-0.1-0.1-0.2-0.3-0.3-0.3c-0.1-0.1-0.2-0.3-0.3-0.3
				c-0.1-0.1-0.2-0.3-0.3-0.3c-0.1-0.1-0.2-0.3-0.3-0.3c-0.1-0.1-0.2-0.3-0.3-0.3c-0.1-0.1-0.2-0.3-0.3-0.3
				c-0.1-0.1-0.2-0.3-0.3-0.3c-0.1-0.1-0.2-0.3-0.3-0.3c-0.1-0.1-0.2-0.3-0.3-0.3c-0.1-0.1-0.2-0.3-0.3-0.3
				c-0.1-0.1-0.2-0.3-0.3-0.3c-0.1-0.1-0.2-0.3-0.3-0.3c-0.1-0.1-0.2-0.3-0.3-0.3c-0.1-0.1-0.2-0.3-0.3-0.3
				c-3.5-6.8-86.3,58.1-99.8,68.7c0,0,0,0,0,0c-0.1-0.1-0.2-0.2-0.3-0.3c-0.1-0.1-0.2-0.2-0.3-0.3c-0.1-0.1-0.2-0.2-0.3-0.3
				c-0.1-0.1-0.2-0.2-0.3-0.3c-0.1-0.1-0.2-0.2-0.3-0.3c-0.1-0.1-0.2-0.2-0.3-0.3c-0.1-0.1-0.2-0.2-0.3-0.3
				c-0.1-0.1-0.2-0.2-0.3-0.3c-0.1-0.1-0.2-0.2-0.3-0.3c-0.1-0.1-0.2-0.2-0.3-0.3c-0.1-0.1-0.2-0.2-0.3-0.3
				c-0.1-0.1-0.2-0.2-0.3-0.3c-0.1-0.1-0.2-0.2-0.3-0.3c-0.1-0.1-0.2-0.2-0.3-0.3c-0.1-0.1-0.2-0.2-0.3-0.3
				c-0.1-0.1-0.2-0.2-0.3-0.3c-0.1-0.1-0.2-0.2-0.3-0.3c-0.1-0.1-0.2-0.2-0.3-0.3c-0.1-0.1-0.2-0.2-0.3-0.3
				c-0.1-0.1-0.2-0.2-0.3-0.3c-0.1-0.1-0.2-0.2-0.3-0.3c-0.1-0.1-0.2-0.2-0.3-0.3c-0.1-0.1-0.2-0.2-0.3-0.3
				c-0.1-0.1-0.2-0.2-0.3-0.3c-0.1-0.1-0.2-0.2-0.3-0.3c-0.1-0.1-0.2-0.2-0.3-0.3c-0.1-0.1-0.2-0.2-0.3-0.3
				c-0.1-0.1-0.2-0.2-0.3-0.3c-0.1-0.1-0.2-0.2-0.3-0.3c-0.1-0.1-0.2-0.2-0.3-0.3c-0.1-0.1-0.2-0.2-0.3-0.3
				c-0.1-0.1-0.2-0.2-0.3-0.3c-0.1-0.1-0.2-0.2-0.3-0.3c-0.1-0.1-0.2-0.2-0.3-0.3c-0.1-0.1-0.2-0.2-0.3-0.3
				c-0.1-0.1-0.2-0.2-0.3-0.3c-0.1-0.1-0.2-0.2-0.3-0.3c-0.1-0.1-0.2-0.2-0.3-0.3c-0.1-0.1-0.2-0.2-0.3-0.3
				c-0.1-0.1-0.2-0.2-0.3-0.3c-0.1-0.1-0.2-0.2-0.3-0.3c-0.1-0.1-0.2-0.2-0.3-0.3c-0.1-0.1-0.2-0.2-0.3-0.3
				c-0.1-0.1-0.2-0.2-0.3-0.3c-0.1-0.1-0.2-0.2-0.3-0.3c-0.1-0.1-0.2-0.2-0.3-0.3c-0.1-0.1-0.2-0.2-0.3-0.3
				c-0.1-0.1-0.2-0.2-0.3-0.3c-0.1-0.1-0.2-0.2-0.3-0.3c-0.1-0.1-0.2-0.2-0.3-0.3c-0.1-0.1-0.2-0.2-0.3-0.3
				c-0.1-0.1-0.2-0.2-0.3-0.3c-0.1-0.1-0.2-0.2-0.3-0.3c-0.1-0.1-0.2-0.2-0.3-0.3c-0.1-0.1-0.2-0.2-0.3-0.3
				c-0.1-0.1-0.2-0.2-0.3-0.3c-0.1-0.1-0.2-0.2-0.3-0.3c-0.1-0.1-0.2-0.2-0.3-0.3c-0.1-0.1-0.2-0.2-0.3-0.3
				c-0.1-0.1-0.2-0.2-0.3-0.3c-0.1-0.1-0.2-0.2-0.3-0.3c-0.1-0.1-0.2-0.2-0.3-0.3c-0.1-0.1-0.2-0.2-0.3-0.3
				c-0.1-0.1-0.2-0.2-0.3-0.3c-0.1-0.1-0.2-0.2-0.3-0.3C30.4,61.4,22.3,55,17.3,55.9C7.1,57.7,36,114.5,52.1,130.3
				c0.1,0.1,0.2,0.2,0.3,0.3c0.1,0.1,0.2,0.2,0.3,0.3c0.1,0.1,0.2,0.2,0.3,0.3c0.1,0.1,0.2,0.2,0.3,0.3c0.1,0.1,0.2,0.2,0.3,0.3
				c0.1,0.1,0.2,0.2,0.3,0.3c0.1,0.1,0.2,0.2,0.3,0.3c0.1,0.1,0.2,0.2,0.3,0.3c0.1,0.1,0.2,0.2,0.3,0.3c0.1,0.1,0.2,0.2,0.3,0.3
				c0.1,0.1,0.2,0.2,0.3,0.3c0.1,0.1,0.2,0.2,0.3,0.3c0.1,0.1,0.2,0.2,0.3,0.3c0.1,0.1,0.2,0.2,0.3,0.3c0.1,0.1,0.2,0.2,0.3,0.3
				c0.1,0.1,0.2,0.2,0.3,0.3c0.1,0.1,0.2,0.2,0.3,0.3c0.1,0.1,0.2,0.2,0.3,0.3c0.1,0.1,0.2,0.2,0.3,0.3c0.1,0.1,0.2,0.2,0.3,0.3
				c0.1,0.1,0.2,0.2,0.3,0.3c0.1,0.1,0.2,0.2,0.3,0.3c0.1,0.1,0.2,0.2,0.3,0.3c0.1,0.1,0.2,0.2,0.3,0.3c0.1,0.1,0.2,0.2,0.3,0.3
				c0.1,0.1,0.2,0.2,0.3,0.3c0.1,0.1,0.2,0.2,0.3,0.3c0.1,0.1,0.2,0.2,0.3,0.3c0.1,0.1,0.2,0.2,0.3,0.3c0.1,0.1,0.2,0.2,0.3,0.3
				c0.1,0.1,0.2,0.2,0.3,0.3c0.1,0.1,0.2,0.2,0.3,0.3c0.1,0.1,0.2,0.2,0.3,0.3c0.1,0.1,0.2,0.2,0.3,0.3c0.1,0.1,0.2,0.2,0.3,0.3
				c0.1,0.1,0.2,0.2,0.3,0.3c0.1,0.1,0.2,0.2,0.3,0.3c0.1,0.1,0.2,0.2,0.3,0.3c0.1,0.1,0.2,0.2,0.3,0.3c0.1,0.1,0.2,0.2,0.3,0.3
				c0.1,0.1,0.2,0.2,0.3,0.3c0.1,0.1,0.2,0.2,0.3,0.3c0.1,0.1,0.2,0.2,0.3,0.3c0.1,0.1,0.2,0.2,0.3,0.3c0.1,0.1,0.2,0.2,0.3,0.3
				c0.1,0.1,0.2,0.2,0.3,0.3c0.1,0.1,0.2,0.2,0.3,0.3c0.1,0.1,0.2,0.2,0.3,0.3c0.1,0.1,0.2,0.2,0.3,0.3c0.1,0.1,0.2,0.2,0.3,0.3
				c0.1,0.1,0.2,0.2,0.3,0.3c0.1,0.1,0.2,0.2,0.3,0.3c0.1,0.1,0.2,0.2,0.3,0.3c0.1,0.1,0.2,0.2,0.3,0.3c0.1,0.1,0.2,0.2,0.3,0.3
				c0.1,0.1,0.2,0.2,0.3,0.3c0.1,0.1,0.2,0.2,0.3,0.3c0.1,0.1,0.2,0.2,0.3,0.3c0.1,0.1,0.2,0.2,0.3,0.3c0.1,0.1,0.2,0.2,0.3,0.3
				c0.1,0.1,0.2,0.2,0.3,0.3c0.1,0.1,0.2,0.2,0.3,0.3c0.1,0.1,0.2,0.2,0.3,0.3c0.1,0.1,0.2,0.2,0.3,0.3c0.1,0.1,0.2,0.2,0.3,0.3
				c0.1,0.1,0.2,0.2,0.3,0.3c0.1,0.1,0.2,0.2,0.3,0.3c0.1,0.1,0.2,0.2,0.3,0.3c0.1,0.1,0.2,0.2,0.3,0.3c0.1,0.1,0.2,0.2,0.3,0.3
				c0.1,0.1,0.2,0.2,0.3,0.3c0.1,0.1,0.2,0.2,0.3,0.3c0.1,0.1,0.2,0.2,0.3,0.3c0.1,0.1,0.2,0.2,0.3,0.3c0.1,0.1,0.2,0.2,0.3,0.3
				c0.1,0.1,0.2,0.2,0.3,0.3c0.1,0.1,0.2,0.2,0.3,0.3c0.1,0.1,0.2,0.2,0.3,0.3c0.1,0.1,0.2,0.2,0.3,0.3c0.1,0.1,0.2,0.2,0.3,0.3
				c0.1,0.1,0.2,0.2,0.3,0.3c0.1,0.1,0.2,0.2,0.3,0.3c0.1,0.1,0.2,0.2,0.3,0.3c0.1,0.1,0.2,0.2,0.3,0.3c0.1,0.1,0.2,0.2,0.3,0.3
				c0.1,0.1,0.2,0.2,0.3,0.3c0.1,0.1,0.2,0.2,0.3,0.3c0.1,0.1,0.2,0.2,0.3,0.3c0.1,0.1,0.2,0.2,0.3,0.3c0.1,0.1,0.2,0.2,0.3,0.3
				c0.1,0.1,0.2,0.2,0.3,0.3c0.1,0.1,0.2,0.2,0.3,0.3c0.1,0.1,0.2,0.2,0.3,0.3c0.1,0.1,0.2,0.2,0.3,0.3c0.1,0.1,0.2,0.2,0.3,0.3
				c0.1,0.1,0.2,0.2,0.3,0.3c0.1,0.1,0.2,0.2,0.3,0.3c0.1,0.1,0.2,0.2,0.3,0.3c0.1,0.1,0.2,0.2,0.3,0.3c0.1,0.1,0.2,0.2,0.3,0.3
				c0.1,0.1,0.2,0.2,0.3,0.3c0.1,0.1,0.2,0.2,0.3,0.3c0.1,0.1,0.2,0.2,0.3,0.3c0.1,0.1,0.2,0.2,0.3,0.3c0.1,0.1,0.2,0.2,0.3,0.3
				c0.1,0.1,0.2,0.2,0.3,0.3c0.1,0.1,0.2,0.2,0.3,0.3c0.1,0.1,0.2,0.2,0.3,0.3c0.1,0.1,0.2,0.2,0.3,0.3c0.1,0.1,0.2,0.2,0.3,0.3
				c0.1,0.1,0.2,0.2,0.3,0.3c0.1,0.1,0.2,0.2,0.3,0.3c0.1,0.1,0.2,0.2,0.3,0.3c0.1,0.1,0.2,0.2,0.3,0.3c0.1,0.1,0.2,0.2,0.3,0.3
				c0.1,0.1,0.2,0.2,0.3,0.3c0.1,0.1,0.2,0.2,0.3,0.3c0.1,0.1,0.2,0.2,0.3,0.3c0.1,0.1,0.2,0.2,0.3,0.3c0.1,0.1,0.2,0.2,0.3,0.3
				c0.1,0.1,0.2,0.2,0.3,0.3c0.1,0.1,0.2,0.2,0.3,0.3c0.1,0.1,0.2,0.2,0.3,0.3c0.1,0.1,0.2,0.2,0.3,0.3c0.1,0.1,0.2,0.2,0.3,0.3
				c0.1,0.1,0.2,0.2,0.3,0.3c0.1,0.1,0.2,0.2,0.3,0.3c0.1,0.1,0.2,0.2,0.3,0.3c0.1,0.1,0.2,0.2,0.3,0.3c0.1,0.1,0.2,0.2,0.3,0.3
				c0.1,0.1,0.2,0.2,0.3,0.3c0.1,0.1,0.2,0.2,0.3,0.3c0.1,0.1,0.2,0.2,0.3,0.3c0.1,0.1,0.2,0.2,0.3,0.3c0.1,0.1,0.2,0.2,0.3,0.3
				c0.1,0.1,0.2,0.2,0.3,0.3c0.1,0.1,0.2,0.2,0.3,0.3c0.1,0.1,0.2,0.2,0.3,0.3c0.1,0.1,0.2,0.2,0.3,0.3c0.1,0.1,0.2,0.2,0.3,0.3
				c0.1,0.1,0.2,0.2,0.3,0.3c0.1,0.1,0.2,0.2,0.3,0.3c0.1,0.1,0.2,0.2,0.3,0.3c0.1,0.1,0.2,0.2,0.3,0.3c0.1,0.1,0.2,0.2,0.3,0.3
				c0.1,0.1,0.2,0.2,0.3,0.3c0.1,0.1,0.2,0.2,0.3,0.3c0.1,0.1,0.2,0.2,0.3,0.3c0.1,0.1,0.2,0.2,0.3,0.3c0.1,0.1,0.2,0.2,0.3,0.3
				c0.1,0.1,0.2,0.2,0.3,0.3c0.1,0.1,0.2,0.2,0.3,0.3c0.1,0.1,0.2,0.2,0.3,0.3c0.1,0.1,0.2,0.2,0.3,0.3c0.1,0.1,0.2,0.2,0.3,0.3
				c0.1,0.1,0.2,0.2,0.3,0.3c0.1,0.1,0.2,0.2,0.3,0.3c0.1,0.1,0.2,0.2,0.3,0.3c0.1,0.1,0.2,0.2,0.3,0.3c0.1,0.1,0.2,0.2,0.3,0.3
				c0.1,0.1,0.2,0.2,0.3,0.3c0.1,0.1,0.2,0.2,0.3,0.3c0.1,0.1,0.2,0.2,0.3,0.3c0.1,0.1,0.2,0.2,0.3,0.3c0.1,0.1,0.2,0.2,0.3,0.3
				c0.1,0.1,0.2,0.2,0.3,0.3c0.1,0.1,0.2,0.2,0.3,0.3c0.1,0.1,0.2,0.2,0.3,0.3c0.1,0.1,0.2,0.2,0.3,0.3c0.1,0.1,0.2,0.2,0.3,0.3
				c0.1,0.1,0.2,0.2,0.3,0.3c0.1,0.1,0.2,0.2,0.3,0.3c0.1,0.1,0.2,0.2,0.3,0.3c0.1,0.1,0.2,0.2,0.3,0.3c0.1,0.1,0.2,0.2,0.3,0.3
				c0.1,0.1,0.2,0.2,0.3,0.3c0.1,0.1,0.2,0.2,0.3,0.3c0.1,0.1,0.2,0.2,0.3,0.3c0.1,0.1,0.2,0.2,0.3,0.3c0.1,0.1,0.2,0.2,0.3,0.3
				c0.1,0.1,0.2,0.2,0.3,0.3c0.1,0.1,0.2,0.2,0.3,0.3c0.1,0.1,0.2,0.2,0.3,0.3c0.1,0.1,0.2,0.2,0.3,0.3c0.1,0.1,0.2,0.2,0.3,0.3
				c0.1,0.1,0.2,0.2,0.3,0.3c0.1,0.1,0.2,0.2,0.3,0.3c0.1,0.1,0.2,0.2,0.3,0.3c0.1,0.1,0.2,0.2,0.3,0.3c0.1,0.1,0.2,0.2,0.3,0.3
				c0.1,0.1,0.2,0.2,0.3,0.3c0.1,0.1,0.2,0.2,0.3,0.3c0.1,0.1,0.2,0.2,0.3,0.3c0.1,0.1,0.2,0.2,0.3,0.3c0.1,0.1,0.2,0.2,0.3,0.3
				c0.1,0.1,0.2,0.2,0.3,0.3c0.1,0.1,0.2,0.2,0.3,0.3c0.1,0.1,0.2,0.2,0.3,0.3c0.1,0.1,0.2,0.2,0.3,0.3c0.1,0.1,0.2,0.2,0.3,0.3
				c0.1,0.1,0.2,0.2,0.3,0.3c0.1,0.1,0.2,0.2,0.3,0.3c0.1,0.1,0.2,0.2,0.3,0.3c0.1,0.1,0.2,0.2,0.3,0.3c0.1,0.1,0.2,0.2,0.3,0.3
				c0.1,0.1,0.2,0.2,0.3,0.3c0.1,0.1,0.2,0.2,0.3,0.3c0.1,0.1,0.2,0.2,0.3,0.3c0.1,0.1,0.2,0.2,0.3,0.3c0.1,0.1,0.2,0.2,0.3,0.3
				c0.1,0.1,0.2,0.2,0.3,0.3c0.1,0.1,0.2,0.2,0.3,0.3c0.1,0.1,0.2,0.2,0.3,0.3c0.1,0.1,0.2,0.2,0.3,0.3c0.1,0.1,0.2,0.2,0.3,0.3
				c0.1,0.1,0.2,0.2,0.3,0.3c0.1,0.1,0.2,0.2,0.3,0.3c0.1,0.1,0.2,0.2,0.3,0.3c0.1,0.1,0.2,0.2,0.3,0.3c0.1,0.1,0.2,0.2,0.3,0.3
				c0.1,0.1,0.2,0.2,0.3,0.3c0.1,0.1,0.2,0.2,0.3,0.3c0.1,0.1,0.2,0.2,0.3,0.3c0.1,0.1,0.2,0.2,0.3,0.3c0.1,0.1,0.2,0.2,0.3,0.3
				c0.1,0.1,0.2,0.2,0.3,0.3c0.1,0.1,0.2,0.2,0.3,0.3c0.1,0.1,0.2,0.2,0.3,0.3c0.1,0.1,0.2,0.2,0.3,0.3c0.1,0.1,0.2,0.2,0.3,0.3
				c0.1,0.1,0.2,0.2,0.3,0.3c0.1,0.1,0.2,0.2,0.3,0.3c0.1,0.1,0.2,0.2,0.3,0.3c0.1,0.1,0.2,0.2,0.3,0.3c0.1,0.1,0.2,0.2,0.3,0.3
				c0.1,0.1,0.2,0.2,0.3,0.3c0.1,0.1,0.2,0.2,0.3,0.3c0.1,0.1,0.2,0.2,0.3,0.3c0.1,0.1,0.2,0.2,0.3,0.3c0.1,0.1,0.2,0.2,0.3,0.3
				c0.1,0.1,0.2,0.2,0.3,0.3c0.1,0.1,0.2,0.2,0.3,0.3c0.1,0.1,0.2,0.2,0.3,0.3c0.1,0.1,0.2,0.2,0.3,0.3c0.1,0.1,0.2,0.2,0.3,0.3
				c0.1,0.1,0.2,0.2,0.3,0.3c0.1,0.1,0.2,0.2,0.3,0.3c0.1,0.1,0.2,0.2,0.3,0.3c0.1,0.1,0.2,0.2,0.3,0.3c0.1,0.1,0.2,0.2,0.3,0.3
				c0.1,0.1,0.2,0.2,0.3,0.3c0.1,0.1,0.2,0.2,0.3,0.3c0.1,0.1,0.2,0.2,0.3,0.3c0.1,0.1,0.2,0.2,0.3,0.3c0.1,0.1,0.2,0.2,0.3,0.3
				c0.1,0.1,0.2,0.2,0.3,0.3c0.1,0.1,0.2,0.2,0.3,0.3c0.1,0.1,0.2,0.2,0.3,0.3c0.1,0.1,0.2,0.2,0.3,0.3c0.1,0.1,0.2,0.2,0.3,0.3
				c0.1,0.1,0.2,0.2,0.3,0.3c0.1,0.1,0.2,0.2,0.3,0.3c0.1,0.1,0.2,0.2,0.3,0.3c0.1,0.1,0.2,0.2,0.3,0.3c0.1,0.1,0.2,0.2,0.3,0.3
				c0.1,0.1,0.2,0.2,0.3,0.3c0.1,0.1,0.2,0.2,0.3,0.3c0.1,0.1,0.2,0.2,0.3,0.3s0.2,0.2,0.3,0.3c0.1,0.1,0.2,0.2,0.3,0.3
				c0.1,0.1,0.2,0.2,0.3,0.3c0.1,0.1,0.2,0.2,0.3,0.3c0.1,0.1,0.2,0.2,0.3,0.3c0.1,0.1,0.2,0.2,0.3,0.3c0.1,0.1,0.2,0.2,0.3,0.3
				c0.1,0.1,0.2,0.2,0.3,0.3c0.1,0.1,0.2,0.2,0.3,0.3c0.1,0.1,0.2,0.2,0.3,0.3c0.1,0.1,0.2,0.2,0.3,0.3c0.1,0.1,0.2,0.2,0.3,0.3
				c0.1,0.1,0.2,0.2,0.3,0.3c0.1,0.1,0.2,0.2,0.3,0.3c0.1,0.1,0.2,0.2,0.3,0.3c0.1,0.1,0.2,0.2,0.3,0.3c0.1,0.1,0.2,0.2,0.3,0.3
				c0.1,0.1,0.2,0.2,0.3,0.3c0.1,0.1,0.2,0.2,0.3,0.3c0.1,0.1,0.2,0.2,0.3,0.3c0.1,0.1,0.2,0.2,0.3,0.3c0.1,0.1,0.2,0.2,0.3,0.3
				c0.1,0.1,0.2,0.2,0.3,0.3c0.1,0.1,0.2,0.2,0.3,0.3c0.1,0.1,0.2,0.2,0.3,0.3c0.1,0.1,0.2,0.2,0.3,0.3c0.1,0.1,0.2,0.2,0.3,0.3
				c0.1,0.1,0.2,0.2,0.3,0.3c0.1,0.1,0.2,0.2,0.3,0.3c0.1,0.1,0.2,0.2,0.3,0.3c0.1,0.1,0.2,0.2,0.3,0.3c0.1,0.1,0.2,0.2,0.3,0.3
				c0.1,0.1,0.2,0.2,0.3,0.3c0.1,0.1,0.2,0.2,0.3,0.3c0.1,0.1,0.2,0.2,0.3,0.3c0.1,0.1,0.2,0.2,0.3,0.3c0.1,0.1,0.2,0.2,0.3,0.3
				c0.1,0.1,0.2,0.2,0.3,0.3c0.1,0.1,0.2,0.2,0.3,0.3c0.1,0.1,0.2,0.2,0.3,0.3c0.1,0.1,0.2,0.2,0.3,0.3c0.1,0.1,0.2,0.2,0.3,0.3
				c0.1,0.1,0.2,0.2,0.3,0.3c0.1,0.1,0.2,0.2,0.3,0.3c0.1,0.1,0.2,0.2,0.3,0.3c0.1,0.1,0.2,0.2,0.3,0.3c0.1,0.1,0.2,0.2,0.3,0.3
				c0.1,0.1,0.2,0.2,0.3,0.3c0.1,0.1,0.2,0.2,0.3,0.3c0.1,0.1,0.2,0.2,0.3,0.3c0.1,0.1,0.2,0.2,0.3,0.3c0.1,0.1,0.2,0.2,0.3,0.3
				c0.1,0.1,0.2,0.2,0.3,0.3c0.1,0.1,0.2,0.2,0.3,0.3c0.1,0.1,0.2,0.2,0.3,0.3c0.1,0.1,0.2,0.2,0.3,0.3c0.1,0.1,0.2,0.2,0.3,0.3
				c0.1,0.1,0.2,0.2,0.3,0.3c0.1,0.1,0.2,0.2,0.3,0.3c0.1,0.1,0.2,0.2,0.3,0.3c0.1,0.1,0.2,0.2,0.3,0.3c0.1,0.1,0.2,0.2,0.3,0.3
				c0.1,0.1,0.2,0.2,0.3,0.3c0.1,0.1,0.2,0.2,0.3,0.3c0.1,0.1,0.2,0.2,0.3,0.3c0.1,0.1,0.2,0.2,0.3,0.3c0.1,0.1,0.2,0.2,0.3,0.3
				c0.1,0.1,0.2,0.2,0.3,0.3c0.1,0.1,0.2,0.2,0.3,0.3c0.1,0.1,0.2,0.2,0.3,0.3c0.1,0.1,0.2,0.2,0.3,0.3c0.1,0.1,0.2,0.2,0.3,0.3
				c0.1,0.1,0.2,0.2,0.3,0.3c0.1,0.1,0.2,0.2,0.3,0.3c0.1,0.1,0.2,0.2,0.3,0.3c0.1,0.1,0.2,0.2,0.3,0.3c0.1,0.1,0.2,0.2,0.3,0.3
				c0.1,0.1,0.2,0.2,0.3,0.3c0.1,0.1,0.2,0.2,0.3,0.3c0.1,0.1,0.2,0.2,0.3,0.3c0.1,0.1,0.2,0.2,0.3,0.3c0.1,0.1,0.2,0.2,0.3,0.3
				c0.1,0.1,0.2,0.2,0.3,0.3c0.1,0.1,0.2,0.2,0.3,0.3c0.1,0.1,0.2,0.2,0.3,0.3c0.1,0.1,0.2,0.2,0.3,0.3c0.1,0.1,0.2,0.2,0.3,0.3
				c0.1,0.1,0.2,0.2,0.3,0.3c0.1,0.1,0.2,0.2,0.3,0.3c0.1,0.1,0.2,0.2,0.3,0.3c0.1,0.1,0.2,0.2,0.3,0.3c0.1,0.1,0.2,0.2,0.3,0.3
				c0.1,0.1,0.2,0.2,0.3,0.3c0.1,0.1,0.2,0.2,0.3,0.3c0.1,0.1,0.2,0.2,0.3,0.3c0.1,0.1,0.2,0.2,0.3,0.3c0.1,0.1,0.2,0.2,0.3,0.3
				c0.1,0.1,0.2,0.2,0.3,0.3c0.1,0.1,0.2,0.2,0.3,0.3c0.1,0.1,0.2,0.2,0.3,0.3c0.1,0.1,0.2,0.2,0.3,0.3c0.1,0.1,0.2,0.2,0.3,0.3
				c0.1,0.1,0.2,0.2,0.3,0.3c0.1,0.1,0.2,0.2,0.3,0.3c0.1,0.1,0.2,0.2,0.3,0.3c0.1,0.1,0.2,0.2,0.3,0.3c0.1,0.1,0.2,0.2,0.3,0.3
				c0.1,0.1,0.2,0.2,0.3,0.3c0.1,0.1,0.2,0.2,0.3,0.3c0.1,0.1,0.2,0.2,0.3,0.3c0.1,0.1,0.2,0.2,0.3,0.3c0.1,0.1,0.2,0.2,0.3,0.3
				c0.1,0.1,0.2,0.2,0.3,0.3c0.1,0.1,0.2,0.2,0.3,0.3c0.1,0.1,0.2,0.2,0.3,0.3c0.1,0.1,0.2,0.2,0.3,0.3c0.1,0.1,0.2,0.2,0.3,0.3
				c0.1,0.1,0.2,0.2,0.3,0.3c0.1,0.1,0.2,0.2,0.3,0.3c0.1,0.1,0.2,0.2,0.3,0.3c0.1,0.1,0.2,0.2,0.3,0.3c0.1,0.1,0.2,0.2,0.3,0.3
				c0.1,0.1,0.2,0.2,0.3,0.3c0.1,0.1,0.2,0.2,0.3,0.3c0.1,0.1,0.2,0.2,0.3,0.3c0.1,0.1,0.2,0.2,0.3,0.3c0.1,0.1,0.2,0.2,0.3,0.3
				c0.1,0.1,0.2,0.2,0.3,0.3c0.1,0.1,0.2,0.2,0.3,0.3c0.1,0.1,0.2,0.2,0.3,0.3c0.1,0.1,0.2,0.2,0.3,0.3c0.1,0.1,0.2,0.2,0.3,0.3
				c0.1,0.1,0.2,0.2,0.3,0.3c0.1,0.1,0.2,0.2,0.3,0.3c0.1,0.1,0.2,0.2,0.3,0.3c0.1,0.1,0.2,0.2,0.3,0.3c0.1,0.1,0.2,0.2,0.3,0.3
				c0.1,0.1,0.2,0.2,0.3,0.3c0.1,0.1,0.2,0.2,0.3,0.3c0.1,0.1,0.2,0.2,0.3,0.3c0.1,0.1,0.2,0.2,0.3,0.3c0.1,0.1,0.2,0.2,0.3,0.3
				c0.1,0.1,0.2,0.2,0.3,0.3c0.1,0.1,0.2,0.2,0.3,0.3c0.1,0.1,0.2,0.2,0.3,0.3c0.1,0.1,0.2,0.2,0.3,0.3c0.1,0.1,0.2,0.2,0.3,0.3
				c0.1,0.1,0.2,0.2,0.3,0.3c0.1,0.1,0.2,0.2,0.3,0.3c0.1,0.1,0.2,0.2,0.3,0.3c0.1,0.1,0.2,0.2,0.3,0.3c0.1,0.1,0.2,0.2,0.3,0.3
				c0.1,0.1,0.2,0.2,0.3,0.3c0.1,0.1,0.2,0.2,0.3,0.3c0.1,0.1,0.2,0.2,0.3,0.3c0.1,0.1,0.2,0.2,0.3,0.3c0.1,0.1,0.2,0.2,0.3,0.3
				c0.1,0.1,0.2,0.2,0.3,0.3c0.1,0.1,0.2,0.2,0.3,0.3c0.1,0.1,0.2,0.2,0.3,0.3c0.1,0.1,0.2,0.2,0.3,0.3c0.1,0.1,0.2,0.2,0.3,0.3
				c0.1,0.1,0.2,0.2,0.3,0.3c0.1,0.1,0.2,0.2,0.3,0.3c0.1,0.1,0.2,0.2,0.3,0.3c0.1,0.1,0.2,0.2,0.3,0.3c0.1,0.1,0.2,0.2,0.3,0.3
				c0.1,0.1,0.2,0.2,0.3,0.3c0.1,0.1,0.2,0.2,0.3,0.3c0.1,0.1,0.2,0.2,0.3,0.3c0.1,0.1,0.2,0.2,0.3,0.3c0.1,0.1,0.2,0.2,0.3,0.3
				c0.1,0.1,0.2,0.2,0.3,0.3c0.1,0.1,0.2,0.2,0.3,0.3c0.1,0.1,0.2,0.2,0.3,0.3c0.1,0.1,0.2,0.2,0.3,0.3c0.1,0.1,0.2,0.2,0.3,0.3
				c0.1,0.1,0.2,0.2,0.3,0.3c0.1,0.1,0.2,0.2,0.3,0.3c0.1,0.1,0.2,0.2,0.3,0.3c0.1,0.1,0.2,0.2,0.3,0.3c0.1,0.1,0.2,0.2,0.3,0.3
				c0.1,0.1,0.2,0.2,0.3,0.3c0.1,0.1,0.2,0.2,0.3,0.3c0.1,0.1,0.2,0.2,0.3,0.3c0.1,0.1,0.2,0.2,0.3,0.3c0.1,0.1,0.2,0.2,0.3,0.3
				c0.1,0.1,0.2,0.2,0.3,0.3c0.1,0.1,0.2,0.2,0.3,0.3c0.1,0.1,0.2,0.2,0.3,0.3c0.1,0.1,0.2,0.2,0.3,0.3c0.1,0.1,0.2,0.2,0.3,0.3
				c0.1,0.1,0.2,0.2,0.3,0.3c0.1,0.1,0.2,0.2,0.3,0.3c0.1,0.1,0.2,0.2,0.3,0.3c0.1,0.1,0.2,0.2,0.3,0.3c0.1,0.1,0.2,0.2,0.3,0.3
				c0.1,0.1,0.2,0.2,0.3,0.3c0.1,0.1,0.2,0.2,0.3,0.3c0.1,0.1,0.2,0.2,0.3,0.3c0.1,0.1,0.2,0.2,0.3,0.3c0.1,0.1,0.2,0.2,0.3,0.3
				c0.1,0.1,0.2,0.2,0.3,0.3c0.1,0.1,0.2,0.2,0.3,0.3c0.1,0.1,0.2,0.2,0.3,0.3c0.1,0.1,0.2,0.2,0.3,0.3c0.1,0.1,0.2,0.2,0.3,0.3
				c0.1,0.1,0.2,0.2,0.3,0.3c0.1,0.1,0.2,0.2,0.3,0.3c0.1,0.1,0.2,0.2,0.3,0.3c0.1,0.1,0.2,0.2,0.3,0.3c0.1,0.1,0.2,0.2,0.3,0.3
				c0.1,0.1,0.2,0.2,0.3,0.3c0.1,0.1,0.2,0.2,0.3,0.3c0.1,0.1,0.2,0.2,0.3,0.3c0.1,0.1,0.2,0.2,0.3,0.3c0.1,0.1,0.2,0.2,0.3,0.3
				c0.1,0.1,0.2,0.2,0.3,0.3c0.1,0.1,0.2,0.2,0.3,0.3c0.1,0.1,0.2,0.2,0.3,0.3c0.1,0.1,0.2,0.2,0.3,0.3c0.1,0.1,0.2,0.2,0.3,0.3
				c0.1,0.1,0.2,0.2,0.3,0.3c0.1,0.1,0.2,0.2,0.3,0.3c0.1,0.1,0.2,0.2,0.3,0.3c0.1,0.1,0.2,0.2,0.3,0.3c0.1,0.1,0.2,0.2,0.3,0.3
				c0.1,0.1,0.2,0.2,0.3,0.3c0.1,0.1,0.2,0.2,0.3,0.3c0.1,0.1,0.2,0.2,0.3,0.3c0.1,0.1,0.2,0.2,0.3,0.3c2.7,2.8,5.1,4.4,6.9,4.4
				c13.5,0,93.4-95.9,100.4-109.2C328.3,191.6,328.3,190.6,327.7,190.2z"/>
		</g>
		<path class="st3" d="M159,25.2c-7,13.4-86.8,109.2-100.3,109.2c-12.3,0-53.2-76.3-41.4-78.4C29.1,53.7,58,92.4,58,92.4
			S170.4,3.2,159,25.2z"/>
	</g>
</g>
</svg>
