<?xml version="1.0" encoding="utf-8"?>
<!-- Generator: Adobe Illustrator 22.0.1, SVG Export Plug-In . SVG Version: 6.00 Build 0)  -->
<svg version="1.0" id="Слой_1" xmlns="http://www.w3.org/2000/svg" xmlns:xlink="http://www.w3.org/1999/xlink" x="0px" y="0px"
	 width="180px" height="180.2px" viewBox="0 0 180 180.2" style="enable-background:new 0 0 180 180.2;" xml:space="preserve">
<style type="text/css">
	.st0{opacity:0.3;fill:#5F89FC;}
</style>
<path class="st0" d="M22.1,65.5c-5.5-2-11-4-16.9-6.1C17.1,30.3,37.5,10.7,67.9,3C97.3-4.5,124,2.2,148,21.1
	c-4,4.8-7.8,9.3-11.6,13.8C101.8,4.7,41,15.6,22.1,65.5z"/>
<path class="st0" d="M16.3,141.9c4.8-3.4,9.6-6.8,14.6-10.3c12.6,17.1,29.1,27.4,49.9,30c20.7,2.7,39.2-3,55.6-16.2
	c3.8,4.6,7.6,9,11.3,13.4C115.7,188.7,51.5,190.8,16.3,141.9z"/>
<path class="st0" d="M145.6,43.6c4.3-3.6,8.7-7.3,13.2-11.1c25,26.9,31.5,78.7,0.2,115.5c-4.6-3.8-9-7.6-13.4-11.2
	C167.8,105.7,167.8,74.8,145.6,43.6z"/>
<path class="st0" d="M18.6,99.5c0.9,7.3,3,14.3,6.1,21.2c-5.4,2.5-10.7,5-16.3,7.6C0.6,111-1.8,93.3,1.3,74.5c5.9,1,11.7,2,17.7,3.1
	C17.9,85,17.6,92.2,18.6,99.5z"/>
</svg>
