<?xml version="1.0" encoding="utf-8"?>
<!-- Generator: Adobe Illustrator 22.0.1, SVG Export Plug-In . SVG Version: 6.00 Build 0)  -->
<svg version="1.0" id="Слой_1" xmlns="http://www.w3.org/2000/svg" xmlns:xlink="http://www.w3.org/1999/xlink" x="0px" y="0px"
	 width="180px" height="180.2px" viewBox="0 0 180 180.2" style="enable-background:new 0 0 180 180.2;" xml:space="preserve">
<style type="text/css">
	.st0{fill:#63AF55;}
</style>
<path class="st0" d="M120.7,24.8c2.5-5.3,5-10.6,7.6-16.3C99.4-3.6,71.1-3.1,44.2,13C18.1,28.5,3.9,52.1,0.3,82.5
	c6.2,0.6,12,1.1,17.9,1.5C21.4,38.1,72.1,2.9,120.7,24.8z"/>
<path class="st0" d="M178.9,74.7c-5.8,1-11.6,2-17.6,3.1c3.1,21-1.2,39.9-14,56.5c-12.7,16.5-29.8,25.6-50.7,27.9
	c0.5,5.9,1,11.7,1.5,17.5C141.7,178.1,188.6,134.2,178.9,74.7z"/>
<path class="st0" d="M17.9,96.6c-5.6,0.5-11.3,1-17.1,1.5c1.4,36.7,33.3,77.9,81.6,81.8c0.5-5.9,1-11.8,1.5-17.4
	C46.2,156.3,24.3,134.4,17.9,96.6z"/>
<path class="st0" d="M147.3,46.4c4.5,5.8,8,12.2,10.6,19.3c5.6-2,11.1-4.1,16.9-6.2c-6.7-17.8-17.5-31.9-33-43
	c-3.4,4.9-6.8,9.7-10.3,14.7C137.5,35.6,142.8,40.6,147.3,46.4z"/>
</svg>
