<?xml version="1.0" encoding="utf-8"?>
<!-- Generator: Adobe Illustrator 22.0.1, SVG Export Plug-In . SVG Version: 6.00 Build 0)  -->
<svg version="1.0" id="Слой_1" xmlns="http://www.w3.org/2000/svg" xmlns:xlink="http://www.w3.org/1999/xlink" x="0px" y="0px"
	 width="180px" height="180.2px" viewBox="0 0 180 180.2" style="enable-background:new 0 0 180 180.2;" xml:space="preserve">
<style type="text/css">
	.st0{fill:#63AF55;}
</style>
<path class="st0" d="M59.7,155.2c-2.5,5.3-5,10.6-7.6,16.3c29,12.2,57.2,11.6,84.1-4.5c26.1-15.5,40.2-39.1,43.9-69.4
	c-6.2-0.6-12-1.1-17.9-1.5C159.1,141.9,108.4,177.1,59.7,155.2z"/>
<path class="st0" d="M1.6,105.4c5.8-1,11.6-2,17.6-3.1c-3.1-21,1.2-39.9,14-56.5C46,29.3,63.1,20.2,84,17.9C83.5,12,83,6.2,82.5,0.4
	C38.8,1.9-8.1,45.9,1.6,105.4z"/>
<path class="st0" d="M162.5,83.4c5.6-0.5,11.3-1,17.1-1.5C178.3,45.3,146.3,4,98.1,0.1c-0.5,5.9-1,11.8-1.5,17.4
	C134.3,23.8,156.1,45.6,162.5,83.4z"/>
<path class="st0" d="M33.2,133.7c-4.5-5.8-8-12.2-10.6-19.3c-5.6,2-11.1,4.1-16.9,6.2c6.7,17.8,17.5,31.9,33,43
	c3.4-4.9,6.8-9.7,10.3-14.7C43,144.4,37.7,139.5,33.2,133.7z"/>
</svg>
