<?xml version="1.0" encoding="utf-8"?>
<!-- Generator: Adobe Illustrator 22.0.1, SVG Export Plug-In . SVG Version: 6.00 Build 0)  -->
<svg version="1.0" id="Capa_1" xmlns="http://www.w3.org/2000/svg" xmlns:xlink="http://www.w3.org/1999/xlink" x="0px" y="0px"
	 width="512px" height="512px" viewBox="0 0 512 512" style="enable-background:new 0 0 512 512;" xml:space="preserve">
<style type="text/css">
	.st0{fill:#5F89FC;}
	.st1{display:none;}
	.st2{display:inline;}
</style>
<g>
	<g>
		<path class="st0" d="M102.5,150.9H28.3C12.7,150.9,0,163.6,0,179.3v153.5c0,15.7,12.7,28.3,28.3,28.3h74.2l182.1,121.4
			c7.5,5,17.6-0.4,17.6-9.4V39c0-9.1-10.1-14.5-17.6-9.4L102.5,150.9z M102.1,341.1H31.4c-6.3,0-11.3-5.1-11.3-11.3V182.3
			c0-6.3,5.1-11.3,11.3-11.3h70.7V341.1z M273.4,451.2L122.1,350V162L273.4,60.8c3.8-2.5,8.8,0.2,8.8,4.7v381
			C282.2,451,277.2,453.7,273.4,451.2z"/>
	</g>
</g>
<g class="st1">
	<g class="st2">
		<polygon points="512,191.6 490.8,170.3 426.3,234.8 361.9,170.3 340.7,191.6 405.1,256 340.7,320.4 361.9,341.7 426.3,277.2 
			490.8,341.7 512,320.4 447.6,256 		"/>
	</g>
</g>
<path class="st0" d="M455.3,250.5l52.8-52.8c3.1-3.1,3.1-8,0-11.1l-0.4-0.4c-3.1-3.1-8-3.1-11.1,0L443.9,239l0,0
	c-3.1,3.1-8,3.1-11.1,0l0,0L380,186.2c-3.1-3.1-8-3.1-11.1,0l-0.4,0.4c-3.1,3.1-3.1,8,0,11.1l52.8,52.8l0,0c3.1,3.1,3.1,8,0,11.1
	l0,0l-52.8,52.8c-3.1,3.1-3.1,8,0,11.1l0.4,0.4c3.1,3.1,8,3.1,11.1,0l52.8-52.8l0,0c3.1-3.1,8-3.1,11.1,0l52.8,52.8
	c3.1,3.1,8,3.1,11.1,0l0.4-0.4c3.1-3.1,3.1-8,0-11.1l-52.8-52.8l0,0C452.2,258.5,452.2,253.5,455.3,250.5z"/>
</svg>
