<?xml version="1.0" encoding="utf-8"?>
<!-- Generator: Adobe Illustrator 22.0.1, SVG Export Plug-In . SVG Version: 6.00 Build 0)  -->
<svg version="1.0" id="Capa_1" xmlns="http://www.w3.org/2000/svg" xmlns:xlink="http://www.w3.org/1999/xlink" x="0px" y="0px"
	 width="512px" height="512px" viewBox="0 0 512 512" style="enable-background:new 0 0 512 512;" xml:space="preserve">
<style type="text/css">
	.st0{fill:#5F89FC;}
</style>
<g>
	<path class="st0" d="M363,34.1h-55.8V0H204.8v34.1H149c-16.3,0-29.6,13.3-29.6,29.6v418.7c0,16.3,13.3,29.6,29.6,29.6H363
		c16.3,0,29.6-13.3,29.6-29.6V63.7C392.5,47.4,379.3,34.1,363,34.1z M221.9,17.1h68.3v17.1h-68.3V17.1z M375.5,482.4
		c0,6.9-5.6,12.5-12.5,12.5H149c-6.9,0-12.5-5.6-12.5-12.5V63.7c0-6.9,5.6-12.5,12.5-12.5h55.8h102.4H363c6.9,0,12.5,5.6,12.5,12.5
		V482.4z"/>
	<path class="st0" d="M290.1,146c0.2-3.6-1.8-7-5.2-8.6l-0.5-0.2c-3.7-1.5-7.9-0.4-10.4,2.7l0,0l-93.2,150.3h49.5l0,109.9
		c-0.2,3.5,1.7,6.9,4.9,8.6l0.4,0.2c3.7,1.7,8.1,0.6,10.7-2.6l0,0l83.4-158.7h-39.7V146z M301.6,264.5l-54.1,103.3l0-94.8h-35.9
		l61.5-99.2v90.7H301.6z"/>
</g>
</svg>
