<?xml version="1.0" encoding="utf-8"?>
<!-- Generator: Adobe Illustrator 22.0.1, SVG Export Plug-In . SVG Version: 6.00 Build 0)  -->
<svg version="1.0" id="Слой_1" xmlns="http://www.w3.org/2000/svg" xmlns:xlink="http://www.w3.org/1999/xlink" x="0px" y="0px"
	 width="512px" height="512px" viewBox="0 0 512 512" style="enable-background:new 0 0 512 512;" xml:space="preserve">
<style type="text/css">
	.st0{fill:#5F89FC;}
</style>
<path class="st0" d="M504.5,364.1h-21.7V94c0-16.6-13.5-30-30-30H59.2c-16.6,0-30,13.5-30,30v270H7.5c-4.1,0-7.5,3.4-7.5,7.5v45
	c0,17.7,14.4,32,32,32H480c17.7,0,32-14.4,32-32v-45C512,367.4,508.6,364.1,504.5,364.1z M44.1,94c0-8.3,6.7-15,15-15h393.7
	c8.3,0,15,6.7,15,15v270h-24.5V115.4c0-8.7-7.1-15.8-15.8-15.8H84.4c-8.7,0-15.8,7.1-15.8,15.8v169.8c0,4.1,3.4,7.5,7.5,7.5
	c4.1,0,7.5-3.4,7.5-7.5V115.4c0-0.4,0.4-0.8,0.8-0.8h343.1c0.4,0,0.8,0.4,0.8,0.8v248.7H83.6v-30.9c0-4.1-3.4-7.5-7.5-7.5
	c-4.1,0-7.5,3.4-7.5,7.5v30.9H44.1L44.1,94L44.1,94z M328,379l-6.5,14.9h-131L184,379H328z M497,416.6c0,9.4-7.6,17-17,17H32
	c-9.4,0-17-7.6-17-17v-37.5h152.6l9.8,22.4c2,4.6,6.5,7.5,11.5,7.5h134.3c5,0,9.5-2.9,11.5-7.5l9.8-22.4H497V416.6z"/>
<g>
	<g>
		<path class="st0" d="M256,160.8c-44.1,0-80,35.9-80,80s35.9,80,80,80s80-35.9,80-80S300.1,160.8,256,160.8z M256,304.8
			c-35.3,0-64-28.7-64-64s28.7-64,64-64s64,28.7,64,64S291.3,304.8,256,304.8z"/>
	</g>
</g>
<path class="st0" d="M224.1,272.1L224.1,272.1c-3.1-3.1-3.1-8.2,0-11.3l52.5-52.5c3.1-3.1,8.2-3.1,11.3,0l0,0
	c3.1,3.1,3.1,8.2,0,11.3l-52.5,52.5C232.3,275.2,227.2,275.2,224.1,272.1z"/>
<path class="st0" d="M287.9,272L287.9,272c-3.1,3.1-8.2,3.1-11.3,0l-52.4-52.4c-3.1-3.1-3.1-8.2,0-11.3l0,0c3.1-3.1,8.2-3.1,11.3,0
	l52.4,52.4C291,263.8,291,268.9,287.9,272z"/>
</svg>
