<?xml version="1.0" encoding="utf-8"?>
<!-- Generator: Adobe Illustrator 22.0.1, SVG Export Plug-In . SVG Version: 6.00 Build 0)  -->
<svg version="1.0" id="Слой_1" xmlns="http://www.w3.org/2000/svg" xmlns:xlink="http://www.w3.org/1999/xlink" x="0px" y="0px"
	 width="512px" height="512px" viewBox="0 0 512 512" style="enable-background:new 0 0 512 512;" xml:space="preserve">
<style type="text/css">
	.st0{fill:#5F89FC;}
</style>
<path class="st0" d="M256,48c-79.4,0-144,64.6-144,144c0,53.2,29.2,101.9,76.2,127.1l7.5-14.1C154,282.6,128,239.3,128,192
	c0-70.6,57.4-128,128-128s128,57.4,128,128c0,56.6-36.3,105.8-90.4,122.4l4.7,15.3C359.2,311,400,255.7,400,192
	C400,112.6,335.4,48,256,48z"/>
<path class="st0" d="M312,192c0-30.9-25.1-56-56-56s-56,25.1-56,56s25.1,56,56,56S312,222.9,312,192z M216,192c0-22.1,17.9-40,40-40
	s40,17.9,40,40s-17.9,40-40,40S216,214.1,216,192z"/>
<path class="st0" d="M384,32h16v16h-16V32z"/>
<path class="st0" d="M112,32h16v16h-16V32z"/>
<path class="st0" d="M248,160h16v16h-16V160z"/>
<path class="st0" d="M248,208h16v16h-16V208z"/>
<path class="st0" d="M272,184h16v16h-16V184z"/>
<path class="st0" d="M224,184h16v16h-16V184z"/>
<path class="st0" d="M128,82.8L155.8,48H200V32h-48c-2.4,0-4.7,1.1-6.2,3l-32,40c-1.1,1.4-1.8,3.2-1.8,5v24h16V82.8z"/>
<path class="st0" d="M366.2,35c-1.5-1.9-3.8-3-6.2-3h-48v16h44.2L384,82.8V104h16V80c0-1.8-0.6-3.6-1.8-5L366.2,35z"/>
<path class="st0" d="M150.4,369.7c-2,12.1,1.5,24.2,9.7,33.3l4,4.5c7.7,8.5,18.3,13.3,29.7,13.3c1.1,0,2.2,0,3.3-0.1
	c12.5-1,23.6-7.6,30.4-18.2l76.1-118.1c2-3.1,1.6-7.1-0.9-9.8c-2.5-2.7-6.5-3.3-9.7-1.5l-122.6,68.4
	C159.7,347.3,152.4,357.7,150.4,369.7z M178.2,355.3l94.7-52.8L214,393.8c-4.1,6.3-10.7,10.3-18.3,10.9c-7.5,0.7-14.7-2.3-19.8-7.9
	l-4-4.5c-4.9-5.5-7-12.8-5.8-20C167.4,365.1,171.7,358.9,178.2,355.3z"/>
<path class="st0" d="M184,368h16v16h-16V368z"/>
<path class="st0" d="M279.6,405.5c-1.1-3.3-4.1-5.5-7.6-5.5h-32v16h26.2l5.8,17.3v19.4L260.7,464H139.3L128,452.7V339.3l11.3-11.3
	H160v-16h-24c-2.1,0-4.2,0.8-5.7,2.3l-16,16c-1.5,1.5-2.3,3.5-2.3,5.7v120c0,2.1,0.8,4.2,2.3,5.7l16,16c1.5,1.5,3.5,2.3,5.7,2.3h128
	c2.1,0,4.2-0.8,5.7-2.3l16-16c1.5-1.5,2.3-3.5,2.3-5.7v-24c0-0.9-0.1-1.7-0.4-2.5L279.6,405.5z"/>
<path class="st0" d="M240,432h16v16h-16V432z"/>
<path class="st0" d="M144,432h16v16h-16V432z"/>
<path class="st0" d="M176,432h48v16h-48V432z"/>
<path class="st0" d="M392,320h-24c-2.1,0-4.2,0.8-5.7,2.3L348.7,336H312c-4.4,0-8,3.6-8,8v112c0,2.1,0.8,4.2,2.3,5.7l16,16
	c1.5,1.5,3.5,2.3,5.7,2.3h48c2.1,0,4.2-0.8,5.7-2.3l16-16c1.5-1.5,2.3-3.5,2.3-5.7v-24h-16v20.7L372.7,464h-41.4L320,452.7V352h32
	c2.1,0,4.2-0.8,5.7-2.3l13.7-13.7H384v80h16v-88C400,323.6,396.4,320,392,320z"/>
<path class="st0" d="M336,368h32v16h-32V368z"/>
<path class="st0" d="M336,400h32v16h-32V400z"/>
<path class="st0" d="M336,432h32v16h-32V432z"/>
<path class="st0" d="M448,0H64c-4.4,0-8,3.6-8,8v496c0,4.4,3.6,8,8,8h384c4.4,0,8-3.6,8-8V8C456,3.6,452.4,0,448,0z M72,16h8v480h-8
	V16z M96,16h320v480H96V16z M440,496h-8V16h8V496z"/>
</svg>
