<?xml version="1.0" encoding="utf-8"?>
<!-- Generator: Adobe Illustrator 22.0.1, SVG Export Plug-In . SVG Version: 6.00 Build 0)  -->
<svg version="1.0" id="Слой_1" xmlns="http://www.w3.org/2000/svg" xmlns:xlink="http://www.w3.org/1999/xlink" x="0px" y="0px"
	 width="512px" height="512px" viewBox="0 0 512 512" style="enable-background:new 0 0 512 512;" xml:space="preserve">
<style type="text/css">
	.st0{fill:#5F89FC;}
</style>
<path class="st0" d="M504.5,364.1h-21.7V94c0-16.6-13.5-30-30-30H59.2c-16.6,0-30,13.5-30,30v270H7.5c-4.1,0-7.5,3.4-7.5,7.5v45
	c0,17.7,14.4,32,32,32H480c17.7,0,32-14.4,32-32v-45C512,367.4,508.6,364.1,504.5,364.1z M44.1,94c0-8.3,6.7-15,15-15h393.7
	c8.3,0,15,6.7,15,15v270h-24.5V115.4c0-8.7-7.1-15.8-15.8-15.8H84.4c-8.7,0-15.8,7.1-15.8,15.8v169.8c0,4.1,3.4,7.5,7.5,7.5
	c4.1,0,7.5-3.4,7.5-7.5V115.4c0-0.4,0.4-0.8,0.8-0.8h343.1c0.4,0,0.8,0.4,0.8,0.8v248.7H83.6v-30.9c0-4.1-3.4-7.5-7.5-7.5
	c-4.1,0-7.5,3.4-7.5,7.5v30.9H44.1L44.1,94L44.1,94z M328,379l-6.5,14.9h-131L184,379H328z M497,416.6c0,9.4-7.6,17-17,17H32
	c-9.4,0-17-7.6-17-17v-37.5h152.6l9.8,22.4c2,4.6,6.5,7.5,11.5,7.5h134.3c5,0,9.5-2.9,11.5-7.5l9.8-22.4H497V416.6z"/>
<path class="st0" d="M137.6,271.6H169c2.9,0,4.1-3.1,4.1-5.9c0-3.3-1.5-6.1-4.1-6.1h-23.6v-15h13.2c2.9,0,4.1-2.8,4.1-5.2
	c0-2.8-1.5-5.4-4.1-5.4h-13.2v-14.9H169c2.6,0,4.1-2.8,4.1-6.1c0-2.8-1.2-5.9-4.1-5.9h-31.4c-3,0-6,1.4-6,4.2v56
	C131.6,270.2,134.6,271.6,137.6,271.6z"/>
<path class="st0" d="M216.2,243.9c6.2-2.4,10.7-8,10.7-17.9c0-14.4-9.6-18.9-21.7-18.9h-18.3c-2.6,0-4.2,1.9-4.2,4.1v56.1
	c0,2.8,3.4,4.2,6.9,4.2c3.4,0,6.9-1.4,6.9-4.2v-21.3h5.8l12.1,23.5c1,1.9,2.6,2.6,4.4,2.6c4.1,0,8.6-3.7,8.6-7.1
	c0-0.4-0.1-1.1-0.4-1.6L216.2,243.9z M205.2,235.5h-8.7v-16.4h8.7c4.9,0,7.9,2,7.9,8.2C213.1,233.5,210.1,235.5,205.2,235.5z"/>
<path class="st0" d="M271.2,243.9c6.2-2.4,10.7-8,10.7-17.9c0-14.4-9.6-18.9-21.7-18.9h-18.3c-2.6,0-4.2,1.9-4.2,4.1v56.1
	c0,2.8,3.4,4.2,6.9,4.2c3.4,0,6.9-1.4,6.9-4.2v-21.3h5.8l12.1,23.5c1,1.9,2.6,2.6,4.4,2.6c4.1,0,8.6-3.7,8.6-7.1
	c0-0.4-0.1-1.1-0.4-1.6L271.2,243.9z M260.2,235.5h-8.7v-16.4h8.7c4.9,0,7.9,2,7.9,8.2C268.1,233.5,265.1,235.5,260.2,235.5z"/>
<path class="st0" d="M313.7,207.1c-12.2,0-21.6,5.6-21.6,20.8v23.4c0,15.2,9.4,20.8,21.6,20.8c12.2,0,21.7-5.6,21.7-20.8V228
	C335.4,212.8,325.8,207.1,313.7,207.1z M321.6,251.3c0,6.1-3,8.8-7.9,8.8c-4.9,0-7.9-2.7-7.9-8.8V228c0-6.1,2.9-8.8,7.9-8.8
	c4.9,0,7.9,2.7,7.9,8.8V251.3z"/>
<path class="st0" d="M381.2,243.9c6.2-2.4,10.7-8,10.7-17.9c0-14.4-9.6-18.9-21.7-18.9h-18.3c-2.6,0-4.2,1.9-4.2,4.1v56.1
	c0,2.8,3.4,4.2,6.9,4.2c3.4,0,6.9-1.4,6.9-4.2v-21.3h5.8l12.1,23.5c1,1.9,2.6,2.6,4.4,2.6c4.1,0,8.6-3.7,8.6-7.1
	c0-0.4-0.1-1.1-0.4-1.6L381.2,243.9z M370.2,235.5h-8.7v-16.4h8.7c4.9,0,7.9,2,7.9,8.2C378.1,233.5,375.1,235.5,370.2,235.5z"/>
</svg>
