<?xml version="1.0" encoding="utf-8"?>
<!-- Generator: Adobe Illustrator 22.0.1, SVG Export Plug-In . SVG Version: 6.00 Build 0)  -->
<svg version="1.0" id="Слой_1" xmlns="http://www.w3.org/2000/svg" xmlns:xlink="http://www.w3.org/1999/xlink" x="0px" y="0px"
	 width="512px" height="512px" viewBox="0 0 512 512" style="enable-background:new 0 0 512 512;" xml:space="preserve">
<style type="text/css">
	.st0{fill:#5F89FC;}
</style>
<path class="st0" d="M504.5,399.7h-21.6V129.7c0-16.6-13.5-30.1-30.1-30.1l0,15.1c8.3,0,15,6.7,15,15v269.9h-24.4V151.1
	c0-8.7-7.1-15.8-15.8-15.8h-22.2v15.1h22.2c0.4,0,0.8,0.3,0.8,0.8v248.6H83.7V151.1c0-0.4,0.3-0.8,0.8-0.8h22.7v-15.1H84.5
	c-8.7,0-15.8,7.1-15.8,15.8v248.6H44.2V129.7c0-8.2,6.6-14.9,14.8-15c0.1,0,0.2-0.1,0.2-0.2l0-14.9c-16.6,0-30.1,13.5-30.1,30.1
	v269.9H7.5c-4.2,0-7.5,3.4-7.5,7.5v45c0,17.7,14.4,32.1,32.1,32.1h447.8c17.7,0,32.1-14.4,32.1-32.1v-45
	C512,403,508.6,399.7,504.5,399.7z M328,414.8l-6.5,14.8H190.5l-6.5-14.8H328z M496.9,452.2c0,9.4-7.6,17-17,17H32.1
	c-9.4,0-17-7.6-17-17v-37.5h152.5l9.8,22.4c2,4.6,6.5,7.5,11.5,7.5h134.2c5,0,9.5-3,11.5-7.5l9.8-22.4h152.5V452.2z"/>
<g>
	<g>
		<g>
			<path class="st0" d="M299,140.1l-56-32c-2.5-1.4-5.5-1.4-8,0s-4,4.1-4,6.9v64c0,2.8,1.5,5.5,4,6.9c1.2,0.7,2.6,1.1,4,1.1
				c1.4,0,2.7-0.4,4-1.1l56-32c2.5-1.4,4-4.1,4-6.9S301.5,141.5,299,140.1z M247,165.3v-36.4l31.9,18.2L247,165.3z"/>
		</g>
	</g>
	<g>
		<g>
			<path class="st0" d="M139,59.1c-4.4,0-8,3.6-8,8v16h16v-8h8v-16H139z"/>
		</g>
	</g>
	<g>
		<g>
			<path class="st0" d="M147,219.1v-8h-16v16c0,4.4,3.6,8,8,8h16v-16H147z"/>
		</g>
	</g>
	<g>
		<g>
			<path class="st0" d="M371,59.1h-16v16h8v8h16v-16C379,62.6,375.4,59.1,371,59.1z"/>
		</g>
	</g>
	<g>
		<g>
			<path class="st0" d="M363,211.1v8h-8v16h16c4.4,0,8-3.6,8-8v-16H363z"/>
		</g>
	</g>
	<g>
		<g>
			<path class="st0" d="M395,27.1H115c-8.8,0-16,7.2-16,16v56.6v15.1v168.3c0,8.8,7.2,16,16,16h280c8.8,0,16-7.2,16-16V114.8V43.1
				C411,34.2,403.8,27.1,395,27.1z M115,283.1v-240h280l0,240H115z"/>
		</g>
	</g>
	<g>
		<g>
			<path class="st0" d="M255,67.1c-44.1,0-80,35.9-80,80s35.9,80,80,80s80-35.9,80-80S299.1,67.1,255,67.1z M255,211.1
				c-35.3,0-64-28.7-64-64s28.7-64,64-64s64,28.7,64,64S290.3,211.1,255,211.1z"/>
		</g>
	</g>
	<g>
		<g>
			<rect x="131" y="251.1" class="st0" width="44" height="16"/>
		</g>
	</g>
	<g>
		<g>
			<rect x="207" y="251.1" class="st0" width="172" height="16"/>
		</g>
	</g>
	<g>
		<g>
			<rect x="183" y="251.1" class="st0" width="16" height="16"/>
		</g>
	</g>
</g>
<g>
	<path class="st0" d="M230.6,380.6h50.7c4.4,0,8.4-2.3,10.6-6.1s2.2-8.4,0-12.3l-23.7-41.1c-2.6-4.4-7.1-7.1-12.2-7.1
		s-9.7,2.6-12.2,7.1l-5.9,10.3c-1,1.7-0.4,3.9,1.3,4.8c1.7,1,3.9,0.4,4.8-1.3l5.9-10.3c1.3-2.2,3.6-3.5,6.1-3.5
		c2.5,0,4.8,1.3,6.1,3.5l23.7,41.1c0.9,1.6,0.9,3.5,0,5.2s-2.6,2.6-4.5,2.6h-50.7c-1.9,0-3.5-1-4.5-2.6c-0.9-1.6-0.9-3.5,0-5.2
		l6.9-12c1-1.7,0.4-3.9-1.3-4.8c-1.7-1-3.9-0.4-4.8,1.3l-6.9,12c-2.2,3.8-2.2,8.4,0,12.3C222.2,378.3,226.2,380.6,230.6,380.6z"/>
	<path class="st0" d="M259.5,336.6c0-2-1.6-3.5-3.5-3.5c-2,0-3.5,1.6-3.5,3.5v19.5c0,2,1.6,3.5,3.5,3.5c2,0,3.5-1.6,3.5-3.5V336.6z"
		/>
	<path class="st0" d="M252.6,365.2c-0.1,1,0.2,2.2,0.9,2.9c1.3,1.3,3.7,1.3,5,0c0.8-0.8,1.2-2.1,1-3.2
		C258.8,361.2,253,361.5,252.6,365.2z"/>
</g>
<rect x="59.2" y="99.7" class="st0" width="42.5" height="15.1"/>
<rect x="409.8" y="99.7" class="st0" width="43" height="15.1"/>
</svg>
