<?xml version="1.0" encoding="utf-8"?>
<!-- Generator: Adobe Illustrator 22.0.1, SVG Export Plug-In . SVG Version: 6.00 Build 0)  -->
<svg version="1.0" id="Capa_1" xmlns="http://www.w3.org/2000/svg" xmlns:xlink="http://www.w3.org/1999/xlink" x="0px" y="0px"
	 width="512px" height="512px" viewBox="0 0 512 512" style="enable-background:new 0 0 512 512;" xml:space="preserve">
<style type="text/css">
	.st0{fill:#5F89FC;}
</style>
<g>
	<g>
		<g>
			<path class="st0" d="M496.4,140L372,15.6C362,5.6,348.6,0,334.3,0H177.7C163.4,0,150,5.6,140,15.6L15.6,140
				C5.5,150,0,163.4,0,177.7v156.6C0,348.6,5.5,362,15.6,372L140,496.4c10.1,10.1,23.5,15.6,37.7,15.6h156.7
				c14.2,0,27.6-5.6,37.7-15.6L496.4,372c10.1-10.1,15.6-23.5,15.6-37.7V177.7C512,163.4,506.5,150,496.4,140z M490.7,334.3
				c0,8.6-3.3,16.6-9.4,22.6L357,481.3c-6,6-14.2,9.4-22.6,9.4H177.7c-8.4,0-16.7-3.4-22.6-9.4L30.7,357c-6-6.1-9.4-14.1-9.4-22.6
				V177.7c0-8.6,3.3-16.6,9.4-22.6L155,30.7c6-6,14.2-9.4,22.6-9.4h156.7c8.4,0,16.7,3.4,22.6,9.4L481.3,155
				c6,6.1,9.4,14.1,9.4,22.6L490.7,334.3L490.7,334.3z"/>
			<path class="st0" d="M400.6,210.7c-10.9-7.3-23.9-9.8-36.8-7c-12.8,2.8-23.7,10.4-30.8,21.8L320,248.2V117.3
				c0-17.6-14.4-32-32-32c-4.2,0-8.2,0.9-11.9,2.3c-3.7-13.6-16-23.7-30.8-23.7c-11.4,0-21.3,6-27,14.9c-4.7-2.6-10-4.3-15.7-4.3
				c-17.6,0-32,14.4-32,32V130c-3.4-1.2-6.9-2-10.7-2c-17.6,0-32,14.4-32,32v167.2c0,66.6,54.2,120.8,120.8,120.8
				c53.7,0,100.2-34.6,115.7-86.1l40.5-139.3C406.2,218.1,404.5,213.3,400.6,210.7z M344,355.8c-12.7,42.4-51,70.9-95.2,70.9
				c-54.8,0-99.4-44.6-99.4-99.4V160c0-5.9,4.8-10.7,10.7-10.7s10.7,4.8,10.7,10.7v64c0,5.9,4.8,10.7,10.7,10.7S192,229.9,192,224
				V106.7c0-5.9,4.8-10.7,10.7-10.7s10.7,4.8,10.7,10.7v106.7c0,5.9,4.8,10.7,10.7,10.7s10.7-4.8,10.7-10.7V96
				c0-5.9,4.8-10.7,10.7-10.7S256,90.1,256,96v128c0,5.9,4.8,10.7,10.7,10.7s10.7-4.8,10.7-10.7V117.3c0-5.9,4.8-10.7,10.7-10.7
				s10.7,4.8,10.7,10.7V288c0,4.8,3.2,9.1,7.9,10.3c4.7,1.3,9.6-0.8,12-5l32.8-56.8c3.9-6.2,9.9-10.4,17-11.9
				c4.6-1,9.2-0.8,13.6,0.6L344,355.8z"/>
		</g>
	</g>
</g>
</svg>
