<?xml version="1.0" encoding="utf-8"?>
<!-- Generator: Adobe Illustrator 22.0.1, SVG Export Plug-In . SVG Version: 6.00 Build 0)  -->
<svg version="1.0" id="Слой_1" xmlns="http://www.w3.org/2000/svg" xmlns:xlink="http://www.w3.org/1999/xlink" x="0px" y="0px"
	 width="512px" height="512px" viewBox="0 0 512 512" style="enable-background:new 0 0 512 512;" xml:space="preserve">
<style type="text/css">
	.st0{fill:#5F89FC;}
</style>
<path class="st0" d="M115.8,304.1h102.4c4.1,0,7.5-3.4,7.5-7.5s-3.4-7.5-7.5-7.5H115.8c-4.1,0-7.5,3.4-7.5,7.5
	S111.6,304.1,115.8,304.1z"/>
<path class="st0" d="M288.3,304.1c4.1,0,7.5-3.4,7.5-7.5s-3.4-7.5-7.5-7.5h-42.5c-4.1,0-7.5,3.4-7.5,7.5s3.4,7.5,7.5,7.5H288.3z"/>
<path class="st0" d="M308.7,296.6c0,4.1,3.4,7.5,7.5,7.5h80c4.1,0,7.5-3.4,7.5-7.5s-3.4-7.5-7.5-7.5h-80
	C312.1,289.1,308.7,292.5,308.7,296.6z"/>
<path class="st0" d="M115.8,335h51.4c4.1,0,7.5-3.4,7.5-7.5s-3.4-7.5-7.5-7.5h-51.4c-4.1,0-7.5,3.4-7.5,7.5S111.6,335,115.8,335z"/>
<path class="st0" d="M316.2,320H203.1c-4.1,0-7.5,3.4-7.5,7.5s3.4,7.5,7.5,7.5h113.1c4.1,0,7.5-3.4,7.5-7.5S320.4,320,316.2,320z"/>
<path class="st0" d="M396.2,320h-56.7c-4.1,0-7.5,3.4-7.5,7.5s3.4,7.5,7.5,7.5h56.7c4.1,0,7.5-3.4,7.5-7.5S400.4,320,396.2,320z"/>
<path class="st0" d="M504.5,364.1h-21.7V94c0-16.6-13.5-30-30-30H59.2c-16.6,0-30,13.5-30,30v270H7.5c-4.1,0-7.5,3.4-7.5,7.5v45
	c0,17.7,14.4,32,32,32H480c17.7,0,32-14.4,32-32v-45C512,367.4,508.6,364.1,504.5,364.1z M44.1,94c0-8.3,6.7-15,15-15h393.7
	c8.3,0,15,6.7,15,15v270h-24.5V115.4c0-8.7-7.1-15.8-15.8-15.8H84.4c-8.7,0-15.8,7.1-15.8,15.8v169.8c0,4.1,3.4,7.5,7.5,7.5
	c4.1,0,7.5-3.4,7.5-7.5V115.4c0-0.4,0.4-0.8,0.8-0.8h343.1c0.4,0,0.8,0.4,0.8,0.8v248.7H83.6v-30.9c0-4.1-3.4-7.5-7.5-7.5
	c-4.1,0-7.5,3.4-7.5,7.5v30.9H44.1L44.1,94L44.1,94z M328,379l-6.5,14.9h-131L184,379H328z M497,416.6c0,9.4-7.6,17-17,17H32
	c-9.4,0-17-7.6-17-17v-37.5h152.6l9.8,22.4c2,4.6,6.5,7.5,11.5,7.5h134.3c5,0,9.5-2.9,11.5-7.5l9.8-22.4H497V416.6z"/>
<path class="st0" d="M202.4,270.9h107.3c9.4,0,17.8-4.8,22.4-13s4.7-17.8,0-25.9l-50.2-87c-5.4-9.4-15.1-14.9-25.9-14.9
	s-20.5,5.6-25.9,14.9l-12.5,21.7c-2.1,3.6-0.8,8.2,2.7,10.2c3.6,2.1,8.2,0.8,10.2-2.7l12.5-21.7c2.7-4.7,7.5-7.4,12.9-7.4
	s10.2,2.8,12.9,7.4l50.2,87c2,3.4,2,7.5,0,10.9s-5.5,5.5-9.5,5.5H202.4c-3.9,0-7.5-2-9.5-5.5c-2-3.4-2-7.5,0-10.9l14.6-25.3
	c2.1-3.6,0.8-8.2-2.7-10.2c-3.6-2.1-8.2-0.8-10.2,2.7L179.9,232c-4.7,8.1-4.7,17.8,0,25.9C184.6,266.1,193,270.9,202.4,270.9z"/>
<path class="st0" d="M263.5,177.9c0-4.1-3.4-7.5-7.5-7.5s-7.5,3.4-7.5,7.5v41.2c0,4.1,3.4,7.5,7.5,7.5s7.5-3.4,7.5-7.5V177.9z"/>
<path class="st0" d="M248.8,238.4c-0.2,2.2,0.3,4.6,1.9,6.2c2.7,2.7,7.8,2.8,10.6,0c1.8-1.8,2.4-4.4,2-6.8
	C261.8,229.8,249.7,230.3,248.8,238.4z"/>
</svg>
