<?xml version="1.0" encoding="utf-8"?>
<!-- Generator: Adobe Illustrator 22.0.1, SVG Export Plug-In . SVG Version: 6.00 Build 0)  -->
<svg version="1.0" id="Слой_1" xmlns="http://www.w3.org/2000/svg" xmlns:xlink="http://www.w3.org/1999/xlink" x="0px" y="0px"
	 width="512px" height="512px" viewBox="0 0 512 512" style="enable-background:new 0 0 512 512;" xml:space="preserve">
<style type="text/css">
	.st0{fill:#5F89FC;}
</style>
<path class="st0" d="M504.5,399.7h-21.6V129.7c0-16.6-13.5-30.1-30.1-30.1h-47.4V61.4c0-18.4-15-33.4-33.4-33.4h-69
	c-4.2,0-7.5,3.4-7.5,7.5c0,4.2,3.4,7.5,7.5,7.5h69c10.1,0,18.3,8.2,18.3,18.3v37H122.2v-37c0-10.1,8.2-18.3,18.3-18.3h115.5
	c4.2,0,7.5-3.4,7.5-7.5c0-4.2-3.4-7.5-7.5-7.5H140.5c-18.4,0-33.4,15-33.4,33.4v38.3H59.2c-16.6,0-30.1,13.5-30.1,30.1v269.9H7.5
	c-4.2,0-7.5,3.4-7.5,7.5v45c0,17.7,14.4,32.1,32.1,32.1h447.8c17.7,0,32.1-14.4,32.1-32.1v-45C512,403,508.6,399.7,504.5,399.7z
	 M405.4,114.8h47.4c8.3,0,15,6.7,15,15v269.9h-24.4V151.1c0-8.7-7.1-15.8-15.8-15.8h-22.2V114.8z M140.5,298.6H164
	c4.2,0,7.5-3.4,7.5-7.5s-3.4-7.5-7.5-7.5h-23.5c-10.1,0-18.3-8.2-18.3-18.3V113.5h268.1v151.7c0,10.1-8.2,18.3-18.3,18.3H212.3
	c-4.2,0-7.5,3.4-7.5,7.5s3.4,7.5,7.5,7.5H372c18.4,0,33.4-15,33.4-33.4V150.3h22.2c0.4,0,0.8,0.3,0.8,0.8v248.6H83.7V151.1
	c0-0.4,0.3-0.8,0.8-0.8h22.7v114.9C107.1,283.6,122.1,298.6,140.5,298.6z M328,414.8l-6.5,14.8H190.5l-6.5-14.8H328z M44.2,129.7
	c0-8.3,6.7-15,15-15h47.9v20.5H84.5c-8.7,0-15.8,7.1-15.8,15.8v248.6H44.2V129.7z M496.9,452.2c0,9.4-7.6,17-17,17H32.1
	c-9.4,0-17-7.6-17-17v-37.5h152.5l9.8,22.4c2,4.6,6.5,7.5,11.5,7.5h134.2c5,0,9.5-3,11.5-7.5l9.8-22.4h152.5V452.2z"/>
<path class="st0" d="M115.8,339.8h102.3c4.2,0,7.5-3.4,7.5-7.5c0-4.2-3.4-7.5-7.5-7.5H115.8c-4.2,0-7.5,3.4-7.5,7.5
	C108.3,336.4,111.6,339.8,115.8,339.8z"/>
<path class="st0" d="M245.8,339.8h42.5c4.2,0,7.5-3.4,7.5-7.5c0-4.2-3.4-7.5-7.5-7.5h-42.5c-4.2,0-7.5,3.4-7.5,7.5
	C238.3,336.4,241.7,339.8,245.8,339.8z"/>
<path class="st0" d="M316.2,339.8h80c4.2,0,7.5-3.4,7.5-7.5c0-4.2-3.4-7.5-7.5-7.5h-80c-4.2,0-7.5,3.4-7.5,7.5
	C308.7,336.4,312.1,339.8,316.2,339.8z"/>
<path class="st0" d="M115.8,370.7h51.4c4.2,0,7.5-3.4,7.5-7.5s-3.4-7.5-7.5-7.5h-51.4c-4.2,0-7.5,3.4-7.5,7.5
	S111.6,370.7,115.8,370.7z"/>
<path class="st0" d="M316.2,355.6H203.1c-4.2,0-7.5,3.4-7.5,7.5s3.4,7.5,7.5,7.5h113.1c4.2,0,7.5-3.4,7.5-7.5
	S320.4,355.6,316.2,355.6z"/>
<path class="st0" d="M396.2,355.6h-56.7c-4.2,0-7.5,3.4-7.5,7.5s3.4,7.5,7.5,7.5h56.7c4.2,0,7.5-3.4,7.5-7.5
	S400.4,355.6,396.2,355.6z"/>
<path class="st0" d="M181.7,236.5c0.8,0.3,1.7,0.4,2.5,0.4c3.1,0,6-1.9,7.1-5.1l2.2-6.4l12.6-0.5c0.4,2,1,4,1.6,5.9l-9.1,6.9
	c-1.6,1.2-2.6,3-2.9,4.9l-2.2,15.2c-0.6,4.1,2.3,8,6.4,8.6c0.4,0.1,0.7,0.1,1.1,0.1c3.7,0,6.9-2.7,7.5-6.5l1.8-12.2l4.5-3.4
	c9.3,13.4,24.3,22.1,41.3,22.1c16.9,0,32-8.7,41.3-22.1l4.5,3.4l1.8,12.2c0.5,3.8,3.8,6.5,7.5,6.5c0.4,0,0.7,0,1.1-0.1
	c4.1-0.6,7-4.4,6.4-8.5l-2.2-15.3c-0.3-2-1.3-3.7-2.9-4.9l-9.2-7c0.6-1.9,1.2-3.8,1.6-5.8l12.7,0.5l2.2,6.4c1.1,3.1,4,5.1,7.1,5.1
	c0.8,0,1.7-0.1,2.5-0.4c3.9-1.4,6-5.7,4.6-9.6l-3.9-11.3c-1-2.9-3.7-4.9-6.8-5.1l-17.1-0.6c0-0.1,0-0.2,0-0.4c0-0.4,0-0.8-0.1-1.2
	l14.1-6.4c3.3-1.5,5-5,4.3-8.5l-3.4-15.5c-0.9-4.1-4.9-6.6-9-5.7c-4.1,0.9-6.6,4.9-5.7,9l2.1,9.5l-5.6,2.5
	c-4.3-11.7-12.3-21.4-22.6-27.5c1.6-3.5,2.4-7.3,2.4-11.3c0-15.2-12.4-27.6-27.6-27.6s-27.6,12.4-27.6,27.6c0,4,0.9,7.9,2.5,11.3
	c-10.2,6.1-18.3,15.8-22.6,27.5l-5.5-2.5l2.1-9.5c0.9-4.1-1.7-8.1-5.7-9s-8.1,1.7-9,5.7l-3.4,15.5c-0.8,3.5,1,7.1,4.3,8.5l14,6.3
	c0,0.4-0.1,0.9-0.1,1.3c0,0.1,0,0.2,0,0.3l-17,0.6c-3.1,0.1-5.8,2.1-6.8,5.1l-3.9,11.3C175.7,230.9,177.8,235.2,181.7,236.5z
	 M291.7,207.3c0,0.1,0,0.3,0.1,0.4c0.1,0.6,0.1,1.2,0.2,1.8c0,0.2,0,0.5,0.1,0.7c0.2,3.9-0.1,7.9-1,11.8c-0.9,3.9-2.1,7.1-4,10.4
	c-0.3,0.5-0.6,1-0.9,1.6c-1.1,1.7-2,3.1-3.3,4.7c-4.6,5.5-10.9,9.7-17.8,11.6c-0.1,0-0.1,0-0.2,0.1c-0.4,0.1-0.8,0.2-1.3,0.3v-43.3
	H291.7z M256,141.9c6.9,0,12.6,5.6,12.6,12.6c0,2-0.5,3.9-1.4,5.6c-3.6-0.9-7.4-1.3-11.2-1.3c-3.8,0-7.6,0.5-11.2,1.3
	c-0.9-1.7-1.4-3.6-1.4-5.6C243.4,147.5,249,141.9,256,141.9z M256,173.8c12.9,0,24.3,7.4,30.7,18.4h-61.4
	C231.6,181.2,243,173.8,256,173.8z M220,209.5c0-0.5,0.1-1.1,0.2-1.6c0-0.2,0-0.4,0.1-0.5h28.2v43.3c-0.4-0.1-0.9-0.2-1.3-0.3
	c0,0-0.1,0-0.1,0c-3.8-1.1-6.4-2.3-9.7-4.4c-10.9-7.2-17.3-20.2-17.3-33.2C219.8,211.6,219.9,210.5,220,209.5z"/>
<path class="st0" d="M150.6,64.5c-0.4-0.3-0.8-0.5-1.3-0.7c-0.5-0.2-0.9-0.3-1.4-0.4c-1-0.2-2-0.2-2.9,0c-0.5,0.1-1,0.2-1.4,0.4
	c-0.5,0.2-0.9,0.4-1.3,0.7c-0.4,0.3-0.8,0.6-1.1,0.9c-1.3,1.3-2.2,3.5-2.2,5.3c0,4.2,3.4,7.5,7.5,7.5c2,0,3.9-0.8,5.3-2.2
	c0.3-0.3,0.7-0.7,0.9-1.1c0.6-0.8,0.9-1.7,1.1-2.7c0.4-1.9,0-4-1.1-5.7C152.2,65.8,151.3,64.9,150.6,64.5z"/>
<path class="st0" d="M175.4,63.8c-0.5-0.2-0.9-0.3-1.4-0.4c-1-0.2-2-0.2-3,0c-0.5,0.1-1,0.2-1.4,0.4c-1.6,0.7-3.1,2.1-3.9,3.6
	c-1.4,2.8-0.9,6.5,1.4,8.7c0.3,0.4,0.7,0.7,1.1,0.9c0.4,0.3,0.8,0.5,1.3,0.7c0.9,0.4,1.9,0.6,2.9,0.5c2,0,3.9-0.8,5.3-2.2
	c1.1-1.1,1.9-2.6,2.1-4.2c0.3-1.9-0.1-3.7-1.2-5.3C178,65.4,176.7,64.3,175.4,63.8z"/>
<path class="st0" d="M206,69.3c-0.2-0.9-0.6-1.9-1.1-2.7c-0.5-0.8-1.3-1.6-2.1-2.1c-0.4-0.3-0.9-0.5-1.3-0.7
	c-0.5-0.2-0.9-0.3-1.4-0.4c-1-0.2-2-0.2-2.9,0c-1.5,0.3-2.8,1-3.9,2.1c-2.6,2.6-2.9,6.5-0.9,9.5c1.3,2,3.9,3.4,6.3,3.4
	c2,0,3.9-0.8,5.3-2.2C205.7,74.4,206.5,71.7,206,69.3z"/>
</svg>
