<?xml version="1.0" encoding="utf-8"?>
<!-- Generator: Adobe Illustrator 22.0.1, SVG Export Plug-In . SVG Version: 6.00 Build 0)  -->
<svg version="1.0" id="Слой_1" xmlns="http://www.w3.org/2000/svg" xmlns:xlink="http://www.w3.org/1999/xlink" x="0px" y="0px"
	 width="512px" height="512px" viewBox="0 0 512 512" style="enable-background:new 0 0 512 512;" xml:space="preserve">
<style type="text/css">
	.st0{fill:#5F89FC;}
</style>
<path class="st0" d="M414.1,84.2c-28.5,0-51.6,23.2-51.6,51.6s23.2,51.6,51.6,51.6s51.6-23.2,51.6-51.6S442.5,84.2,414.1,84.2z
	 M414.1,172.4c-20.2,0-36.6-16.4-36.6-36.6s16.4-36.6,36.6-36.6s36.6,16.4,36.6,36.6S434.2,172.4,414.1,172.4z"/>
<path class="st0" d="M473.7,34.4H93.3C72.2,34.4,55,51.6,55,72.8v18.9H38.4C17.2,91.6,0,108.8,0,129.9v309.5
	c0,21.1,17.2,38.3,38.3,38.3h251.7c4.2,0,7.5-3.4,7.5-7.5c0-4.1-3.4-7.5-7.5-7.5H38.4c-12.8,0-23.3-10.4-23.3-23.3V129.9
	c0-12.8,10.4-23.3,23.3-23.3H55v275.6c0,21.1,17.2,38.3,38.3,38.3H442v18.9c0,12.8-10.4,23.3-23.3,23.3h-81.1
	c-4.2,0-7.5,3.4-7.5,7.5c0,4.2,3.4,7.5,7.5,7.5h81.1c21.1,0,38.3-17.2,38.3-38.3v-18.9h16.7c21.1,0,38.3-17.2,38.3-38.3V72.8
	C512,51.6,494.9,34.4,473.7,34.4z M497,316.4L396.9,203.5c-2.3-2.6-5.6-4.1-9-4.2c-3.4-0.1-6.8,1.2-9.2,3.7L316.5,265l-82.1-92.5
	c-2.3-2.6-5.6-4.1-9-4.2c-3.5-0.1-6.8,1.2-9.2,3.7L158,230.1c-2.9,2.9-2.9,7.7,0,10.6s7.7,2.9,10.6,0l56.3-56.3l106.7,120.3
	c1.5,1.7,3.6,2.5,5.6,2.5c1.8,0,3.6-0.6,5-1.9c3.1-2.8,3.4-7.5,0.6-10.6l-16.4-18.5l60.9-60.8L497,339v43.2
	c0,12.8-10.4,23.3-23.3,23.3H93.3c-12.8,0-23.3-10.4-23.3-23.3v-43l66.1-66c2.9-2.9,2.9-7.7,0-10.6c-2.9-2.9-7.7-2.9-10.6,0L70,318
	V72.8c0-12.8,10.4-23.3,23.3-23.3h380.4c12.8,0,23.3,10.4,23.3,23.3V316.4z"/>
</svg>
