<?xml version="1.0" encoding="utf-8"?>
<!-- Generator: Adobe Illustrator 22.0.1, SVG Export Plug-In . SVG Version: 6.00 Build 0)  -->
<svg version="1.0" id="Capa_1" xmlns="http://www.w3.org/2000/svg" xmlns:xlink="http://www.w3.org/1999/xlink" x="0px" y="0px"
	 width="512px" height="512px" viewBox="0 0 512 512" style="enable-background:new 0 0 512 512;" xml:space="preserve">
<style type="text/css">
	.st0{fill:#5F89FC;}
</style>
<path class="st0" d="M256,0C114.6,0,0,114.6,0,256s114.6,256,256,256s256-114.6,256-256S397.4,0,256,0z M255.7,491.4
	C125.7,491.4,20.3,386,20.3,256S125.7,20.6,255.7,20.6S491,126,491,256S385.6,491.4,255.7,491.4z M421.8,374.2
	c-2.5,3.5-7.4,4.3-10.9,1.8c0,0,0,0,0,0c-3.5-2.5-4.3-7.4-1.8-10.9c46.5-65.1,46.5-152.5,0-217.6c-2.4-3.5-1.6-8.3,1.8-10.8
	c3.5-2.5,8.4-1.8,10.9,1.7v0C472.2,209,472.2,303.7,421.8,374.2z M91.1,374.2c-50.4-70.5-50.4-165.2,0-235.7
	c2.5-3.5,7.4-4.3,10.9-1.8c0,0,0,0,0,0c3.5,2.5,4.3,7.4,1.8,10.9c-46.5,65.1-46.5,152.5,0,217.6c2.4,3.5,1.6,8.3-1.8,10.8
	C98.5,378.4,93.6,377.7,91.1,374.2z M362.7,163.9L435.6,91L421,76.4L275.5,221.9c-5.6-3.1-12.1-4.9-19-4.9
	c-21.6,0-39.2,17.5-39.2,39.2c0,6.9,1.8,13.4,4.9,19l-28.1,28.1c-22.7-30-20.9-72.5,5.5-100.5c3-3.1,2.9-8.1-0.3-11
	c-3.1-3-8.1-2.9-11,0.3c0,0-0.1,0.1-0.1,0.1c-32.2,34.1-33.9,86.3-5.2,122.3l-29.9,29.9c0.5-2.2,0.1-4.7-1.4-6.7
	c-37.4-47.8-37.4-114.9,0-162.7c2.6-3.4,2-8.3-1.4-11c-3.4-2.6-8.3-2-10.9,1.4c-41.7,53.5-41.7,128.5,0,182c2,2.5,5.1,3.5,8,2.8
	L76.4,421L91,435.6L236.6,290c5.8,3.4,12.6,5.4,19.8,5.4c21.6,0,39.2-17.5,39.2-39.2c0-7.2-2-14-5.4-19.8l27.9-27.9
	c23.4,30,21.8,73.1-4.8,101.3c-3,3.1-2.8,8.1,0.3,11c0,0,0,0,0,0c3.1,3,8.1,2.8,11-0.3c0,0,0,0,0,0c32.4-34.3,33.9-87.1,4.6-123.1
	l32-32c-2.2,2.8-2.3,6.7,0,9.6c37.4,47.8,37.4,114.9,0,162.7c-2.7,3.4-2,8.3,1.4,11c3.4,2.7,8.3,2,11-1.4
	c41.7-53.5,41.7-128.5,0-182C370.9,161.9,366.1,161.3,362.7,163.9z M233.1,256.2c0-12.9,10.4-23.3,23.3-23.3c2.4,0,4.8,0.4,7,1.1
	l-29.2,29.2C233.5,261,233.1,258.6,233.1,256.2z M279.7,256.2c0,12.9-10.4,23.3-23.3,23.3c-2.8,0-5.4-0.5-7.9-1.4l29.8-29.8
	C279.3,250.7,279.7,253.4,279.7,256.2z"/>
</svg>
