<?xml version="1.0" encoding="utf-8"?>
<!-- Generator: Adobe Illustrator 22.0.1, SVG Export Plug-In . SVG Version: 6.00 Build 0)  -->
<svg version="1.0" id="Слой_1" xmlns="http://www.w3.org/2000/svg" xmlns:xlink="http://www.w3.org/1999/xlink" x="0px" y="0px"
	 width="329.8px" height="322.2px" viewBox="0 0 329.8 322.2" style="enable-background:new 0 0 329.8 322.2;" xml:space="preserve"
	>
<style type="text/css">
	.st0{fill:#5F89FC;}
	.st1{fill:#FFFFFF;}
</style>
<path class="st0" d="M289.8,322.2H40c-22.1,0-40-17.9-40-40V40C0,17.9,17.9,0,40,0h249.8c22.1,0,40,17.9,40,40v242.2
	C329.8,304.3,311.9,322.2,289.8,322.2z"/>
<path class="st1" d="M236.4,137.4c-9.4-0.6-23.2,0.2-37.8,1.6c4.2-17,9.8-40.6,11.8-51.6c3.2-17.4-21.6-23.6-27-10
	s-21.6,59.8-52,68.2c-1.4,0.4-3,1.2-3,1.2l-0.2,93c0,0,59.4,12.4,94,12.4c17.4,0,29.2-3,31-19.6c2.4-22.2,5.2-50.2,6.4-66.6
	C261.2,145.2,254.8,138.6,236.4,137.4z"/>
<path class="st1" d="M105.4,139.8H80c-5.6,0-10,4.4-10,10v87.4c0,5.6,4.4,10,10,10h25.4c5.6,0,10-4.4,10-10v-87.4
	C115.4,144.2,110.8,139.8,105.4,139.8z"/>
</svg>
