<?xml version="1.0" encoding="utf-8"?>
<!-- Generator: Adobe Illustrator 22.0.1, SVG Export Plug-In . SVG Version: 6.00 Build 0)  -->
<svg version="1.0" id="Слой_1" xmlns="http://www.w3.org/2000/svg" xmlns:xlink="http://www.w3.org/1999/xlink" x="0px" y="0px"
	 width="1194.6px" height="179.8px" viewBox="0 0 1194.6 179.8" style="enable-background:new 0 0 1194.6 179.8;"
	 xml:space="preserve">
<style type="text/css">
	.st0{fill:#424242;}
	.st1{fill:#63AF55;}
	.st2{fill:#5F89FC;}
</style>
<g>
	<path class="st0" d="M241,17.9h36c5.3,0,10.1,0.7,14.4,2c4.3,1.3,8,3.2,11,5.8c3,2.5,5.4,5.6,7,9.3c1.6,3.7,2.5,7.8,2.5,12.5v0.2
		c0,5-0.9,9.3-2.7,13.1c-1.8,3.8-4.3,6.9-7.5,9.5c-3.2,2.6-7,4.5-11.5,5.8c-4.4,1.3-9.3,1.9-14.5,1.9h-11.5v24H241V17.9z
		 M275.4,59.7c4.2,0,7.4-1,9.8-3c2.4-2,3.5-4.6,3.5-8v-0.2c0-3.6-1.2-6.4-3.5-8.3c-2.4-1.9-5.7-2.8-9.9-2.8h-10.9v22.3H275.4z"/>
	<path class="st0" d="M321.8,17.9h39.7c6.5,0,12,0.8,16.4,2.4c4.5,1.6,8.1,3.8,10.9,6.7c5,4.8,7.4,11.3,7.4,19.6v0.2
		c0,6.5-1.6,11.8-4.7,16.1c-3.1,4.2-7.3,7.5-12.6,9.7l20,29.3h-26.9l-16.9-25.4H355h-10v25.4h-23.3V17.9z M360.4,58.2
		c4,0,7.1-0.9,9.2-2.7c2.2-1.8,3.2-4.2,3.2-7.3V48c0-3.4-1.1-5.9-3.4-7.5c-2.2-1.6-5.3-2.5-9.2-2.5h-15.2v20.2H360.4z"/>
	<path class="st0" d="M450.3,103.6c-6.5,0-12.5-1.1-18-3.4c-5.5-2.3-10.3-5.4-14.3-9.3c-4-3.9-7.1-8.5-9.4-13.8
		c-2.3-5.3-3.4-10.9-3.4-16.9v-0.2c0-6,1.1-11.7,3.4-17c2.3-5.3,5.5-10,9.5-13.9s8.9-7.1,14.4-9.4c5.5-2.3,11.5-3.4,18-3.4
		s12.5,1.1,18,3.4c5.5,2.3,10.3,5.4,14.3,9.3c4,3.9,7.1,8.5,9.4,13.8c2.3,5.3,3.4,10.9,3.4,16.9v0.2c0,6-1.1,11.7-3.4,17
		c-2.3,5.3-5.5,10-9.5,13.9s-8.9,7.1-14.4,9.4C462.8,102.5,456.8,103.6,450.3,103.6z M450.5,82.6c3.2,0,6.1-0.6,8.8-1.8
		c2.6-1.2,4.9-2.8,6.7-4.9c1.8-2,3.3-4.4,4.3-7.1c1-2.7,1.6-5.6,1.6-8.6v-0.2c0-3-0.5-5.9-1.6-8.6c-1-2.7-2.5-5.1-4.5-7.2
		c-1.9-2.1-4.2-3.7-6.9-5c-2.6-1.2-5.6-1.9-8.8-1.9c-3.2,0-6.1,0.6-8.7,1.8c-2.6,1.2-4.9,2.8-6.7,4.9s-3.3,4.4-4.3,7.1
		c-1,2.7-1.5,5.6-1.5,8.6v0.2c0,3,0.5,5.9,1.6,8.6c1,2.7,2.5,5.1,4.4,7.2c1.9,2.1,4.2,3.7,6.8,5C444.4,82,447.3,82.6,450.5,82.6z"/>
	<path class="st0" d="M507.8,17.9H575v20.4h-43.9v14.2h39.7v19.4h-39.7v30h-23.3V17.9z"/>
	<path class="st0" d="M586,17.9h23.4v84H586V17.9z"/>
	<path class="st0" d="M622.2,54.4h39.4v20h-39.4V54.4z"/>
	<path class="st0" d="M673.8,17.9h24.6l20,32.5l20-32.5H763v84h-23.2V53.7l-21.4,32.9H718l-21.3-32.6v48h-22.9V17.9z"/>
	<path class="st0" d="M807,17.3h22.4l35.8,84.6h-25l-6.1-15h-32.4l-6,15h-24.5L807,17.3z M827.4,68.9L818,45l-9.5,23.9H827.4z"/>
	<path class="st0" d="M906.3,103.4c-7.5,0-14.7-1.2-21.4-3.5c-6.8-2.3-12.7-5.8-17.9-10.5l13-15.5c8.4,6.7,17.5,10.1,27.2,10.1
		c3.1,0,5.5-0.5,7.1-1.5c1.6-1,2.5-2.4,2.5-4.3v-0.2c0-0.9-0.2-1.7-0.6-2.3c-0.4-0.7-1.1-1.3-2.2-2c-1.1-0.6-2.5-1.3-4.3-1.9
		c-1.8-0.6-4.1-1.2-7-1.9c-4.5-1-8.6-2.2-12.5-3.4c-3.8-1.2-7.2-2.8-10-4.8c-2.8-2-5.1-4.4-6.7-7.3c-1.6-2.9-2.5-6.5-2.5-10.8v-0.2
		c0-3.9,0.7-7.5,2.2-10.8c1.5-3.3,3.6-6.1,6.5-8.5c2.8-2.4,6.3-4.3,10.3-5.6c4-1.3,8.5-2,13.6-2c7.2,0,13.6,0.9,19.3,2.8
		c5.6,1.9,10.7,4.7,15.3,8.4l-11.6,16.5c-3.8-2.7-7.8-4.8-11.8-6.2c-4-1.4-7.9-2.1-11.7-2.1c-2.8,0-4.9,0.5-6.3,1.6
		c-1.4,1-2.1,2.3-2.1,3.8v0.2c0,1,0.2,1.8,0.7,2.5c0.4,0.7,1.2,1.4,2.3,2s2.6,1.2,4.4,1.8c1.9,0.6,4.3,1.2,7.1,1.9
		c4.8,1,9.1,2.3,13,3.7c3.9,1.4,7.2,3.1,9.9,5.1c2.7,2,4.8,4.4,6.2,7.2c1.4,2.8,2.2,6.2,2.2,10.1v0.2c0,4.3-0.8,8.1-2.5,11.5
		c-1.6,3.4-3.9,6.2-6.9,8.6c-3,2.4-6.5,4.2-10.7,5.4C916.1,102.7,911.4,103.4,906.3,103.4z"/>
	<path class="st0" d="M972.1,38.3h-25.2V17.9h73.7v20.4h-25.2v63.6h-23.3V38.3z"/>
	<path class="st0" d="M1030.8,17.9h67.4v19.8h-44.5v12.7h40.3v18.4h-40.3v13.3h45.1v19.8h-68V17.9z"/>
	<path class="st0" d="M1110.8,17.9h39.7c6.5,0,12,0.8,16.4,2.4c4.5,1.6,8.1,3.8,10.9,6.7c5,4.8,7.4,11.3,7.4,19.6v0.2
		c0,6.5-1.6,11.8-4.7,16.1c-3.1,4.2-7.3,7.5-12.6,9.7l20,29.3h-26.9l-16.9-25.4h-0.2h-10v25.4h-23.3V17.9z M1149.4,58.2
		c4,0,7.1-0.9,9.2-2.7c2.2-1.8,3.2-4.2,3.2-7.3V48c0-3.4-1.1-5.9-3.4-7.5c-2.2-1.6-5.3-2.5-9.2-2.5h-15.2v20.2H1149.4z"/>
</g>
<g>
	<g>
		<path class="st1" d="M120.4,24.7c2.5-5.3,5-10.6,7.6-16.3c-29-12.2-57.2-11.6-84.1,4.5C17.8,28.4,3.6,52,0,82.4
			c6.2,0.6,12,1.1,17.9,1.5C21.1,38,71.8,2.9,120.4,24.7z"/>
		<path class="st1" d="M178.6,74.6c-5.8,1-11.6,2-17.6,3.1c3.1,21-1.2,39.9-14,56.5c-12.7,16.5-29.8,25.6-50.7,27.9
			c0.5,5.9,1,11.7,1.5,17.5C141.4,178,188.3,134.1,178.6,74.6z"/>
		<path class="st1" d="M17.6,96.5C12.1,97,6.3,97.5,0.5,98c1.4,36.7,33.3,77.9,81.6,81.8c0.5-5.9,1-11.8,1.5-17.4
			C45.9,156.2,24,134.3,17.6,96.5z"/>
		<path class="st1" d="M147,46.3c4.5,5.8,8,12.2,10.6,19.3c5.6-2,11.1-4.1,16.9-6.2c-6.7-17.8-17.5-31.9-33-43
			c-3.4,4.9-6.8,9.7-10.3,14.7C137.2,35.5,142.5,40.5,147,46.3z"/>
		<path class="st2" d="M98.4,141.5v-7c6-1.1,11.8-3.5,17.1-7.1l5,5c1.9,1.8,4.9,1.8,6.7,0l5.2-5.2c1.8-1.9,1.8-4.9,0-6.7l-5.1-5.1
			c3.5-5.2,5.9-11.1,7-17h7.2c2.6,0,4.8-2.1,4.8-4.8v-7.4c0-2.6-2.1-4.8-4.8-4.8h-7.3c-1.1-6-3.5-11.7-7-16.9l5.2-5.2
			c1.8-1.9,1.8-4.9,0-6.7l-5.3-5.2c-1.9-1.8-4.9-1.8-6.7,0l-5.2,5.2c-5.2-3.5-11-5.9-16.9-7v-7.3c0-2.6-2.1-4.8-4.8-4.8h-7.4
			c-2.6,0-4.8,2.1-4.8,4.8v7.2c-6,1.1-11.8,3.5-17,7l-5-5c-1.9-1.8-4.9-1.8-6.7,0l-5.2,5.2c-1.8,1.9-1.8,4.9,0,6.7l5,5
			c-3.6,5.2-6,11.1-7.1,17.1h-7c-2.6,0-4.8,2.1-4.8,4.8v7.4c0,2.6,2.1,4.8,4.8,4.8h7c1.1,6,3.5,11.9,7.1,17.1l-4.9,5
			c-1.8,1.9-1.8,4.9,0,6.7l5.2,5.2c1.9,1.8,4.9,1.8,6.7,0l4.9-4.9c5.3,3.6,11.1,5.9,17.2,7.1v7c0,2.6,2.1,4.8,4.8,4.8h7.4
			C96.3,146.3,98.4,144.1,98.4,141.5z M72.6,107.3c-9.6-9.6-9.6-25.1,0-34.7s25.1-9.6,34.7,0s9.6,25.1,0,34.7
			C97.7,116.8,82.2,116.9,72.6,107.3z"/>
	</g>
</g>
<g>
	<path class="st0" d="M250,152.8h-3v15.6h-6.5v-35.6h6.5v14.6h1.8l13.5-14.6h8.2l-15.2,16.5l14.5,19.1h-8L250,152.8z"/>
	<path class="st0" d="M288.9,168.9c-9.4,0-16.4-6.8-16.4-18.3c0-11.5,7-18.3,16.4-18.3c9.3,0,16.4,6.8,16.4,18.3
		S298.2,168.9,288.9,168.9z M288.9,138.1c-5.8,0-9.9,4.4-9.9,12.5s4.1,12.5,9.9,12.5c5.8,0,9.9-4.4,9.9-12.5
		S294.7,138.1,288.9,138.1z"/>
	<path class="st0" d="M319.6,132.8l10.6,25.8h0.4l10.6-25.8h7.9v35.6h-6.2v-24.5h-0.3l-9.8,24.4H328l-9.8-24.4h-0.3v24.5h-6.2v-35.6
		H319.6z"/>
	<path class="st0" d="M385.4,168.4H379v-30.3h-15.6v30.3h-6.4v-35.6h28.4V168.4z"/>
	<path class="st0" d="M406.9,146.5c8.2,0,13.1,4.2,13.1,10.8c0,6.6-4.9,11.1-13.1,11.1h-13.3v-35.6h6.5v13.8H406.9z M400,163.1h6.9
		c4.3,0,6.7-2.7,6.7-5.9c0-3-2.4-5.4-6.7-5.4H400V163.1z"/>
	<path class="st0" d="M433,148.4h5.8c0.9-10.2,7.5-16.1,16.3-16.1c9.3,0,16.4,6.8,16.4,18.3s-7,18.3-16.4,18.3
		c-8.6,0-15.2-5.8-16.2-15.6H433v15.2h-6.5v-35.6h6.5V148.4z M455,138.1c-5.8,0-9.9,4.4-9.9,12.5s4.1,12.5,9.9,12.5
		c5.8,0,9.9-4.4,9.9-12.5S460.9,138.1,455,138.1z"/>
	<path class="st0" d="M474.5,132.8h28.4v5.4h-11v30.2h-6.4v-30.2h-11V132.8z"/>
	<path class="st0" d="M508.7,132.8h23.2v5.4h-16.7v9.7h15.5v5.4h-15.5v9.7H532v5.4h-23.3V132.8z"/>
	<path class="st0" d="M538.8,132.8h13.4c8.2,0,12.6,5,12.6,11.8c0,6.8-4.4,11.8-12.6,11.8h-6.8v12h-6.5V132.8z M551.2,151.1
		c4.8,0,7-2.7,6.9-6.5c0-3.8-2.1-6.4-7-6.4h-5.9v12.9H551.2z"/>
	<path class="st0" d="M570.6,132.8h6.5v15.1h16.5v-15.1h6.5v35.6h-6.5v-15.1H577v15.1h-6.5V132.8z"/>
	<path class="st0" d="M621.7,146.5c8.2,0,13.1,4.2,13.1,10.8c0,6.6-4.9,11.1-13.1,11.1h-13.3v-35.6h6.5v13.8H621.7z M614.8,163.1
		h6.9c4.3,0,6.7-2.7,6.7-5.9c0-3-2.4-5.4-6.7-5.4h-6.9V163.1z M643.2,168.4h-6.5v-35.6h6.5V168.4z"/>
	<path class="st0" d="M658.3,132.8v24.3h0.3l16.8-24.3h5.8v35.6h-6.5v-24.3h-0.3l-16.8,24.3h-5.7v-35.6H658.3z M674.7,123.7
		c0,4.1-3.1,7-8.2,7c-5,0-8.1-2.9-8.1-7h4.7c0,1.7,0.9,3.2,3.4,3.2c2.5,0,3.4-1.5,3.4-3.2H674.7z"/>
	<path class="st0" d="M722.4,144.8c-0.7-4.3-4.1-6.7-8.5-6.7c-5.8,0-9.9,4.5-9.9,12.5c0,8.2,4.1,12.5,9.9,12.5
		c4.3,0,7.7-2.3,8.5-6.5l6.5,0c-1,6.8-6.6,12.3-15.1,12.3c-9.4,0-16.3-6.8-16.3-18.3c0-11.5,7-18.3,16.3-18.3
		c7.9,0,14,4.6,15.1,12.5H722.4z"/>
	<path class="st0" d="M735.2,132.8h23.2v5.4h-16.7v9.7h15.5v5.4h-15.5v9.7h16.9v5.4h-23.3V132.8z"/>
	<path class="st0" d="M765.3,132.8h13.4c8.2,0,12.6,5,12.6,11.8c0,6.8-4.4,11.8-12.6,11.8h-6.8v12h-6.5V132.8z M777.7,151.1
		c4.8,0,7-2.7,6.9-6.5c0-3.8-2.1-6.4-7-6.4h-5.9v12.9H777.7z"/>
	<path class="st0" d="M797.1,132.8h13.6c7.7,0,11.6,3.9,11.6,9.2c0,4.3-2.7,6.8-6.2,7.6v0.3c3.8,0.2,7.6,3.4,7.6,8.8
		c0,5.5-4,9.7-12.2,9.7h-14.4V132.8z M809.9,147.9c3.4,0,5.9-1.9,5.9-5.1c0-2.7-2-4.7-5.8-4.7h-6.5v9.8H809.9z M810.5,163
		c4.7,0,6.6-2,6.6-4.8c0-3.2-2.5-5.6-6.5-5.6h-7.1V163H810.5z"/>
	<path class="st0" d="M836,132.8v24.3h0.3l16.8-24.3h5.8v35.6h-6.5v-24.3h-0.3l-16.8,24.3h-5.7v-35.6H836z"/>
	<path class="st0" d="M890.2,144.8c-0.7-4.3-4.1-6.7-8.5-6.7c-5.8,0-9.9,4.5-9.9,12.5c0,8.2,4.1,12.5,9.9,12.5
		c4.3,0,7.7-2.3,8.5-6.5l6.5,0c-1,6.8-6.6,12.3-15.1,12.3c-9.4,0-16.3-6.8-16.3-18.3c0-11.5,7-18.3,16.3-18.3
		c7.9,0,14,4.6,15.1,12.5H890.2z"/>
	<path class="st0" d="M902.9,132.8h6.5v15.1h16.5v-15.1h6.5v35.6h-6.5v-15.1h-16.5v15.1h-6.5V132.8z"/>
	<path class="st0" d="M954,146.5c8.2,0,13.1,4.2,13.1,10.8c0,6.6-4.9,11.1-13.1,11.1h-13.3v-35.6h6.5v13.8H954z M947.1,163.1h6.9
		c4.3,0,6.7-2.7,6.7-5.9c0-3-2.4-5.4-6.7-5.4h-6.9V163.1z M975.5,168.4H969v-35.6h6.5V168.4z"/>
	<path class="st0" d="M990.6,132.8v24.3h0.3l16.8-24.3h5.8v35.6h-6.5v-24.3h-0.3l-16.8,24.3h-5.7v-35.6H990.6z M1007,123.7
		c0,4.1-3.1,7-8.2,7c-5,0-8.1-2.9-8.1-7h4.7c0,1.7,0.9,3.2,3.4,3.2c2.5,0,3.4-1.5,3.4-3.2H1007z"/>
	<path class="st0" d="M1063.3,176.8h-6.3v-8.4h-26.2v-35.6h6.2V163h16v-30.3h6.2V163h4.5L1063.3,176.8z"/>
	<path class="st0" d="M1069.3,132.8h23.2v5.4h-16.7v9.7h15.5v5.4h-15.5v9.7h16.9v5.4h-23.3V132.8z"/>
	<path class="st0" d="M1099.3,132.8h6.5v15.1h16.5v-15.1h6.5v35.6h-6.5v-15.1h-16.5v15.1h-6.5V132.8z"/>
	<path class="st0" d="M1134.5,132.8h28.4v5.4h-11v30.2h-6.4v-30.2h-11V132.8z"/>
	<path class="st0" d="M1168.7,132.8h13.4c8.2,0,12.6,5,12.6,11.8c0,6.8-4.4,11.8-12.6,11.8h-6.8v12h-6.5V132.8z M1181.1,151.1
		c4.8,0,7-2.7,6.9-6.5c0-3.8-2.1-6.4-7-6.4h-5.9v12.9H1181.1z"/>
</g>
</svg>
