<?xml version="1.0" encoding="utf-8"?>
<!-- Generator: Adobe Illustrator 22.0.1, SVG Export Plug-In . SVG Version: 6.00 Build 0)  -->
<svg version="1.0" id="Capa_1" xmlns="http://www.w3.org/2000/svg" xmlns:xlink="http://www.w3.org/1999/xlink" x="0px" y="0px"
	 width="512px" height="512px" viewBox="0 0 512 512" style="enable-background:new 0 0 512 512;" xml:space="preserve">
<style type="text/css">
	.st0{fill:#5F89FC;}
</style>
<g>
	<g>
		<path class="st0" d="M480,0H32C14.3,0,0,14.3,0,32v362.7c0,17.7,14.3,32,32,32h256v-21.3H32c-5.9,0-10.7-4.8-10.7-10.7V32
			c0-5.9,4.8-10.7,10.7-10.7h448c5.9,0,10.7,4.8,10.7,10.7v362.7c0,5.9-4.8,10.7-10.7,10.7h-21.3v21.3H480c17.7,0,32-14.3,32-32V32
			C512,14.3,497.7,0,480,0z"/>
	</g>
</g>
<g>
	<g>
		<path class="st0" d="M448,106.7c-23.6,0-42.7-19.1-42.7-42.7c0-5.9-4.8-10.7-10.7-10.7H117.3c-5.9,0-10.7,4.8-10.7,10.7
			c0,23.6-19.1,42.7-42.7,42.7c-5.9,0-10.7,4.8-10.7,10.7v192c0,5.9,4.8,10.7,10.7,10.7c23.6,0,42.7,19.1,42.7,42.7
			c0,5.9,4.8,10.7,10.7,10.7H256V352H127.1c-4.6-26.8-25.6-47.9-52.4-52.4V127.1c26.8-4.6,47.9-25.6,52.4-52.4h257.8
			c4.6,26.8,25.6,47.9,52.4,52.4v86.2h21.3v-96C458.7,111.4,453.9,106.7,448,106.7z"/>
	</g>
</g>
<g>
	<g>
		<path class="st0" d="M373.3,224c-53,0-96,43-96,96s43,96,96,96c53-0.1,95.9-43,96-96C469.3,267,426.4,224,373.3,224z M373.3,394.7
			c-41.2,0-74.7-33.4-74.7-74.7c0-41.2,33.4-74.7,74.7-74.7c41.2,0,74.6,33.4,74.7,74.7C448,361.2,414.6,394.7,373.3,394.7z"/>
	</g>
</g>
<g>
	<g>
		<path class="st0" d="M416,384v95.1l-36-28.8c-3.9-3.1-9.4-3.1-13.3,0l-36,28.8V384h-21.3v117.3c0,2.4,0.8,4.8,2.3,6.7
			c3.7,4.6,10.4,5.3,15,1.7l46.7-37.3l46.7,37.3c1.9,1.5,4.2,2.3,6.7,2.3c5.9,0,10.7-4.8,10.7-10.7V384H416z"/>
	</g>
</g>
<g>
	<g>
		<path class="st0" d="M362.7,106.7H149.3c-5.9,0-10.7,4.8-10.7,10.7V160c0,5.9,4.8,10.7,10.7,10.7h213.3c5.9,0,10.7-4.8,10.7-10.7
			v-42.7C373.3,111.4,368.6,106.7,362.7,106.7z M352,149.3H160V128h192V149.3z"/>
	</g>
</g>
<g>
	<g>
		<rect x="128" y="202.7" class="st0" width="21.3" height="21.3"/>
	</g>
</g>
<g>
	<g>
		<rect x="170.7" y="202.7" class="st0" width="21.3" height="21.3"/>
	</g>
</g>
<g>
	<g>
		<rect x="128" y="245.3" class="st0" width="128" height="21.3"/>
	</g>
</g>
<g>
	<g>
		<path class="st0" d="M373.3,266.7c-29.5,0-53.3,23.9-53.3,53.3s23.9,53.3,53.3,53.3c29.4,0,53.3-23.9,53.3-53.3
			C426.7,290.5,402.8,266.7,373.3,266.7z M373.3,352c-17.7,0-32-14.3-32-32s14.3-32,32-32s32,14.3,32,32S391,352,373.3,352z"/>
	</g>
</g>
<g>
	<g>
		<rect x="53.3" y="352" class="st0" width="21.3" height="21.3"/>
	</g>
</g>
<g>
	<g>
		<rect x="437.3" y="53.3" class="st0" width="21.3" height="21.3"/>
	</g>
</g>
<g>
	<g>
		<rect x="53.3" y="53.3" class="st0" width="21.3" height="21.3"/>
	</g>
</g>
</svg>
