<?xml version="1.0" encoding="utf-8"?>
<!-- Generator: Adobe Illustrator 22.0.1, SVG Export Plug-In . SVG Version: 6.00 Build 0)  -->
<svg version="1.0" id="Слой_1" xmlns="http://www.w3.org/2000/svg" xmlns:xlink="http://www.w3.org/1999/xlink" x="0px" y="0px"
	 width="512px" height="512px" viewBox="0 0 512 512" style="enable-background:new 0 0 512 512;" xml:space="preserve">
<style type="text/css">
	.st0{fill:#5F89FC;}
</style>
<g id="Expand">
	<path class="st0" d="M17.1,349.9h34.1v85.3H17.1v17.1h34.1c0,4.7,3.8,8.5,8.5,8.5H128c4.7,0,8.5-3.8,8.5-8.5V449l63.7,26.5
		c34.7,14.2,73.6,14.6,108.6,1.2l131.8-50.3c7.8-3,14.1-9,17.4-16.6c3.5-7.8,3.6-16.6,0.5-24.5c-3.1-7.9-9.2-14.2-17-17.4
		c-7.6-3.2-16.3-3.2-23.9,0l-55.3,23.5c0.2-1,0.2-2.1,0.3-3.1c0-16.5-13.4-29.9-29.9-29.9h-66.2c-6.7,0-13.3-1.6-19.3-4.5
		c-27.7-13.8-58.2-21-89.1-21.1h-21.6c0-4.7-3.8-8.5-8.5-8.5H59.7c-4.7,0-8.5,3.8-8.5,8.5H17.1V349.9z M158.2,349.9
		c28.3,0,56.2,6.6,81.5,19.3c8.4,4.2,17.6,6.3,26.9,6.3h66.2c7.1,0,12.8,5.8,12.7,12.9c0,5.9-4.1,11.1-9.9,12.4
		c-1.1,0.1-2.2,0.3-3.4,0.3H230.4v17.1h101.9c0.2,0,0.3,0,0.5,0l0,0c0.2,0,0.3-0.1,0.5-0.1c6.8-0.1,13.5-1.5,19.7-4.2l71.3-30.3
		c3.4-1.5,7.2-1.5,10.6,0c3.5,1.5,6.3,4.4,7.7,8c1.4,3.7,1.4,7.8-0.2,11.3c-1.5,3.5-4.4,6.2-7.9,7.6l-131.8,50.3
		c-31,11.9-65.3,11.5-96-1l-70.2-29.2v-80.7H158.2z M68.3,341.3h51.2v102.4H68.3V341.3z"/>
	<rect x="85.3" y="409.6" class="st0" width="17.1" height="17.1"/>
	<path class="st0" d="M273.1,25.6H68.3c-18.9,0-34.1,15.3-34.1,34.1v119.5c0,18.9,15.3,34.1,34.1,34.1h22.5l48.8,40.7
		c1.5,1.3,3.5,2,5.5,2c1.3,0,2.5-0.3,3.6-0.8c3-1.4,4.9-4.4,4.9-7.7v-34.1h51.2v34.1c0,18.9,15.3,34.1,34.1,34.1h119.5v34.1
		c0,3.3,1.9,6.3,4.9,7.7c1.1,0.5,2.4,0.8,3.6,0.8c2,0,3.9-0.7,5.5-2l48.8-40.7h22.5c18.9,0,34.1-15.3,34.1-34.1V128
		c0-18.9-15.3-34.1-34.1-34.1H307.2V59.7C307.2,40.9,291.9,25.6,273.1,25.6z M204.8,128v68.3h-59.7c-4.7,0-8.5,3.8-8.5,8.5v24.4
		l-37.2-31c-1.5-1.3-3.5-2-5.5-2H68.3c-9.4,0-17.1-7.6-17.1-17.1V59.7c0-9.4,7.6-17.1,17.1-17.1h204.8c9.4,0,17.1,7.6,17.1,17.1
		v34.1h-51.2C220.1,93.9,204.8,109.1,204.8,128z M460.8,128v119.5c0,9.4-7.6,17.1-17.1,17.1h-25.6c-2,0-3.9,0.7-5.5,2l-37.2,31
		v-24.4c0-4.7-3.8-8.5-8.5-8.5h-128c-9.4,0-17.1-7.6-17.1-17.1V128c0-9.4,7.6-17.1,17.1-17.1h204.8
		C453.2,110.9,460.8,118.6,460.8,128z"/>
	<rect x="85.3" y="59.7" class="st0" width="17.1" height="17.1"/>
	<rect x="119.5" y="59.7" class="st0" width="153.6" height="17.1"/>
	<rect x="68.3" y="93.9" class="st0" width="119.5" height="17.1"/>
	<rect x="68.3" y="128" class="st0" width="119.5" height="17.1"/>
	<rect x="68.3" y="162.1" class="st0" width="119.5" height="17.1"/>
	<rect x="256" y="128" class="st0" width="17.1" height="17.1"/>
	<rect x="290.1" y="128" class="st0" width="68.3" height="17.1"/>
	<rect x="238.9" y="162.1" class="st0" width="119.5" height="17.1"/>
	<rect x="238.9" y="196.3" class="st0" width="119.5" height="17.1"/>
	<rect x="238.9" y="230.4" class="st0" width="93.9" height="17.1"/>
	<rect y="59.7" class="st0" width="17.1" height="128"/>
	<path class="st0" d="M452.3,59.7H384v17.1h68.3c23.6,0,42.6,19.1,42.7,42.7v34.1H512v-34.1C512,86.5,485.2,59.8,452.3,59.7z"/>
	<rect x="349.9" y="59.7" class="st0" width="17.1" height="17.1"/>
	<path class="st0" d="M409.6,145.1c9.4,0,17.1,7.6,17.1,17.1c0,9.4-7.6,17.1-17.1,17.1c-4.7,0-8.5,3.8-8.5,8.5v25.6h17.1v-18.2
		c18.3-4.7,29.2-23.3,24.5-41.6s-23.3-29.2-41.6-24.5c-15.1,3.9-25.6,17.5-25.6,33h17.1C392.5,152.7,400.2,145.1,409.6,145.1z"/>
	<rect x="401.1" y="230.4" class="st0" width="17.1" height="17.1"/>
</g>
</svg>
