<?xml version="1.0" encoding="utf-8"?>
<!-- Generator: Adobe Illustrator 22.0.1, SVG Export Plug-In . SVG Version: 6.00 Build 0)  -->
<svg version="1.0" id="Layer_1" xmlns="http://www.w3.org/2000/svg" xmlns:xlink="http://www.w3.org/1999/xlink" x="0px" y="0px"
	 width="512px" height="512px" viewBox="0 0 512 512" style="enable-background:new 0 0 512 512;" xml:space="preserve">
<style type="text/css">
	.st0{fill:#5F89FC;}
</style>
<path class="st0" d="M379,391.2l-71.3-21.4v-25.3c5.8-2.7,11.2-6.3,16.1-10.5c13.2-11.3,21.9-27,24.5-44.2l9-58.4
	c8.8-3.4,15-11.9,15-21.8c0-6.2-2.4-12.1-6.8-16.5c0,0,0,0,0,0l-15.7-15.7L338.6,144c-6.4-19.3-23.5-32.8-43.5-34.8
	c-3-6.5-9.6-11-17.2-11h-43.1c-7.6,0-14.2,4.5-17.2,11c-19.9,2-37,15.5-43.5,34.8l-11.1,33.4l-15.7,15.7c-4.4,4.4-6.8,10.3-6.8,16.5
	c0,9.9,6.2,18.4,15,21.8l9,58.4c2.6,17.2,11.4,32.8,24.5,44.2c4.9,4.2,10.4,7.7,16.1,10.5v25.3l-71.3,21.4
	c-21.8,6.5-36.5,26.3-36.5,49v43.4c0,10.4,8.5,18.9,18.9,18.9h194c4.5,0,8.1-3.6,8.1-8.1c0-4.5-3.6-8.1-8.1-8.1H183.7V462
	c0-4.5-3.6-8.1-8.1-8.1s-8.1,3.6-8.1,8.1v24.3h-51.2c-1.5,0-2.7-1.2-2.7-2.7v-43.4c0-15.6,10-29.1,25-33.6l75.9-22.8h83.9l75.9,22.8
	c14.9,4.5,25,18,25,33.6v43.4c0,1.5-1.2,2.7-2.7,2.7h-51.2V462c0-4.5-3.6-8.1-8.1-8.1s-8.1,3.6-8.1,8.1v32.3c0,4.5,3.6,8.1,8.1,8.1
	h59.3c10.4,0,18.9-8.5,18.9-18.9v-43.4C415.4,417.4,400.8,397.7,379,391.2z M163.9,216.8c-3.9,0-7.2-3.2-7.2-7.2
	c0-1.9,0.7-3.7,2.1-5.1l17.1-17.1c0.9-0.9,1.6-2,2-3.2l11.7-35.2c4-12.1,14.2-20.9,26.4-23.3v34.4c0,4.5,3.6,8.1,8.1,8.1
	c4.5,0,8.1-3.6,8.1-8.1v-43.1c0-1.5,1.2-2.7,2.7-2.7H278c1.5,0,2.7,1.2,2.7,2.7v43.1c0,4.5,3.6,8.1,8.1,8.1s8.1-3.6,8.1-8.1v-34.4
	c12.2,2.4,22.4,11.2,26.4,23.3l11.7,35.2c0.4,1.2,1.1,2.3,2,3.2l17.1,17.1c1.3,1.3,2.1,3.2,2.1,5.1c0,3.9-3.2,7.2-7.2,7.2v0
	L163.9,216.8L163.9,216.8z M276.4,351.5c5.1,0,10.1-0.5,15.1-1.6v17.7h-70.1V350c4.9,1,10,1.6,15.1,1.6h9.2c4.5,0,8.1-3.6,8.1-8.1
	s-3.6-8.1-8.1-8.1h-9.2c-28.1,0-51.7-20.2-55.9-48l-8.4-54.4h168.5l-8.4,54.4c-4.3,27.8-27.8,48-55.9,48c-4.5,0-8.1,3.6-8.1,8.1
	C268.3,347.9,272,351.5,276.4,351.5z"/>
<path class="st0" d="M512,366.4c0-0.1,0-0.1,0-0.2c0-0.3-0.1-0.6-0.1-0.9c0,0,0-0.1,0-0.1c-0.1-0.3-0.1-0.5-0.2-0.8
	c0-0.1,0-0.1-0.1-0.2c-0.1-0.2-0.2-0.4-0.3-0.7c0,0,0-0.1,0-0.1l-40.1-79.1V24.1c0-8-6.5-14.5-14.5-14.5H55.4
	c-8,0-14.5,6.5-14.5,14.5v260.3L0.8,363.5c0,0,0,0.1,0,0.1c-0.1,0.2-0.2,0.4-0.3,0.7c0,0.1-0.1,0.1-0.1,0.2
	c-0.1,0.3-0.2,0.5-0.2,0.8c0,0,0,0.1,0,0.1c-0.1,0.3-0.1,0.6-0.1,0.9c0,0.1,0,0.1,0,0.2c0,0.2,0,0.3,0,0.5v19
	c0,9.5,7.7,17.2,17.2,17.2h84.3c1.1,0,2.3-0.3,3.3-0.8l0,0c7.1-3.5,4.7-14.2-3.3-14.2H17.2c-1.2,0-2.2-1-2.2-2.2v-11.5h164
	c0.6,0,1.2-0.1,1.7-0.3L191,371c2.5-0.8,4.2-3.1,4.2-5.7l0,0c0-3.3-2.7-6-6-6l-169.6,0L53,293.7h93.4c4.6,0,8.1-4.1,7.4-8.7l0,0
	c-0.6-3.6-3.7-6.3-7.4-6.3H55.9V24.6h400.2v254.1h-89.6c-3.7,0-6.8,2.7-7.4,6.3v0c-0.7,4.6,2.8,8.7,7.4,8.7H459l33.3,65.7l-168.7,0
	c-3.3,0-6,2.7-6,6v0c0,2.6,1.7,4.9,4.2,5.7l10.3,3.1c0.6,0.2,1.1,0.3,1.7,0.3H497v11.5c0,1.2-1,2.2-2.2,2.2h-93.4
	c-8,0-10.4,10.8-3.3,14.2h0c1,0.5,2.1,0.8,3.3,0.8h93.4c9.5,0,17.2-7.7,17.2-17.2v-19C512,366.7,512,366.6,512,366.4z"/>
<path class="st0" d="M141.6,247.7H86.9v-75.7c0-4.1-3.2-7.7-7.3-7.8c-4.2-0.1-7.7,3.3-7.7,7.5v79.3c0,6.5,5.3,11.8,11.8,11.8h58
	c4.6,0,8.1-4.1,7.4-8.6v0C148.5,250.4,145.4,247.7,141.6,247.7z"/>
<path class="st0" d="M432.3,164.1c-4.1,0.1-7.3,3.7-7.3,7.8v75.7h-53.8c-3.7,0-6.8,2.7-7.4,6.4v0c-0.7,4.5,2.8,8.6,7.4,8.6h57.1
	c6.5,0,11.8-5.3,11.8-11.8v-79.3C440.1,167.4,436.6,164,432.3,164.1z"/>
<path class="st0" d="M428.3,40.6H83.7c-6.5,0-11.8,5.3-11.8,11.8v79.3c0,4.1,3.4,7.5,7.5,7.5s7.5-3.4,7.5-7.5V55.6h338.2v76.1
	c0,4.1,3.4,7.5,7.5,7.5s7.5-3.4,7.5-7.5V52.3C440.1,45.8,434.8,40.6,428.3,40.6z"/>
</svg>
