<?xml version="1.0" encoding="utf-8"?>
<!-- Generator: Adobe Illustrator 22.0.1, SVG Export Plug-In . SVG Version: 6.00 Build 0)  -->
<svg version="1.0" id="Слой_1" xmlns="http://www.w3.org/2000/svg" xmlns:xlink="http://www.w3.org/1999/xlink" x="0px" y="0px"
	 width="103.9px" height="100.1px" viewBox="0 0 103.9 100.1" style="enable-background:new 0 0 103.9 100.1;" xml:space="preserve"
	>
<style type="text/css">
	.st0{fill:#63AF55;}
</style>
<path class="st0" d="M82.1,100c2.2-0.3,3.7-2.3,3.5-4.5c0-0.1,0-0.1,0-0.2l-5.1-31.1L102.8,42c1.6-1.6,1.6-4.1,0-5.7
	c-0.6-0.6-1.4-1-2.2-1.1l-31-4.8l-14-28.2c-1-2-3.4-2.8-5.4-1.8c-0.8,0.4-1.4,1-1.8,1.8l-14,28.2l-31,4.8c-2.2,0.3-3.7,2.4-3.3,4.6
	c0.1,0.8,0.5,1.6,1.1,2.2l22.3,22.2l-5.1,31.1c-0.4,2.2,1.1,4.3,3.3,4.6c0.9,0.1,1.7,0,2.5-0.4L52,85.1l27.8,14.5
	C80.5,100,81.3,100.1,82.1,100L82.1,100z M76.4,88.8L53.8,77c-1.2-0.6-2.5-0.6-3.7,0L27.5,88.8l4.1-25.3c0.2-1.3-0.2-2.6-1.1-3.5
	L12.4,41.9l25.2-3.8c1.3-0.2,2.4-1,3-2.2L52,13l11.4,22.9c0.6,1.2,1.7,2,3,2.2l25.2,3.8L73.4,60c-0.9,0.9-1.3,2.2-1.1,3.5L76.4,88.8
	L76.4,88.8z"/>
</svg>
