<?xml version="1.0" encoding="utf-8"?>
<!-- Generator: Adobe Illustrator 22.0.1, SVG Export Plug-In . SVG Version: 6.00 Build 0)  -->
<svg version="1.0" id="Слой_1" xmlns="http://www.w3.org/2000/svg" xmlns:xlink="http://www.w3.org/1999/xlink" x="0px" y="0px"
	 width="656px" height="718.7px" viewBox="0 0 656 718.7" style="enable-background:new 0 0 656 718.7;" xml:space="preserve">
<style type="text/css">
	.st0{fill:#FEB801;}
	.st1{fill:#7FB900;}
	.st2{fill:#01A3EE;}
	.st3{fill:#F15022;}
</style>
<path class="st0" d="M652.3,718.7l-375.1-76.5c-2.3-0.5-4-2.5-4-4.9c0-31.2-0.1-231.2-0.1-258.3c0-2.8,2.2-5,5-5
	c33.5,0,330.5,0.1,372.8,0.1c2.8,0,5,2.2,5,5c0,31.7,0,302,0,336.7C655.9,717.6,654.2,719,652.3,718.7z"/>
<path class="st1" d="M652.4,0.1c1.9-0.4,3.6,1,3.6,2.9c0,34.8,0,308.5,0,337.6c0,2.2-1.8,4-4,4l-375.8,0.2c-1.7,0-3-1.3-3-3
	c0-21.8-0.1-231.1-0.1-263.1c0-2.4,1.7-4.4,4-4.9L652.4,0.1z"/>
<path class="st2" d="M4.1,591.1c-2.4-0.5-4.1-2.5-4.1-4.9C0,558.7,0,402.7,0,379c0-2.8,2.2-5,5-5c24.8,0,196.6-0.1,228.3-0.1
	c2.8,0,5,2.2,5,5c0,26.9-0.1,224.1-0.1,253.3c0,1.9-1.7,3.3-3.6,2.9L4.1,591.1z"/>
<path class="st3" d="M0,340.3C0,275.6,0,156,0,132.4c0-2.4,1.7-4.4,4-4.9l231.7-45.9c1.2-0.2,2.4,0.7,2.4,2c0,21.3,0,177,0.1,255.9
	c0,4.3-1.2,5.2-5.3,5.2c-76.1-0.1-152.3-0.1-228.4-0.1C3,344.6,0,344.7,0,340.3z"/>
</svg>
