<?xml version="1.0" encoding="utf-8"?>
<!-- Generator: Adobe Illustrator 22.0.1, SVG Export Plug-In . SVG Version: 6.00 Build 0)  -->
<svg version="1.0" id="Слой_1" xmlns="http://www.w3.org/2000/svg" xmlns:xlink="http://www.w3.org/1999/xlink" x="0px" y="0px"
	 width="512px" height="512px" viewBox="0 0 512 512" style="enable-background:new 0 0 512 512;" xml:space="preserve">
<style type="text/css">
	.st0{fill:#5F89FC;}
</style>
<path class="st0" d="M409.6,298.7V179.2c0.1-56.1-41.8-103.5-97.6-110.1l28.4-56.8c1.3-2.6,1.2-5.8-0.4-8.3c-1.6-2.5-4.3-4-7.3-4
	H179.2c-3,0-5.7,1.5-7.3,4c-1.6,2.5-1.7,5.7-0.4,8.3L200,69.1c-55.6,6.8-97.5,54-97.6,110.1v153.6h17.1V179.2
	c0.1-51.8,42.1-93.8,93.9-93.9h85.3c24.9,0,48.8,9.8,66.4,27.5c17.6,17.6,27.5,41.5,27.5,66.4v119.5H409.6z M293.4,68.3h-74.8
	L193,17.1h126L293.4,68.3z"/>
<path class="st0" d="M183.5,127.5c4.7-2.7,9.7-4.8,14.9-6.1l-4.3-16.5c-6.7,1.7-13.2,4.4-19.2,7.9L183.5,127.5z"/>
<path class="st0" d="M136.5,213.3h17.1v-34.1c0-16.2,6.5-31.6,18.1-42.8l-11.9-12.2c-15,14.4-23.4,34.3-23.3,55.1V213.3z"/>
<path class="st0" d="M24.3,419.4l144.9,79c16.3,8.9,34.6,13.6,53.2,13.6h281.1c4.7,0,8.5-3.8,8.5-8.5V349.9c0-4.7-3.8-8.5-8.5-8.5
	h-65.3l-1-0.8c-10-7.8-21.1-14.2-32.9-18.9c-41.4-16.9-88.4-12.7-126.2,11.1h-64.7c-13.6,0-26.4,6.5-34.4,17.4
	c-8,11-10.4,25.1-6.3,38L67.1,335.4c-15.7-7.9-34.5-6.1-48.3,4.6C7,348.9,0,362.8,0,377.5v0.9C0,395.5,9.3,411.3,24.3,419.4z
	 M443.7,358.4h51.2v136.5h-51.2V358.4z M17.1,377.5c0.1-9.6,4.6-18.5,12.4-24.1c8.7-6.6,20.3-7.6,30.1-2.7l133,66.6
	c1.2,0.6,2.5,0.9,3.8,0.9h128v-17.1H213.3c-14.1,0-25.6-11.5-25.6-25.6c0-14.1,11.5-25.6,25.6-25.6h67.2c1.7,0,3.3-0.5,4.7-1.4
	c33.4-22,75.6-26.1,112.6-11c10.3,4.1,20,9.7,28.8,16.5v140.9H222.4c-15.7,0-31.2-4-45-11.5l-144.9-79c-9.5-5.2-15.4-15.1-15.4-26
	V377.5z"/>
<path class="st0" d="M460.8,452.3h17.1v17.1h-17.1V452.3z"/>
<path class="st0" d="M264.5,298.7v-17.1h8.5c18.8,0,34.1-15.3,34.1-34.1s-15.3-34.1-34.1-34.1h-34.1c-9.4,0-17.1-7.6-17.1-17.1
	s7.6-17.1,17.1-17.1h59.7v-17.1h-34.1v-17.1h-17.1v17.1h-8.5c-18.8,0-34.1,15.3-34.1,34.1s15.3,34.1,34.1,34.1h34.1
	c9.4,0,17.1,7.6,17.1,17.1c0,9.4-7.6,17.1-17.1,17.1h-59.7v17.1h34.1v17.1H264.5z"/>
</svg>
