<?xml version="1.0" encoding="utf-8"?>
<!-- Generator: Adobe Illustrator 22.0.1, SVG Export Plug-In . SVG Version: 6.00 Build 0)  -->
<svg version="1.0" id="Capa_1" xmlns="http://www.w3.org/2000/svg" xmlns:xlink="http://www.w3.org/1999/xlink" x="0px" y="0px"
	 width="512px" height="512px" viewBox="0 0 512 512" style="enable-background:new 0 0 512 512;" xml:space="preserve">
<style type="text/css">
	.st0{fill:#5F89FC;}
</style>
<g>
	<g>
		<g>
			<path class="st0" d="M0,421.2c0,22.8,18.5,41.3,41.3,41.3h99.1v33h-33V512h297.3v-16.5h-33v-33h99.1c22.8,0,41.3-18.5,41.3-41.3
				v-24.8H0V421.2z M355.1,495.5H156.9v-33h198.2V495.5z M16.5,412.9h479v8.3c0,13.7-11.1,24.8-24.8,24.8H41.3
				c-13.7,0-24.8-11.1-24.8-24.8V412.9z"/>
			<path class="st0" d="M16.5,123.9c0-13.7,11.1-24.8,24.8-24.8h24.8V82.6H41.3C18.5,82.6,0,101.1,0,123.9v256h16.5V123.9z"/>
			<path class="st0" d="M470.7,82.6h-24.8v16.5h24.8c13.7,0,24.8,11.1,24.8,24.8v256H512v-256C512,101.1,493.5,82.6,470.7,82.6z"/>
			<path class="st0" d="M429.4,0H82.6v346.8h346.8V0z M412.9,330.3H99.1V16.5h313.8V330.3z"/>
			<rect x="412.9" y="363.4" class="st0" width="16.5" height="16.5"/>
			<rect x="379.9" y="363.4" class="st0" width="16.5" height="16.5"/>
			<rect x="346.8" y="363.4" class="st0" width="16.5" height="16.5"/>
			<path class="st0" d="M156.9,132.1L156.9,132.1c-5.3,12.8-8.3,26.7-8.3,41.3c0,14.6,3,28.5,8.3,41.2v0.1c0,0,0,0,0,0
				c16.2,38.8,54.5,66.1,99.1,66.1c59.2,0,107.4-48.2,107.4-107.4S315.2,66.1,256,66.1C211.4,66.1,173.1,93.4,156.9,132.1
				C156.9,132.1,156.9,132.1,156.9,132.1z M256,82.6c50.1,0,90.8,40.8,90.8,90.8s-40.8,90.8-90.8,90.8c-21.5,0-41.2-7.5-56.7-20
				c24.6-14.7,40.2-41.5,40.2-70.8s-15.7-56.1-40.2-70.8C214.8,90.1,234.5,82.6,256,82.6z M186.9,114.6
				c21.9,11.2,36.1,33.8,36.1,58.8s-14.2,47.6-36.1,58.8c-5.4-6.3-9.9-13.4-13.4-21c14.5-6.4,24.7-20.9,24.7-37.8
				s-10.2-31.3-24.7-37.8C177,128,181.5,121,186.9,114.6z M168,151.4c8.1,4.1,13.7,12.4,13.7,22c0,9.7-5.6,18-13.7,22
				c-1.8-7.1-2.8-14.4-2.8-22C165.2,165.8,166.2,158.4,168,151.4z"/>
			
				<rect x="256" y="219.5" transform="matrix(0.7071 -0.7071 0.7071 0.7071 -86.0994 254.5766)" class="st0" width="16.5" height="23.4"/>
			
				<rect x="252.6" y="107.4" transform="matrix(0.7071 -0.7071 0.7071 0.7071 -4.3516 220.7183)" class="st0" width="23.4" height="16.5"/>
			<polygon class="st0" points="256,165.2 256,181.7 330.3,181.7 330.3,165.2 300.7,165.2 319.6,146.2 308,134.5 277.4,165.2 			"/>
			<rect x="115.6" y="33" class="st0" width="57.8" height="16.5"/>
			<rect x="189.9" y="33" class="st0" width="16.5" height="16.5"/>
			<rect x="115.6" y="66.1" class="st0" width="57.8" height="16.5"/>
			<rect x="338.6" y="33" class="st0" width="57.8" height="16.5"/>
			<rect x="338.6" y="66.1" class="st0" width="57.8" height="16.5"/>
			<rect x="115.6" y="297.3" class="st0" width="16.5" height="16.5"/>
			<rect x="148.6" y="297.3" class="st0" width="16.5" height="16.5"/>
			<rect x="181.7" y="297.3" class="st0" width="16.5" height="16.5"/>
		</g>
	</g>
</g>
</svg>
