<?xml version="1.0" encoding="utf-8"?>
<!-- Generator: Adobe Illustrator 22.0.1, SVG Export Plug-In . SVG Version: 6.00 Build 0)  -->
<svg version="1.0" id="Слой_1" xmlns="http://www.w3.org/2000/svg" xmlns:xlink="http://www.w3.org/1999/xlink" x="0px" y="0px"
	 width="512px" height="512px" viewBox="0 0 512 512" style="enable-background:new 0 0 512 512;" xml:space="preserve">
<style type="text/css">
	.st0{fill:#5F89FC;}
</style>
<path class="st0" d="M380.8,49.6C352.1,16.7,311.3,0,259.3,0h-6.5c-25.8,0-49.1,4.1-69.2,12.3c-8.7,3.5-3.4,17.6,5.6,13.9
	c18.4-7.4,39.7-11.2,63.6-11.2h6.5c47.5,0,84.5,14.9,110.2,44.4c53.9,61.9,47.5,174.3,38.9,235.7c-3.3,23.5-23.6,41.2-47.3,41.2
	h-65.2v-13.5c3.2-1.2,6.2-2.6,9.3-4.2h7.7c9,0,16.8-5.3,20.4-13h22.7c14.8,0,26.9-12.1,26.9-26.9v-34.9
	c11.4-6.3,19.1-18.4,19.1-32.2c0-20.2-16.3-36.6-36.4-36.8v-20c0-4.1-3.4-7.5-7.5-7.5c-23.3,0-36.5-13.1-50.3-30.2
	c-15-18.5-32.1-31.8-56.7-34.6c-48.3-5.4-82.8,32.7-94.8,75.7c-5.4,19.5-7.9,42.5-7.5,68.3c0.8,43.5,9.6,79.8,10,81.3
	c2.3,9.2,16.8,5.7,14.5-3.6c0-0.1-1.3-5.2-2.8-13.7c11.8,14.3,27.1,25.4,44.4,32.2v13.5H151c-23.7,0-44.1-17.7-47.3-41.2
	c-4.6-33-8.8-82.3-2.6-130.2c7.1-54.6,26-94.9,56.1-119.7c7.2-6-2-17.8-9.5-11.6C73,95.2,78.8,225.2,88.9,297.2
	c4.3,30.8,31,54.1,62.2,54.1h63.7c0.6,4.6,0,12.5-6.4,12.5h-18.2c-44.4,0-80.6,36.2-80.6,80.6v4c0,9.4,15,9.8,15,0v-4
	c0-31.6,22.5-58.1,52.3-64.3l-24.8,53.6c-1.4,3-0.6,6.6,1.9,8.8l28.4,24.8l-8.6,29.6h-49.2v-13.7c0-9.4-15-9.8-15,0v21.2
	c0,4.1,3.4,7.5,7.5,7.5h276.4c4.1,0,7.5-3.4,7.5-7.5v-60.1c0-44.4-36.2-80.6-80.6-80.6h-18.2c-6.2,0-7-7.8-6.4-12.5H361
	c31.1,0,57.9-23.3,62.2-54.1C432.1,233.2,438.5,116,380.8,49.6z M320.3,296.2c0,4.1-3.4,7.5-7.5,7.5h-17c-4.1,0-7.5-3.4-7.5-7.5
	c0-4.1,3.4-7.5,7.5-7.5h17C316.9,288.7,320.3,292,320.3,296.2z M365.1,233.4h-0.4c0.5-4.3,0.8-8.7,0.8-13.1v-30.6
	c11.9,0.2,21.5,9.9,21.5,21.8C386.9,223.6,377.1,233.4,365.1,233.4z M164.9,250.4c-0.6-7.6-1.1-15.7-1.3-24.1
	c-0.7-37.8,5.2-88.2,36.9-114.2c13.9-11.4,31.2-16.6,48.7-14.7c16.6,1.8,31.8,10.1,41.5,22.5l1.5,1.9c16.3,20.9,29.4,37.7,58.2,40.1
	v58.4c0,13.7-2.8,26.9-8.4,39.2c-3.9,8.5,9.6,15.1,13.6,6.2c2.6-5.6,4.6-11.4,6.2-17.3c2,0,4,0,6-0.1v30.5c0,6.6-5.4,11.9-11.9,11.9
	h-21.3c-2.5-9.8-11.3-17-21.8-17h-17c-12.4,0-22.5,10.1-22.5,22.5c0,6.3,2.6,12,6.8,16.1c-8,2.2-16.3,3.3-24.8,3.3
	C214.1,315.5,177.9,289.4,164.9,250.4z M255.3,330.5c8.7,0,17.3-1,25.6-3v29.9c0,8.1,4.5,15.1,11.1,18.7
	c-2.3,18.2-17.8,32.3-36.6,32.3c-18.8,0-34.4-14.1-36.7-32.3c6.6-3.6,11.1-10.7,11.1-18.7v-29.9
	C237.9,329.5,246.5,330.5,255.3,330.5z M315.5,467l8.7,30.1h-28.7l30.1-105.3l19.9,43.2l-27.7,24.3
	C315.6,461.2,314.7,464.2,315.5,467z M279.9,497h-49.2l-33.8-118.2h7c3.6,25.2,25.2,44.7,51.4,44.7c26.2,0,47.9-19.5,51.4-44.7h7
	L279.9,497z M195.8,459.2L168,435l18.1-39.2L215.1,497h-25.7L198,467C198.9,464.2,198,461.2,195.8,459.2z M386,444.4V497h-46.2
	l-8.6-29.6l28.4-24.8c2.5-2.2,3.3-5.8,1.9-8.8L337,380.9C365.2,388.3,386,414,386,444.4z"/>
</svg>
